<?xml version="1.0" encoding="UTF-8"?>
<svg width="461px" height="440px" viewBox="0 0 461 440" version="1.1" xmlns="http://www.w3.org/2000/svg" xmlns:xlink="http://www.w3.org/1999/xlink">
    <!-- Generator: Sketch 51.3 (57544) - http://www.bohemiancoding.com/sketch -->
    <title>alien/head</title>
    <desc>Created with Sketch.</desc>
    <defs>
        <path d="M397.172577,390.081149 C453.773863,338.444401 463.268695,283.909873 440.846368,168.097205 C418.424041,52.2845365 369.278649,-13.4187645 195.648408,2.3066734 C54.910288,15.0531199 0,139.626367 0,238.283941 C1.57296109e-15,263.03365 9.46312261,372.975927 79.7608084,407.828534 C150.058494,442.681141 340.57129,441.717898 397.172577,390.081149 Z" id="path-1"></path>
        <path d="M2.93133005,92.0737305 C23.5709722,131.373928 91.945241,116.385353 126.911097,92.0737305 C161.876953,67.7621084 183.829165,1.01247182 145.652795,1.01247182 C107.476425,1.01247182 -17.7083121,52.773533 2.93133005,92.0737305 Z" id="path-3"></path>
        <path d="M125.624396,2.90118383 C124.435,18.9946715 121.729181,27.5538433 117.506939,28.5786993 C113.548501,29.5395227 106.297089,25.5789697 95.7527031,16.6970402 L125.624396,2.90118383 Z" id="path-4"></path>
        <path d="M78.8886792,20.9436232 C79.9789042,38.221064 79.056695,47.4380196 76.1220517,48.5944903 C73.4013814,49.6666394 65.8226793,45.178209 53.3859455,35.129199 L78.8886792,20.9436232 Z" id="path-5"></path>
        <path d="M39.9098881,45.4530178 C39.1961226,62.0247003 37.3429817,70.8405322 34.3504654,71.9005132 C31.8734068,72.7779137 24.947605,69.5209897 13.5730599,62.1297414 L39.9098881,45.4530178 Z" id="path-6"></path>
    </defs>
    <g id="alien/head" stroke="none" stroke-width="1" fill="none" fill-rule="evenodd">
        <g id="Group" transform="translate(4.000000, 4.000000)">
            <g id="head-container">
                <g id="head">
                    <mask id="mask-2" fill="white">
                        <use xlink:href="#path-1"></use>
                    </mask>
                    <g id="head-mask" fill-rule="nonzero" fill="#65DDB9">
                        <use xlink:href="#path-1"></use>
                        <path stroke="#000000" stroke-width="4" d="M398.520507,391.558675 C371.650422,416.071967 313.324809,430.821329 243.676467,433.386994 C178.053964,435.804358 113.466703,426.771756 78.8724271,409.620399 C47.0082841,393.822603 25.0918966,362.095882 11.6135049,319.875892 C2.42498672,291.093589 -2,259.153476 -2,238.283941 C-2,184.717995 13.7025416,129.678795 43.4050456,86.9373009 C77.9751587,37.191384 129.275656,6.30977096 195.468009,0.314825944 C279.992915,-7.34047161 337.593001,3.95006531 376.186738,34.3030941 C410.634948,61.3957668 430.292167,103.062177 442.809905,167.717047 C465.600243,285.430513 455.122896,339.920921 398.520507,391.558675 Z" fill-rule="evenodd"></path>
                    </g>
                    <g id="top-marks" mask="url(#mask-2)" fill="#46B29D" fill-rule="nonzero" stroke="#000000">
                        <g transform="translate(191.000000, -9.000000)">
                            <path d="M14.3120116,6.32270267 C5.26018657,8.54898163 0.73427406,11.1486368 0.73427406,14.1216683 C0.73427406,17.0946998 6.7207922,19.7390076 18.6938285,22.0545919 L14.3120116,6.32270267 Z" id="top-mark-1" transform="translate(9.714051, 14.188647) scale(-1, 1) rotate(-80.000000) translate(-9.714051, -14.188647) "></path>
                            <path d="M39.3937873,4.32270267 C30.3419623,6.54898163 25.8160498,9.14863684 25.8160498,12.1216683 C25.8160498,15.0946998 31.8025679,17.7390076 43.7756042,20.0545919 L39.3937873,4.32270267 Z" id="top-mark-2" transform="translate(34.795827, 12.188647) scale(-1, 1) rotate(-80.000000) translate(-34.795827, -12.188647) "></path>
                            <path d="M62.4638807,3.32270267 C53.4120557,5.54898163 48.8861432,8.14863684 48.8861432,11.1216683 C48.8861432,14.0946998 54.8726614,16.7390076 66.8456976,19.0545919 L62.4638807,3.32270267 Z" id="top-mark-3" transform="translate(57.865920, 11.188647) scale(-1, 1) rotate(-101.000000) translate(-57.865920, -11.188647) "></path>
                        </g>
                    </g>
                    <g id="right-marks" mask="url(#mask-2)" fill="#46B29D" fill-rule="nonzero" stroke="#000000">
                        <g transform="translate(445.915627, 206.927939) rotate(-279.000000) translate(-445.915627, -206.927939) translate(412.915627, 195.927939)">
                            <path d="M16,7.55022449 C15.3890663,16.6560564 13.6425246,21.4616894 10.7603749,21.9671235 C7.87822511,22.4725576 4.29143349,17.1501831 0,6 L16,7.55022449 Z" id="right-mark-1"></path>
                            <path d="M41,5.55022449 C40.3890663,14.6560564 38.6425246,19.4616894 35.7603749,19.9671235 C32.8782251,20.4725576 29.2914335,15.1501831 25,4 L41,5.55022449 Z" id="right-mark-2"></path>
                            <path d="M66,7.22825434 C61.9821589,15.6022722 58.4747636,19.5085473 55.4778141,18.9470797 C52.4808645,18.385612 50.9883061,12.0699188 51.000069,-1.42108547e-14 L66,7.22825434 Z" id="right-mark-3"></path>
                        </g>
                    </g>
                    <g id="left-marks" mask="url(#mask-2)" fill="#46B29D" fill-rule="nonzero" stroke="#000000">
                        <g transform="translate(1.915627, 206.927939) rotate(-85.000000) translate(-1.915627, -206.927939) translate(-31.084373, 195.927939)">
                            <path d="M16,7.55022449 C15.3890663,16.6560564 13.6425246,21.4616894 10.7603749,21.9671235 C7.87822511,22.4725576 4.29143349,17.1501831 0,6 L16,7.55022449 Z" id="left-mark-1"></path>
                            <path d="M41,5.55022449 C40.3890663,14.6560564 38.6425246,19.4616894 35.7603749,19.9671235 C32.8782251,20.4725576 29.2914335,15.1501831 25,4 L41,5.55022449 Z" id="left-mark-2"></path>
                            <path d="M66,7.22825434 C61.9821589,15.6022722 58.4747636,19.5085473 55.4778141,18.9470797 C52.4808645,18.385612 50.9883061,12.0699188 51.000069,-1.42108547e-14 L66,7.22825434 Z" id="left-mark-3"></path>
                        </g>
                    </g>
                    <g id="slime" mask="url(#mask-2)" fill="#84FFDA" fill-rule="nonzero" stroke="#000000">
                        <g transform="translate(183.000000, 336.000000)">
                            <path d="M70.0896886,9.08691441 C66.2877337,23.0597914 51.956292,20.0223131 45.9342908,26.8838363 C39.9122895,33.7453595 39.9877432,46.7448444 30.9809516,44.0102427 C21.9741599,41.275641 28.3640066,29.1342271 24.2075901,20.7450803 C20.0511735,12.3559335 10.0275079,18.23128 10.0275079,1.71864049 L70.0896886,9.08691441 Z" id="slime-3" transform="translate(40.058598, 23.050589) rotate(-3.000000) translate(-40.058598, -23.050589) "></path>
                            <path d="M9.95226354,33.05913 C17.8578335,32.1653149 18.4139188,41.6272855 16.6207318,46.3915317 C14.8275448,51.1557779 9.30734128,58.0220114 2.81580079,52.0197098 C-3.67573971,46.0174082 2.04669353,33.9529451 9.95226354,33.05913 Z" id="slime-2"></path>
                            <path d="M58.1377487,32.38034 C64.0218384,31.7150764 64.4357308,38.7575899 63.1010676,42.3036026 C61.7664044,45.8496153 57.6577352,50.9601303 52.826103,46.492637 C47.9944709,42.0251437 52.2536591,33.0456037 58.1377487,32.38034 Z" id="slime-1" transform="translate(57.230312, 40.286787) rotate(-14.000000) translate(-57.230312, -40.286787) "></path>
                        </g>
                    </g>
                    <g id="mouth" mask="url(#mask-2)" fill-rule="nonzero">
                        <g transform="translate(226.000000, 311.500000) scale(1, -1) rotate(23.000000) translate(-226.000000, -311.500000) translate(143.000000, 253.000000)">
                            <g id="mouth-bg">
                                <use fill="#000000" xlink:href="#path-3"></use>
                                <use fill="#000000" xlink:href="#path-3"></use>
                            </g>
                            <g id="tooth-3" transform="translate(110.688550, 15.810286) rotate(8.000000) translate(-110.688550, -15.810286) ">
                                <use fill="#FFFFFF" xlink:href="#path-4"></use>
                                <use fill="#FFFFFF" xlink:href="#path-4"></use>
                            </g>
                            <g id="tooth-2" transform="translate(66.358796, 34.846578) rotate(4.000000) translate(-66.358796, -34.846578) ">
                                <use fill="#FFFFFF" xlink:href="#path-5"></use>
                                <use fill="#FFFFFF" xlink:href="#path-5"></use>
                            </g>
                            <g id="tooth-1" transform="translate(26.741474, 58.746592) rotate(-8.000000) translate(-26.741474, -58.746592) ">
                                <use fill="#FFFFFF" xlink:href="#path-6"></use>
                                <use fill="#FFFFFF" xlink:href="#path-6"></use>
                            </g>
                        </g>
                    </g>
                </g>
            </g>
            <g id="eyes" transform="translate(88.000000, 76.000000)">
                <g id="eye7" transform="translate(122.000000, 0.000000)">
                    <path d="M27.9885551,1.147708 C5.20943241,5.46221086 -6.75823165,32.2982458 5.10694728,52.4594741 C18.7749983,75.683769 53.8480053,74.7246705 65.6684372,50.8048133 C78.6263097,24.5793755 56.7175888,-4.29438354 27.9885551,1.147708" id="head-left-eye" fill="#000000"></path>
                    <g id="head-left-glare" transform="translate(15.000000, 12.000000)" fill="#FFFFFF" fill-rule="nonzero">
                        <ellipse id="head-left-glare-2" cx="6.89286706" cy="6.87679977" rx="6.89286706" ry="6.87679977"></ellipse>
                        <ellipse id="head-left-glare-1" cx="22.9762235" cy="12.2254218" rx="3.06349647" ry="3.05635545"></ellipse>
                    </g>
                </g>
                <g id="eye6" transform="translate(0.000000, 60.000000)">
                    <path d="M33.5209245,1.04972213 C5.95182292,6.27147579 -8.53239364,38.7505744 5.8277873,63.1512925 C22.3699471,91.2591768 64.8180829,90.0983998 79.1241074,61.1486907 C94.8067527,29.4085852 68.2910804,-5.53672884 33.5209245,1.04972213" id="head-left-eye" fill="#000000"></path>
                    <g id="head-left-glare" transform="translate(22.000000, 19.000000)" fill="#FFFFFF" fill-rule="nonzero">
                        <ellipse id="head-left-glare-2" cx="6.89286706" cy="6.87679977" rx="6.89286706" ry="6.87679977"></ellipse>
                        <ellipse id="head-left-glare-1" cx="22.9762235" cy="12.2254218" rx="3.06349647" ry="3.05635545"></ellipse>
                    </g>
                </g>
                <g id="eye5" transform="translate(150.000000, 81.000000)">
                    <path d="M30.3036737,0.83537682 C5.2892695,5.57325543 -7.85276366,35.0426706 5.17672767,57.1822903 C20.1860042,82.6855508 58.7006734,81.6323374 71.6810267,55.3652601 C85.9104359,26.5663591 61.8518448,-5.14073909 30.3036737,0.83537682" id="head-left-eye" fill="#000000"></path>
                    <g id="head-left-glare" transform="translate(20.000000, 17.000000)" fill="#FFFFFF" fill-rule="nonzero">
                        <ellipse id="head-left-glare-2" cx="6.89286706" cy="6.87679977" rx="6.89286706" ry="6.87679977"></ellipse>
                        <ellipse id="head-left-glare-1" cx="22.9762235" cy="12.2254218" rx="3.06349647" ry="3.05635545"></ellipse>
                    </g>
                </g>
                <g id="eye4" transform="translate(63.000000, 14.000000)">
                    <path d="M16.8292816,0.886475935 C3.32157887,3.44491607 -3.77507933,19.3583112 3.26080661,31.313639 C11.3657706,45.0853226 32.1635756,44.5165905 39.1729272,30.3324481 C46.8567651,14.7811286 33.8651986,-2.3406086 16.8292816,0.886475935" id="head-left-eye" fill="#000000"></path>
                    <g id="head-left-glare" transform="translate(12.000000, 8.000000)" fill="#FFFFFF" fill-rule="nonzero">
                        <ellipse id="head-left-glare-2" cx="4.02133513" cy="4.01196139" rx="4.02133513" ry="4.01196139"></ellipse>
                        <ellipse id="head-left-glare-1" cx="13.7872601" cy="6.78309395" rx="1.78726006" ry="1.78309395"></ellipse>
                    </g>
                </g>
                <g id="eye3" transform="translate(241.000000, 81.000000)">
                    <path d="M16.8292816,0.886475935 C3.32157887,3.44491607 -3.77507933,19.3583112 3.26080661,31.313639 C11.3657706,45.0853226 32.1635756,44.5165905 39.1729272,30.3324481 C46.8567651,14.7811286 33.8651986,-2.3406086 16.8292816,0.886475935" id="head-left-eye" fill="#000000"></path>
                    <g id="head-left-glare" transform="translate(12.000000, 8.000000)" fill="#FFFFFF" fill-rule="nonzero">
                        <ellipse id="head-left-glare-2" cx="4.02133513" cy="4.01196139" rx="4.02133513" ry="4.01196139"></ellipse>
                        <ellipse id="head-left-glare-1" cx="13.7872601" cy="6.78309395" rx="1.78726006" ry="1.78309395"></ellipse>
                    </g>
                </g>
                <g id="eye2" transform="translate(91.000000, 77.000000)">
                    <path d="M20.3141491,0.468105749 C4.32784244,3.49600837 -4.07102126,22.3294414 4.25591875,36.4785191 C13.8481079,52.7772459 38.4622184,52.1041541 46.7577551,35.3172841 C55.8515435,16.912366 40.4760818,-3.35113458 20.3141491,0.468105749" id="head-left-eye" fill="#000000"></path>
                    <g id="head-left-glare" transform="translate(15.000000, 12.000000)" fill="#FFFFFF" fill-rule="nonzero">
                        <ellipse id="head-left-glare-2" cx="4.02133513" cy="4.01196139" rx="4.02133513" ry="4.01196139"></ellipse>
                        <ellipse id="head-left-glare-1" cx="13.7872601" cy="6.78309395" rx="1.78726006" ry="1.78309395"></ellipse>
                    </g>
                </g>
                <g id="eye1" transform="translate(205.000000, 28.000000)">
                    <path d="M16.8292816,0.886475935 C3.32157887,3.44491607 -3.77507933,19.3583112 3.26080661,31.313639 C11.3657706,45.0853226 32.1635756,44.5165905 39.1729272,30.3324481 C46.8567651,14.7811286 33.8651986,-2.3406086 16.8292816,0.886475935" id="head-left-eye" fill="#000000"></path>
                    <g id="head-left-glare" transform="translate(12.000000, 8.000000)" fill="#FFFFFF" fill-rule="nonzero">
                        <ellipse id="head-left-glare-2" cx="4.02133513" cy="4.01196139" rx="4.02133513" ry="4.01196139"></ellipse>
                        <ellipse id="head-left-glare-1" cx="13.7872601" cy="6.78309395" rx="1.78726006" ry="1.78309395"></ellipse>
                    </g>
                </g>
            </g>
        </g>
    </g>
</svg>