<?xml version="1.0" encoding="UTF-8"?>
<svg width="135px" height="132px" viewBox="0 0 135 132" version="1.1" xmlns="http://www.w3.org/2000/svg" xmlns:xlink="http://www.w3.org/1999/xlink">
    <!-- Generator: Sketch 51.3 (57544) - http://www.bohemiancoding.com/sketch -->
    <title>alien/preview</title>
    <desc>Created with Sketch.</desc>
    <defs>
        <rect id="path-1" x="2" y="2" width="131" height="128" rx="17"></rect>
        <path d="M64.8802884,63.7218654 C74.1264147,55.2867233 75.6774468,46.3782132 72.0146384,27.4595875 C68.35183,8.54096182 60.3236645,-2.19202776 31.9602256,0.376807576 C8.96989251,2.45900854 0,22.8087223 0,38.9249705 C2.56951701e-16,42.9679694 1.54585226,60.9276349 13.0293594,66.6209967 C24.5128666,72.3143586 55.6341622,72.1570075 64.8802884,63.7218654 Z" id="path-3"></path>
        <path d="M0.478848618,15.0407418 C3.85044579,21.4606417 15.0197524,19.0121768 20.7316141,15.0407418 C26.4434758,11.0693069 30.0294883,0.165392747 23.7931718,0.165392747 C17.5568553,0.165392747 -2.89274855,8.62084204 0.478848618,15.0407418 Z" id="path-5"></path>
        <path d="M20.5214245,0.47392407 C20.3271302,3.10288232 19.8851201,4.50106932 19.1953941,4.66848509 C18.5487618,4.8254408 17.3642044,4.17846304 15.6417219,2.72755182 L20.5214245,0.47392407 Z" id="path-6"></path>
        <path d="M12.8868924,3.42125413 C13.0649866,6.24361751 12.9143387,7.74925707 12.4349488,7.93817281 C11.9905126,8.11331417 10.7524907,7.38010478 8.72088292,5.73854464 L12.8868924,3.42125413 Z" id="path-7"></path>
        <path d="M6.51949608,7.42499628 C6.40289861,10.1320703 6.10017802,11.5721841 5.61133431,11.7453377 C5.20669339,11.8886658 4.0753262,11.3566297 2.21723274,10.1492293 L6.51949608,7.42499628 Z" id="path-8"></path>
    </defs>
    <g id="alien/preview" stroke="none" stroke-width="1" fill="none" fill-rule="evenodd">
        <mask id="mask-2" fill="white">
            <use xlink:href="#path-1"></use>
        </mask>
        <g id="Rectangle-3" fill-rule="nonzero" fill="#FFFFFF">
            <use xlink:href="#path-1"></use>
            <rect stroke="#000000" stroke-width="2" fill-rule="evenodd" x="1" y="1" width="133" height="130" rx="17"></rect>
        </g>
        <g id="black-hole-(2)" mask="url(#mask-2)" fill-rule="nonzero">
            <g transform="translate(37.105590, 34.000000) rotate(-270.000000) translate(-37.105590, -34.000000) translate(20.105590, 16.894410)" id="Shape">
                <path d="M33.8859228,13.9186892 C32.4476003,8.15577464 27.2465968,4.04887002 21.2393854,4.04887002 C17.9579381,4.04887002 14.8202946,5.27714817 12.4047848,7.50724151 C11.7412485,8.11982371 11.1513126,8.79440001 10.6349772,9.51540127 C10.7031992,8.97528727 10.8203937,8.43517326 10.9919394,7.90128694 C12.2012512,4.13634137 15.6732105,1.60675081 19.6317819,1.60675081 C19.7144409,1.60675081 19.797666,1.60788305 19.880608,1.61014768 C20.2627642,1.62090471 20.5874553,1.33301377 20.6307663,0.953122224 L20.6333141,0.931042127 C20.6808713,0.513501144 20.3731648,0.133892732 19.9539254,0.106434052 C19.6725452,0.0880339595 19.3905989,0.0789754436 19.1100681,0.0789754436 C13.4204709,0.0789754436 8.42951169,3.7156865 6.69084284,9.12843278 C5.68732907,12.2524884 5.89709031,15.6154624 7.28162786,18.5971295 C7.3034249,18.6444037 7.32805276,18.6899793 7.35041599,18.7366874 C7.28870488,18.6930932 7.22699371,18.6503484 7.16669798,18.6047727 C3.9421494,16.1912444 2.71670207,11.8960924 4.10746731,8.16936242 C4.24362811,7.80447409 4.08878416,7.39570856 3.73691741,7.22784296 L3.71653575,7.21793519 C3.33805958,7.03733107 2.87918916,7.20378122 2.71670207,7.59046666 C0.414706724,13.0663395 2.11714151,19.4707102 6.92579805,23.070621 C8.90989609,24.5559345 11.2215161,25.4286659 13.6656169,25.6239902 C12.8684675,26.0027494 12.0067762,26.2711079 11.0963954,26.4018902 C10.666682,26.4638844 10.2304579,26.4950231 9.79989527,26.4950231 C6.23876622,26.4950231 3.00204531,24.3798597 1.54560583,21.1672004 C1.38821405,20.8195798 0.986525537,20.6548281 0.626732592,20.7822134 L0.606067871,20.7895735 C0.209474742,20.9299805 0.00367656683,21.3732816 0.162483655,21.7625147 C2.15309251,26.638827 6.90569945,29.8639418 12.2213498,29.8639418 C12.8404427,29.8639418 13.4671788,29.8189322 14.0840071,29.7300455 C17.3320512,29.2632489 20.2627642,27.6010112 22.3363151,25.0501898 C22.5565502,24.7792836 22.7626315,24.4993188 22.9588049,24.2145418 C22.8699183,25.299299 22.5848581,26.3812255 22.0852243,27.4062531 C20.5772645,30.5000194 17.3719653,32.4988376 13.9195385,32.4988376 C13.4066,32.4988376 12.8945107,32.4549604 12.3897816,32.3680552 C12.0138531,32.3032302 11.6523618,32.5429978 11.5555489,32.9121324 L11.5498873,32.9339294 C11.4434498,33.3398641 11.6931251,33.7593866 12.1035891,33.8460087 C12.9825482,34.0317083 13.8796243,34.1254073 14.7800975,34.1254073 C19.7416164,34.1254073 24.3484379,31.2513101 26.516537,26.8035788 C27.9545764,23.8538996 28.2254827,20.4951717 27.2794339,17.3467713 C27.0974144,16.7401338 26.8720838,16.1527457 26.6091038,15.5865885 C26.7302614,15.6952907 26.8491544,15.8071067 26.9652167,15.9228859 C29.8129876,18.7712229 30.4150959,23.1968741 28.5079951,26.6875166 C28.3211633,27.0291924 28.4165607,27.456075 28.7406858,27.672064 L28.7596521,27.6848025 C29.108688,27.9174932 29.5862417,27.8178495 29.8022306,27.4583396 C32.8603289,22.3660383 32.0866751,15.7844604 27.8387973,11.5371488 C26.0749344,9.77328592 23.8906998,8.58180802 21.5102916,8.04707245 C22.220819,7.86561907 22.9622019,7.76795697 23.7225511,7.76795697 C27.7578368,7.76795697 31.3183997,10.4815486 32.4314648,14.3090547 C32.5379024,14.6753584 32.9121324,14.8947443 33.2860792,14.8200116 L33.3084424,14.8154823 C33.7203218,14.7339557 33.987548,14.3260393 33.8859228,13.9186892 Z" fill="#454545"></path>
                <path d="M24.2256261,16.7016351 C24.2256261,20.6650985 21.0126815,23.878251 17.0492181,23.878251 C13.0855467,23.878251 9.87260223,20.6650985 9.87260223,16.7016351 C9.87260223,12.7381717 13.0855467,9.52501925 17.0492181,9.52501925 C21.0126815,9.52501925 24.2256261,12.7381717 24.2256261,16.7016351 Z" fill="#000000"></path>
            </g>
        </g>
        <rect id="Rectangle-4" fill="#D8D8D8" fill-rule="nonzero" mask="url(#mask-2)" transform="translate(84.630708, 32.026586) rotate(-338.000000) translate(-84.630708, -32.026586) " x="58.1307084" y="26.5265859" width="53" height="11"></rect>
        <rect id="Rectangle-4" fill="#D8D8D8" fill-rule="nonzero" mask="url(#mask-2)" transform="translate(54.663152, 41.514533) rotate(-370.000000) translate(-54.663152, -41.514533) " x="43.4590906" y="37.8905077" width="22.4081223" height="7.24805117"></rect>
        <rect id="Rectangle-4" fill="#D8D8D8" fill-rule="nonzero" mask="url(#mask-2)" transform="translate(24.669866, 54.838987) rotate(-79.000000) translate(-24.669866, -54.838987) " x="18.2626303" y="51.5458962" width="12.8144706" height="6.58618079"></rect>
        <g id="Group" mask="url(#mask-2)">
            <g transform="translate(31.000000, 64.000000)">
                <g id="head-container">
                    <g id="head">
                        <mask id="mask-4" fill="white">
                            <use xlink:href="#path-3"></use>
                        </mask>
                        <g id="head-mask" fill-rule="nonzero" fill="#65DDB9">
                            <use xlink:href="#path-3"></use>
                            <path stroke="#000000" stroke-width="1" d="M65.2172712,64.0912469 C56.3665346,72.1656792 25.3890007,73.3068115 12.8072641,67.0689629 C7.55293942,64.4639424 3.94674656,59.2435257 1.73204775,52.3061578 C0.225285637,47.5863452 -0.5,42.351142 -0.5,38.9249705 C-0.5,30.1407482 2.07495166,21.115249 6.94814704,14.1027879 C12.6240864,5.93518935 21.0502273,0.862863744 31.9151259,-0.121154289 C58.019694,-2.48540698 68.2901868,5.59208388 72.5055228,27.3645481 C76.2387938,46.6471171 74.5157383,55.6083547 65.2172712,64.0912469 Z" fill-rule="evenodd"></path>
                        </g>
                        <g id="top-marks" mask="url(#mask-4)" fill="#46B29D" fill-rule="nonzero" stroke="#000000">
                            <g transform="translate(31.200883, -1.470199)">
                                <path d="M2.3379445,1.03284768 C0.859279925,1.39652239 0.119947639,1.82119012 0.119947639,2.30685089 C0.119947639,2.79251166 1.09787775,3.22447365 3.05373798,3.60273687 L2.3379445,1.03284768 Z" id="top-mark-1" transform="translate(1.586843, 2.317792) scale(-1, 1) rotate(-80.000000) translate(-1.586843, -2.317792) "></path>
                                <path d="M6.43518821,0.70613686 C4.95652364,1.06981157 4.21719135,1.49447931 4.21719135,1.98014008 C4.21719135,2.46580085 5.19512147,2.89776284 7.1509817,3.27602605 L6.43518821,0.70613686 Z" id="top-mark-2" transform="translate(5.684087, 1.991081) scale(-1, 1) rotate(-80.000000) translate(-5.684087, -1.991081) "></path>
                                <path d="M10.2038127,0.542781452 C8.72514818,0.90645616 7.98581589,1.3311239 7.98581589,1.81678467 C7.98581589,2.30244544 8.96374601,2.73440743 10.9196062,3.11267064 L10.2038127,0.542781452 Z" id="top-mark-3" transform="translate(9.452711, 1.827726) scale(-1, 1) rotate(-101.000000) translate(-9.452711, -1.827726) "></path>
                            </g>
                        </g>
                        <g id="right-marks" mask="url(#mask-4)" fill="#46B29D" fill-rule="nonzero" stroke="#000000" stroke-width="0.3">
                            <g transform="translate(72.659233, 33.942494) rotate(-279.000000) translate(-72.659233, -33.942494) translate(67.159233, 31.942494)">
                                <path d="M2.61368653,1.23337001 C2.51388722,2.7208569 2.22858018,3.50588304 1.75776543,3.58844844 C1.28695068,3.67101383 0.70102887,2.80157517 0,0.98013245 L2.61368653,1.23337001 Z" id="right-mark-1"></path>
                                <path d="M6.69757174,0.906659189 C6.59777243,2.39414608 6.31246539,3.17917223 5.84165064,3.26173762 C5.37083589,3.34430301 4.78491408,2.47486435 4.08388521,0.653421634 L6.69757174,0.906659189 Z" id="right-mark-2"></path>
                                <path d="M10.781457,1.18077444 C10.1251209,2.54871555 9.55216889,3.18682671 9.06260097,3.09510794 C8.57303306,3.00338916 8.32921557,1.97168651 8.3311371,-1.42108547e-14 L10.781457,1.18077444 Z" id="right-mark-3"></path>
                            </g>
                        </g>
                        <g id="left-marks" mask="url(#mask-4)" fill="#46B29D" fill-rule="nonzero" stroke="#000000" stroke-width="0.3">
                            <g transform="translate(0.524769, 33.711643) rotate(-85.000000) translate(-0.524769, -33.711643) translate(-4.975231, 31.711643)">
                                <path d="M2.61368653,1.23337001 C2.51388722,2.7208569 2.22858018,3.50588304 1.75776543,3.58844844 C1.28695068,3.67101383 0.70102887,2.80157517 0,0.98013245 L2.61368653,1.23337001 Z" id="left-mark-1"></path>
                                <path d="M6.69757174,0.906659189 C6.59777243,2.39414608 6.31246539,3.17917223 5.84165064,3.26173762 C5.37083589,3.34430301 4.78491408,2.47486435 4.08388521,0.653421634 L6.69757174,0.906659189 Z" id="left-mark-2"></path>
                                <path d="M10.781457,1.18077444 C10.1251209,2.54871555 9.55216889,3.18682671 9.06260097,3.09510794 C8.57303306,3.00338916 8.32921557,1.97168651 8.3311371,-1.42108547e-14 L10.781457,1.18077444 Z" id="left-mark-3"></path>
                            </g>
                        </g>
                        <g id="slime" mask="url(#mask-4)" fill="#84FFDA" fill-rule="nonzero" stroke="#000000" stroke-width="0.3">
                            <g transform="translate(29.894040, 54.887417)">
                                <path d="M11.4495297,1.48439661 C10.8284598,3.76694164 8.48734131,3.27075313 7.50361483,4.39162005 C6.51988835,5.51248698 6.53221412,7.63602315 5.06090599,7.18931117 C3.58959786,6.74259918 4.63341388,4.75923357 3.95444076,3.38882106 C3.27546764,2.01840856 1.63804765,2.97817819 1.63804765,0.280749219 L11.4495297,1.48439661 Z" id="slime-3" transform="translate(6.543789, 3.765438) rotate(-3.000000) translate(-6.543789, -3.765438) "></path>
                                <path d="M1.62575607,5.40038768 C2.91717369,5.25437815 3.00801323,6.80004222 2.71508643,7.5783076 C2.42215963,8.35657298 1.52040454,9.47820938 0.459976287,8.49770094 C-0.600451961,7.5171925 0.334338458,5.54639721 1.62575607,5.40038768 Z" id="slime-2"></path>
                                <path d="M9.49711568,5.28950367 C10.4583136,5.18082926 10.5259251,6.33126192 10.3079007,6.91052227 C10.0898762,7.48978263 9.41870288,8.32461289 8.62942964,7.5948237 C7.84015639,6.86503451 8.53591782,5.39817808 9.49711568,5.28950367 Z" id="slime-1" transform="translate(9.348881, 6.581064) rotate(-14.000000) translate(-9.348881, -6.581064) "></path>
                            </g>
                        </g>
                        <g id="mouth" mask="url(#mask-4)" fill-rule="nonzero">
                            <g transform="translate(36.918322, 50.885210) scale(1, -1) rotate(23.000000) translate(-36.918322, -50.885210) translate(23.359823, 41.328918)">
                                <g id="mouth-bg">
                                    <use fill="#000000" xlink:href="#path-5"></use>
                                    <use fill="#000000" xlink:href="#path-5"></use>
                                </g>
                                <g id="tooth-3" transform="translate(18.081573, 2.582696) rotate(8.000000) translate(-18.081573, -2.582696) ">
                                    <use fill="#FFFFFF" xlink:href="#path-6"></use>
                                    <use fill="#FFFFFF" xlink:href="#path-6"></use>
                                </g>
                                <g id="tooth-2" transform="translate(10.840068, 5.692377) rotate(4.000000) translate(-10.840068, -5.692377) ">
                                    <use fill="#FFFFFF" xlink:href="#path-7"></use>
                                    <use fill="#FFFFFF" xlink:href="#path-7"></use>
                                </g>
                                <g id="tooth-1" transform="translate(4.368364, 9.596574) rotate(-8.000000) translate(-4.368364, -9.596574) ">
                                    <use fill="#FFFFFF" xlink:href="#path-8"></use>
                                    <use fill="#FFFFFF" xlink:href="#path-8"></use>
                                </g>
                            </g>
                        </g>
                    </g>
                </g>
                <g id="eyes" transform="translate(11.000000, 9.000000)">
                    <g id="eye7" transform="translate(22.848057, 0.000000)">
                        <path d="M5.24167287,0.214941782 C0.975618083,1.02295822 -1.26567589,6.04878808 0.956424756,9.82456582 C3.51616576,14.1739921 10.0846088,13.9943729 12.2983292,9.51468234 C14.7250686,4.60320461 10.6220219,-0.804248508 5.24167287,0.214941782" id="head-left-eye" fill="#000000"></path>
                        <g id="head-left-glare" transform="translate(2.809187, 2.247350)" fill="#FFFFFF" fill-rule="nonzero">
                            <ellipse id="head-left-glare-2" cx="1.2908903" cy="1.28788123" rx="1.2908903" ry="1.28788123"></ellipse>
                            <ellipse id="head-left-glare-1" cx="4.30296766" cy="2.28956663" rx="1" ry="1"></ellipse>
                        </g>
                    </g>
                    <g id="eye6" transform="translate(0.000000, 11.236749)">
                        <path d="M6.27777032,0.19659107 C1.11465235,1.17451667 -1.59793944,7.25717472 1.09142306,11.8269205 C4.18942471,17.0909412 12.1390756,16.8735519 14.8182957,11.4518749 C17.7553282,5.5076149 12.7894956,-1.03691388 6.27777032,0.19659107" id="head-left-eye" fill="#000000"></path>
                        <g id="head-left-glare" transform="translate(4.120141, 3.558304)" fill="#FFFFFF" fill-rule="nonzero">
                            <ellipse id="head-left-glare-2" cx="1.2908903" cy="1.28788123" rx="1.2908903" ry="1.28788123"></ellipse>
                            <ellipse id="head-left-glare-1" cx="4.30296766" cy="2.28956663" rx="1" ry="1"></ellipse>
                        </g>
                    </g>
                    <g id="eye5" transform="translate(28.091873, 15.169611)">
                        <path d="M5.67524632,0.156448662 C0.990569907,1.04375455 -1.47065892,6.56276164 0.969493168,10.7090508 C3.78041776,15.4852798 10.9934123,15.2880349 13.4243619,10.368759 C16.0892336,4.9753252 11.583561,-0.962753258 5.67524632,0.156448662" id="head-left-eye" fill="#000000"></path>
                        <g id="head-left-glare" transform="translate(3.745583, 3.183746)" fill="#FFFFFF" fill-rule="nonzero">
                            <ellipse id="head-left-glare-2" cx="1.2908903" cy="1.28788123" rx="1.2908903" ry="1.28788123"></ellipse>
                            <ellipse id="head-left-glare-1" cx="4.30296766" cy="2.28956663" rx="1" ry="1"></ellipse>
                        </g>
                    </g>
                    <g id="eye4" transform="translate(11.798587, 2.621908)">
                        <path d="M3.15177358,0.166018461 C0.622062473,0.64516096 -0.706993656,3.62540811 0.610681097,5.86439175 C2.12857188,8.44354097 6.02356716,8.33702932 7.33627258,5.68063516 C8.77529524,2.76819723 6.34224567,-0.438347194 3.15177358,0.166018461" id="head-left-eye" fill="#000000"></path>
                        <g id="head-left-glare" transform="translate(2.247350, 1.498233)" fill="#FFFFFF" fill-rule="nonzero">
                            <ellipse id="head-left-glare-2" cx="0.753112233" cy="0.751356727" rx="1" ry="1"></ellipse>
                            <ellipse id="head-left-glare-1" cx="2.58206637" cy="1.27033208" rx="1" ry="1"></ellipse>
                        </g>
                    </g>
                    <g id="eye3" transform="translate(45.134276, 15.169611)">
                        <path d="M3.15177358,0.166018461 C0.622062473,0.64516096 -0.706993656,3.62540811 0.610681097,5.86439175 C2.12857188,8.44354097 6.02356716,8.33702932 7.33627258,5.68063516 C8.77529524,2.76819723 6.34224567,-0.438347194 3.15177358,0.166018461" id="head-left-eye" fill="#000000"></path>
                        <g id="head-left-glare" transform="translate(2.247350, 1.498233)" fill="#FFFFFF" fill-rule="nonzero">
                            <ellipse id="head-left-glare-2" cx="0.753112233" cy="0.751356727" rx="1" ry="1"></ellipse>
                            <ellipse id="head-left-glare-1" cx="2.58206637" cy="1.27033208" rx="1" ry="1"></ellipse>
                        </g>
                    </g>
                    <g id="eye2" transform="translate(17.042403, 14.420495)">
                        <path d="M3.80441661,0.0876664476 C0.810514662,0.654729483 -0.76241741,4.18183885 0.797044854,6.83166612 C2.59346191,9.88407786 7.20317165,9.75802179 8.75675273,6.61419101 C10.4598297,3.16733355 7.58032627,-0.627597642 3.80441661,0.0876664476" id="head-left-eye" fill="#000000"></path>
                        <g id="head-left-glare" transform="translate(2.809187, 2.247350)" fill="#FFFFFF" fill-rule="nonzero">
                            <ellipse id="head-left-glare-2" cx="0.753112233" cy="0.751356727" rx="1" ry="1"></ellipse>
                            <ellipse id="head-left-glare-1" cx="2.58206637" cy="1.27033208" rx="1" ry="1"></ellipse>
                        </g>
                    </g>
                    <g id="eye1" transform="translate(38.392226, 5.243816)">
                        <path d="M3.15177358,0.166018461 C0.622062473,0.64516096 -0.706993656,3.62540811 0.610681097,5.86439175 C2.12857188,8.44354097 6.02356716,8.33702932 7.33627258,5.68063516 C8.77529524,2.76819723 6.34224567,-0.438347194 3.15177358,0.166018461" id="head-left-eye" fill="#000000"></path>
                        <g id="head-left-glare" transform="translate(2.247350, 1.498233)" fill="#FFFFFF" fill-rule="nonzero">
                            <ellipse id="head-left-glare-2" cx="0.753112233" cy="0.751356727" rx="1" ry="1"></ellipse>
                            <ellipse id="head-left-glare-1" cx="2.58206637" cy="1.27033208" rx="1" ry="1"></ellipse>
                        </g>
                    </g>
                </g>
            </g>
        </g>
    </g>
</svg>