<?xml version="1.0" encoding="UTF-8"?>
<svg width="28px" height="38px" viewBox="0 0 28 38" version="1.1" xmlns="http://www.w3.org/2000/svg" xmlns:xlink="http://www.w3.org/1999/xlink">
    <!-- Generator: Sketch 51.3 (57544) - http://www.bohemiancoding.com/sketch -->
    <title>lock</title>
    <desc>Created with Sketch.</desc>
    <defs></defs>
    <g id="lock" stroke="none" stroke-width="1" fill="none" fill-rule="evenodd">
        <g id="Group-5" fill="#000000" fill-rule="nonzero">
            <g id="lock">
                <path d="M27.2221979,14 L24.8888646,14 L24.8888646,10.8888646 C24.8888646,4.8846875 20.00425,0 14,0 C7.99575,0 3.11113542,4.8846875 3.11113542,10.8888646 L3.11113542,14 L0.777802083,14 C0.347885417,14 0,14.3478854 0,14.7778021 L0,34.2222708 C0,35.9380729 1.39526042,37.3333333 3.11113542,37.3333333 L24.8889375,37.3333333 C26.6047396,37.3333333 28,35.9380729 28,34.2221979 L28,14.7778021 C28,14.3478854 27.6521146,14 27.2221979,14 Z M16.3288125,30.2475104 C16.3530937,30.4669896 16.2825104,30.6872708 16.1351458,30.8521354 C15.9877812,31.0169271 15.7766146,31.1111354 15.5556042,31.1111354 L12.4444688,31.1111354 C12.2234583,31.1111354 12.0122917,31.0169271 11.8649271,30.8521354 C11.7175625,30.6873438 11.6469062,30.4670625 11.6712604,30.2475104 L12.1619167,25.8353229 C11.3651563,25.2557813 10.8889375,24.339 10.8889375,23.3333333 C10.8889375,21.6175313 12.2841979,20.2221979 14.0000729,20.2221979 C15.7159479,20.2221979 17.1112083,21.6174583 17.1112083,23.3333333 C17.1112083,24.339 16.6349896,25.2557813 15.8382292,25.8353229 L16.3288125,30.2475104 Z M20.2221979,14 L7.77780208,14 L7.77780208,10.8888646 C7.77780208,7.45798958 10.569125,4.66666667 14,4.66666667 C17.430875,4.66666667 20.2221979,7.45798958 20.2221979,10.8888646 L20.2221979,14 Z" id="Shape"></path>
            </g>
        </g>
    </g>
</svg>