<?xml version="1.0" encoding="UTF-8"?>
<svg width="135px" height="132px" viewBox="0 0 135 132" version="1.1" xmlns="http://www.w3.org/2000/svg" xmlns:xlink="http://www.w3.org/1999/xlink">
    <!-- Generator: Sketch 51.3 (57544) - http://www.bohemiancoding.com/sketch -->
    <title>unlock-step-2</title>
    <desc>Created with Sketch.</desc>
    <defs>
        <rect id="path-1" x="2" y="2" width="131" height="128" rx="17"></rect>
        <rect id="path-3" x="2" y="2" width="131" height="128" rx="17"></rect>
        <rect id="path-5" x="0" y="0" width="87" height="96"></rect>
        <rect id="path-7" x="0" y="0" width="87" height="36"></rect>
    </defs>
    <g id="unlock-step-2" stroke="none" stroke-width="1" fill="none" fill-rule="evenodd">
        <mask id="mask-2" fill="white">
            <use xlink:href="#path-1"></use>
        </mask>
        <rect stroke="#000000" stroke-width="2" x="1" y="1" width="133" height="130" rx="17"></rect>
        <g id="Group" mask="url(#mask-2)" fill-rule="nonzero">
            <g transform="translate(16.000000, 14.000000)" id="Oval-4">
                <circle fill="#FF6259" cx="5.5" cy="5.5" r="5.5"></circle>
                <circle fill="#FFBF2F" cx="20.5" cy="5.5" r="5.5"></circle>
                <circle fill="#29CC41" cx="35.5" cy="5.5" r="5.5"></circle>
            </g>
        </g>
        <path d="" id="Path-15" stroke="#979797" fill-rule="nonzero" mask="url(#mask-2)"></path>
        <mask id="mask-4" fill="white">
            <use xlink:href="#path-3"></use>
        </mask>
        <use id="Rectangle-3" fill-opacity="0.300158514" fill="#0D0D0D" fill-rule="nonzero" xlink:href="#path-3"></use>
        <circle id="Oval-3" fill="#FFE07B" fill-rule="nonzero" mask="url(#mask-4)" cx="109.5" cy="19.5" r="7.5"></circle>
        <g id="Shape" mask="url(#mask-4)">
            <g transform="translate(24.000000, 20.000000)">
                <mask id="mask-6" fill="white">
                    <use xlink:href="#path-5"></use>
                </mask>
                <g id="Mask" stroke="none" fill="none" fill-rule="nonzero">
                    <use fill="#FFFFFF" xlink:href="#path-5"></use>
                    <rect stroke="#DFDFDF" stroke-width="1" fill="#FFFFFF" fill-rule="evenodd" x="-0.5" y="-0.5" width="88" height="97"></rect>
                </g>
                <g id="Group-4" stroke="none" stroke-width="1" fill="none" fill-rule="evenodd" mask="url(#mask-6)">
                    <g transform="translate(5.000000, 57.000000)">
                        <rect id="Rectangle" fill="#FFDA6B" fill-rule="nonzero" x="0" y="0" width="77" height="19" rx="3"></rect>
                        <path d="M29,13.1589177 L29,5 L32.0609855,5 C32.6843165,5 33.1842725,5.08255303 33.5608684,5.24766155 C33.9374642,5.41277008 34.232429,5.66692209 34.4457714,6.01012521 C34.6591139,6.35332833 34.7657836,6.71229485 34.7657836,7.08703555 C34.7657836,7.43580413 34.6711722,7.7641611 34.4819467,8.07211634 C34.2927212,8.38007157 34.0070321,8.6286582 33.6248708,8.81788371 C34.1183412,8.96258556 34.4977141,9.20931708 34.7630008,9.55808565 C35.0282876,9.90685422 35.160929,10.3186918 35.160929,10.7936107 C35.160929,11.175772 35.0802311,11.5310283 34.9188328,11.8593902 C34.7574346,12.1877521 34.5580088,12.4409765 34.3205493,12.6190711 C34.0830899,12.7971657 33.7853424,12.9316622 33.4272981,13.0225647 C33.0692538,13.1134671 32.6305169,13.1589177 32.1110743,13.1589177 L29,13.1589177 Z M30.0796931,8.42830374 L31.8439338,8.42830374 C32.322563,8.42830374 32.665761,8.39676663 32.873538,8.33369146 C33.1481005,8.25206477 33.3549468,8.11664071 33.4940832,7.9274152 C33.6332196,7.7381897 33.7027868,7.50073381 33.7027868,7.2150404 C33.7027868,6.94418821 33.6378574,6.70580476 33.5079968,6.49988288 C33.3781362,6.29396101 33.1926237,6.15297158 32.951454,6.07691035 C32.7102842,6.00084911 32.2965915,5.96281907 31.7103635,5.96281907 L30.0796931,5.96281907 L30.0796931,8.42830374 Z M30.0796931,12.1960986 L32.1110743,12.1960986 C32.4598429,12.1960986 32.7047193,12.1831127 32.8457108,12.1571406 C33.0943012,12.1126169 33.3020751,12.038412 33.4690388,11.9345235 C33.6360025,11.830635 33.7732817,11.6794423 33.8808805,11.4809411 C33.9884793,11.2824398 34.0422779,11.053332 34.0422779,10.7936107 C34.0422779,10.4893658 33.9643627,10.2250106 33.8085299,10.0005372 C33.6526971,9.7760638 33.4365752,9.61837824 33.1601575,9.52747579 C32.8837399,9.43657335 32.4858158,9.3911228 31.9663732,9.3911228 L30.0796931,9.3911228 L30.0796931,12.1960986 Z M40.3924314,13.1589177 L40.3924314,12.2907109 C39.9323537,12.9585656 39.3071769,13.2924879 38.5168821,13.2924879 C38.1681136,13.2924879 37.8425393,13.2257035 37.5401495,13.0921325 C37.2377597,12.9585616 37.0132897,12.7906728 36.8667327,12.5884613 C36.7201757,12.3862497 36.6172163,12.1385906 36.5578514,11.8454766 C36.5170381,11.6488305 36.4966317,11.3371696 36.4966317,10.9104847 L36.4966317,7.24843297 L37.4984088,7.24843297 L37.4984088,10.5264701 C37.4984088,11.049623 37.5188151,11.4020966 37.5596285,11.5839015 C37.6227037,11.8473331 37.7562726,12.0541794 37.9603393,12.2044467 C38.164406,12.354714 38.4167029,12.4298466 38.7172375,12.4298466 C39.0177722,12.4298466 39.299751,12.3528589 39.5631826,12.1988813 C39.8266142,12.0449037 40.0130542,11.8352747 40.1225081,11.5699879 C40.2319621,11.3047012 40.2866883,10.9197629 40.2866883,10.4151616 L40.2866883,7.24843297 L41.2884653,7.24843297 L41.2884653,13.1589177 L40.3924314,13.1589177 Z M42.8133927,15.4351778 L42.7020841,14.4946204 C42.920992,14.5539853 43.1120698,14.5836673 43.2753232,14.5836673 C43.4979414,14.5836673 43.6760333,14.5465648 43.8096043,14.4723587 C43.9431752,14.3981526 44.0526276,14.2942657 44.1379645,14.1606947 C44.2010397,14.0605165 44.3030715,13.8119299 44.4440631,13.4149274 C44.4626146,13.3592728 44.4922966,13.2776473 44.5331099,13.1700485 L42.2902424,7.24843297 L43.3699355,7.24843297 L44.5998951,10.6711713 C44.7594382,11.1052768 44.9022827,11.5616374 45.0284331,12.0402666 C45.1434525,11.5801889 45.2807317,11.1312489 45.4402747,10.693433 L46.7036269,7.24843297 L47.705404,7.24843297 L45.456971,13.2590954 C45.2158013,13.9083986 45.0284337,14.3554835 44.8948628,14.6003635 C44.7167682,14.9305806 44.5127045,15.1726743 44.2826657,15.3266519 C44.0526268,15.4806295 43.7780685,15.5576172 43.4589823,15.5576172 C43.2660465,15.5576172 43.0508521,15.5168045 42.8133927,15.4351778 Z" id="Buy" fill="#000000" fill-rule="evenodd"></path>
                    </g>
                </g>
                <g id="Group-2" stroke="none" stroke-width="1" fill="none" fill-rule="evenodd" mask="url(#mask-6)">
                    <g transform="translate(5.000000, 41.000000)" fill="#D8D8D8" fill-rule="nonzero" id="Rectangle-4">
                        <rect transform="translate(22.000000, 2.500000) scale(1, -1) translate(-22.000000, -2.500000) " x="0" y="0" width="44" height="5"></rect>
                        <rect transform="translate(15.500000, 9.500000) scale(1, -1) translate(-15.500000, -9.500000) " x="0" y="7" width="31" height="5"></rect>
                        <rect transform="translate(55.000000, 9.500000) scale(1, -1) translate(-55.000000, -9.500000) " x="33" y="7" width="44" height="5"></rect>
                    </g>
                </g>
                <g id="Group-3" stroke="none" stroke-width="1" fill="none" fill-rule="evenodd" mask="url(#mask-6)">
                    <g transform="translate(5.000000, 79.000000)" fill="#D8D8D8" fill-rule="nonzero" id="Rectangle-4">
                        <rect transform="translate(20.500000, 2.500000) scale(1, -1) translate(-20.500000, -2.500000) " x="0" y="0" width="41" height="5"></rect>
                        <rect transform="translate(60.000000, 2.500000) scale(1, -1) translate(-60.000000, -2.500000) " x="43" y="0" width="34" height="5"></rect>
                        <rect transform="translate(29.000000, 9.500000) scale(1, -1) translate(-29.000000, -9.500000) " x="0" y="7" width="58" height="5"></rect>
                        <rect transform="translate(68.500000, 9.500000) scale(1, -1) translate(-68.500000, -9.500000) " x="60" y="7" width="17" height="5"></rect>
                    </g>
                </g>
                <g id="Shape" stroke="none" stroke-width="1" fill="none" fill-rule="evenodd" mask="url(#mask-6)">
                    <mask id="mask-8" fill="white">
                        <use xlink:href="#path-7"></use>
                    </mask>
                    <g id="Mask"></g>
                    <path d="M86.0263566,-41 C69.6062016,-12.0341085 43.5922481,18.4077519 43.5922481,18.4077519 C43.5922481,18.4077519 74.0341085,-7.60620155 103,-24.0263566 L103,-7.79069767 C75.5100775,7.15348837 43.5922481,18.4077519 43.5922481,18.4077519 C43.5922481,18.4077519 73.296124,12.8728682 103,11.5813953 L103,25.4186047 C73.296124,24.1271318 43.5922481,18.5922481 43.5922481,18.5922481 C43.5922481,18.5922481 75.5100775,29.8465116 103,44.7906977 L103,61.0263566 C74.0341085,44.6062016 43.5922481,18.5922481 43.5922481,18.5922481 C43.5922481,18.5922481 69.6062016,49.0341085 86.0263566,78 L69.7906977,78 C54.8465116,50.5100775 43.5922481,18.7767442 43.5922481,18.5922481 C43.5922481,18.5922481 49.1271318,48.296124 50.4186047,78 L36.7658915,78 C38.0573643,48.296124 43.5922481,18.7767442 43.5922481,18.5922481 C43.5922481,18.5922481 32.3379845,50.5100775 17.3937984,78 L0.973643411,78 C17.3937984,49.0341085 43.2232558,18.5922481 43.4077519,18.5922481 C43.4077519,18.5922481 12.9658915,44.6062016 -16,61.0263566 L-16,44.7906977 C11.4899225,29.8465116 43.2232558,18.5922481 43.4077519,18.5922481 C43.4077519,18.5922481 13.703876,24.1271318 -16,25.4186047 L-16,11.7658915 C13.703876,13.0573643 43.2232558,18.5922481 43.4077519,18.5922481 C43.4077519,18.5922481 11.4899225,7.3379845 -16,-7.60620155 L-16,-23.8418605 C12.9658915,-7.42170543 43.4077519,18.4077519 43.4077519,18.5922481 C43.4077519,18.5922481 17.3937984,-11.8496124 0.973643411,-40.8155039 L17.2093023,-40.8155039 C32.1534884,-13.3255814 43.4077519,18.5922481 43.4077519,18.5922481 C43.4077519,18.5922481 37.8728682,-11.1116279 36.5813953,-40.8155039 L50.2341085,-40.8155039 C48.9426357,-11.1116279 43.4077519,18.5922481 43.4077519,18.5922481 C43.4077519,18.5922481 54.6620155,-13.3255814 69.6062016,-40.8155039 L86.0263566,-40.8155039 L86.0263566,-41 Z" fill="#FFDA6B" fill-rule="nonzero" mask="url(#mask-8)"></path>
                    <circle id="Oval" stroke="#000000" fill="#FFE07B" mask="url(#mask-8)" cx="43.5" cy="18.5" r="8.5"></circle>
                    <circle id="Oval" stroke="#000000" fill="#82C35F" mask="url(#mask-8)" cx="21.5" cy="18.5" r="8.5"></circle>
                    <circle id="Oval" stroke="#000000" fill="#65DDB9" mask="url(#mask-8)" cx="65.5" cy="18.5" r="8.5"></circle>
                </g>
            </g>
        </g>
    </g>
</svg>