<?xml version="1.0" encoding="UTF-8"?>
<svg width="135px" height="132px" viewBox="0 0 135 132" version="1.1" xmlns="http://www.w3.org/2000/svg" xmlns:xlink="http://www.w3.org/1999/xlink">
    <!-- Generator: Sketch 51.3 (57544) - http://www.bohemiancoding.com/sketch -->
    <title>unlock-step-3</title>
    <desc>Created with Sketch.</desc>
    <defs>
        <rect id="path-1" x="0" y="0" width="101" height="72"></rect>
    </defs>
    <g id="unlock-step-3" stroke="none" stroke-width="1" fill="none" fill-rule="evenodd">
        <rect id="Rectangle-3" stroke="#000000" stroke-width="2" fill="#F9F9F9" fill-rule="nonzero" x="1" y="1" width="133" height="130" rx="17"></rect>
        <g id="Shape" transform="translate(16.000000, 17.000000)">
            <polygon id="Rectangle" fill="#DFDFDF" transform="translate(20.430852, 72.569148) rotate(-225.000000) translate(-20.430852, -72.569148) " points="16.1259553 68.3265073 24.7357488 68.3265073 24.7357488 76.8117886"></polygon>
            <mask id="mask-2" fill="white">
                <use xlink:href="#path-1"></use>
            </mask>
            <rect stroke="#DFDFDF" x="-0.5" y="-0.5" width="102" height="73"></rect>
            <g id="Group-2" mask="url(#mask-2)">
                <g transform="translate(8.000000, 8.000000)">
                    <rect id="Rectangle-2" fill="#D8D8D8" x="0" y="0" width="18" height="18" rx="3"></rect>
                    <g id="bmc-logo" stroke-width="1" fill="none" transform="translate(5.000000, 3.000000)">
                        <path d="M7.5,3.5 L7.34903714,3.27268722 L7,3 C7.14047455,3.30352423 7.3161967,3.47973568 7.5,3.5 Z" id="Shape" fill="#0D0C22" fill-rule="nonzero"></path>
                        <path d="M7.49,4 L7,4.1375 L7.49,4 Z" id="Shape" fill="#0D0C22" fill-rule="nonzero"></path>
                        <path d="M7.185625,3.0435 C7.123125,3.0355 7.062125,3.021 7.002625,3 C6.999125,3.0405 6.999125,3.0815 7.002625,3.122 C7.069625,3.113 7.133125,3.086 7.185625,3.0435 Z" id="Shape" fill="#0D0C22" fill-rule="nonzero"></path>
                        <polygon id="Shape" fill="#0D0C22" fill-rule="nonzero" points="7 3.041 7.0655 3.041 7.0655 3"></polygon>
                        <path d="M7,4.5 L7.29249012,4.25 L7.4013834,4.15806643 L7.5,4 C7.31442688,4.1198102 7.14525692,4.28944247 7,4.5 Z" id="Shape" fill="#0D0C22" fill-rule="nonzero"></path>
                        <path d="M7.5,3.5 L7.20197857,3.1395288 L7,3 C7.108615,3.2434555 7.28812861,3.42303665 7.5,3.5 Z" id="Shape" fill="#0D0C22" fill-rule="nonzero"></path>
                        <path d="M4.5,11 C4.30377166,11.1101322 4.13183826,11.2819383 4,11.5 L4.15494393,11.3722467 C4.26027863,11.246696 4.40927625,11.0991189 4.5,11 Z" id="Shape" fill="#0D0C22" fill-rule="nonzero"></path>
                        <path d="M6.25302433,11.079944 C6.25302433,10.9274097 5.93502433,10.9555699 6.01202433,11.5 C6.01202433,11.4565864 6.08952433,11.4119994 6.12402433,11.3697592 C6.16702433,11.2723719 6.20152433,11.1773313 6.25302433,11.079944 Z" id="Shape" fill="#0D0C22" fill-rule="nonzero"></path>
                        <path d="M6.5,11 C6.30370496,11.1101322 6.13188307,11.2819383 6,11.5 L6.1549966,11.3722467 C6.26019714,11.246696 6.40941536,11.0991189 6.5,11 Z" id="Shape" fill="#0D0C22" fill-rule="nonzero"></path>
                        <path d="M3.5,11.5 C3.35841137,11.237931 3.18517921,11.0655172 3,11 C3.14998386,11.1551724 3.29996771,11.3103448 3.39990313,11.4275862 L3.5,11.5 Z" id="Shape" fill="#0D0C22" fill-rule="nonzero"></path>
                        <path d="M2.5,11.5 C2.44394435,11.3246753 2.27373159,11.1545455 2,11 C2.19394435,11.1597403 2.35597381,11.3246753 2.48567921,11.4909091 L2.5,11.5 Z" id="Shape" fill="#0D0C22" fill-rule="nonzero"></path>
                        <path d="M4.26554512,5.31624602 C3.84800025,5.50659362 3.37415077,5.72241511 2.76002599,5.72241511 C2.50312425,5.72187311 2.24745857,5.68433978 2,5.61084104 L2.42474313,10.2546566 C2.43977587,10.4487111 2.52281041,10.6296995 2.65735073,10.7616179 C2.79189104,10.8935362 2.96810314,10.9667059 3.15098635,10.9667059 C3.15098635,10.9667059 3.75322309,11 3.95418376,11 C4.17045893,11 4.81898452,10.9667059 4.81898452,10.9667059 C5.00184955,10.9667059 5.17801621,10.8934394 5.31252925,10.7615211 C5.4470423,10.6296028 5.53004958,10.4487111 5.54508232,10.2546566 L6,5.12306262 C5.79670352,5.04912834 5.59152568,5.00000014 5.36023594,5.00000014 C4.96020504,4.9998356 4.63789178,5.1465524 4.26554512,5.31624602 Z" id="Shape" fill="#FFDD00" fill-rule="nonzero"></path>
                        <path d="M1,4 L1.30259234,4.35238095 L1.5,4.5 C1.3480156,4.31190476 1.18039306,4.14428571 1,4 Z" id="Shape" fill="#0D0C22" fill-rule="nonzero"></path>
                        <path d="M7.96431785,3.20733359 L7.9005991,2.8742897 C7.84341794,2.57547248 7.71363525,2.29312122 7.41761519,2.18512144 C7.32272976,2.15056639 7.21506799,2.13572357 7.14231254,2.06420221 C7.06955709,1.99269024 7.0480519,1.88162245 7.03122805,1.77862344 C7.00006137,1.58957926 6.9707781,1.40037557 6.9388327,1.21165977 C6.91126079,1.04941147 6.88944773,0.867153517 6.81762493,0.718309723 C6.724143,0.51845149 6.53017072,0.401571352 6.33728502,0.324243285 C6.2384517,0.286014121 6.13759009,0.253674233 6.03518917,0.227382184 C5.55329184,0.0956498482 5.04662957,0.0472190164 4.55086931,0.0196134431 C3.95582298,-0.0144090678 3.35918301,-0.0041585554 2.76554018,0.0502861876 C2.3236923,0.0919367049 1.85831094,0.142305265 1.43843004,0.300673981 C1.28496901,0.358629454 1.12682664,0.428207733 1.01013722,0.551061588 C0.866951593,0.702004205 0.820211535,0.93544079 0.924750298,1.12367246 C0.999072233,1.25734225 1.12496135,1.35178459 1.25848367,1.41426139 C1.43239954,1.49476162 1.6140301,1.55601873 1.80036012,1.59701005 C2.31917394,1.71582763 2.85653203,1.76247648 3.38656478,1.78233883 C3.97404128,1.80690172 4.56245042,1.78699246 5.14711993,1.72276116 C5.29170724,1.7062952 5.43603196,1.68654544 5.58009409,1.66352125 C5.74976325,1.63655649 5.85866552,1.40667111 5.80865577,1.24652444 C5.74882154,1.05506901 5.58803517,0.980808016 5.4062235,1.00970553 C5.37942125,1.01405893 5.35278198,1.01809332 5.32597972,1.02212771 L5.3066658,1.02503623 C5.24506588,1.0331144 5.18347502,1.04063901 5.12188415,1.04763822 C4.99464587,1.06184303 4.86709973,1.07346772 4.73923666,1.08251227 C4.45286903,1.10317211 4.16573174,1.11269516 3.87874839,1.11318304 C3.59674518,1.11318304 3.31458804,1.10494537 3.03320961,1.08573978 C2.90483042,1.07702361 2.7767591,1.06593372 2.64900469,1.05247949 C2.59089088,1.04618396 2.532931,1.03956943 2.47498017,1.03213864 L2.41981823,1.02487673 L2.40782965,1.02310347 L2.35064848,1.01454681 C2.23379608,0.996298211 2.11694367,0.975319364 2.00134083,0.94996836 C1.98967822,0.947285019 1.97923802,0.940567284 1.97175874,0.930906319 C1.96427946,0.921250045 1.96020479,0.90923881 1.96020479,0.896857913 C1.96020479,0.884476077 1.96427946,0.872464843 1.97175874,0.862808569 C1.97923802,0.853151356 1.98967822,0.846427054 2.00134083,0.843744651 L2.00352304,0.843744651 C2.10370553,0.821628668 2.20465768,0.8027402 2.30592675,0.786273306 C2.33969216,0.780784654 2.37354812,0.775403899 2.40751273,0.770130102 L2.40844538,0.770130102 C2.47185626,0.76577108 2.53558406,0.75398596 2.59867802,0.746237109 C3.14767155,0.687068504 3.69992481,0.666895597 4.25158046,0.685860062 C4.51939477,0.693932603 4.7870642,0.710237182 5.053638,0.738326883 C5.1109731,0.744461976 5.16800034,0.750919821 5.22501852,0.758183606 C5.24683157,0.76092887 5.26879855,0.764156385 5.29077459,0.766901649 L5.33501643,0.773519931 C5.4640204,0.793431071 5.59234526,0.817592398 5.72000006,0.846005788 C5.90914613,0.888624935 6.15204158,0.902507941 6.23616988,1.11721743 C6.26297214,1.18534239 6.2751237,1.26105764 6.28991927,1.33256961 L6.3087714,1.42378444 C6.30926942,1.42541696 6.30963161,1.4270964 6.30986704,1.42878521 C6.35442579,1.64403419 6.39903887,1.85928316 6.44369722,2.07453214 C6.44697507,2.09043516 6.44704751,2.10686358 6.44392359,2.12279475 C6.44079968,2.13873529 6.4345428,2.15382205 6.42553326,2.16714493 C6.41653277,2.18045843 6.40496977,2.19170782 6.39158675,2.20018943 C6.37819468,2.20867104 6.36327234,2.21419722 6.34772522,2.21643959 L6.34647566,2.21643959 L6.31921161,2.22031448 L6.29226447,2.2240205 C6.20687755,2.23554198 6.12140008,2.24630349 6.03581396,2.25631441 C5.86723138,2.27622368 5.69839527,2.29344022 5.52930563,2.30797342 C5.19329044,2.33691784 4.85660519,2.35591702 4.51924084,2.36496157 C4.3473442,2.36969026 4.17549283,2.37190448 4.0036958,2.3715761 C3.31988511,2.37102254 2.63666298,2.3298342 1.95740686,2.24823624 C1.88386364,2.23920108 1.81032947,2.22950915 1.73678625,2.21966711 C1.79381348,2.22725739 1.69534235,2.21385007 1.67540365,2.21095094 C1.62866268,2.20416753 1.58192172,2.19712141 1.53518076,2.18980321 C1.37828795,2.16541858 1.22233685,2.13539519 1.0657519,2.10907781 C0.876455529,2.07679328 0.695414431,2.09294023 0.524188755,2.18980321 C0.383638987,2.26949656 0.269883326,2.39170116 0.198097646,2.54011993 C0.124247467,2.69832446 0.102279577,2.8705743 0.0692499599,3.04057239 C0.0362200717,3.2105611 -0.0151944446,3.39346925 0.00428066399,3.56798023 C0.0461911451,3.94461434 0.300302982,4.25069347 0.665812425,4.31914681 C1.00966637,4.38371587 1.35538832,4.43602225 1.70204292,4.48057885 C3.06379678,4.65339163 4.43952223,4.67406086 5.80554092,4.54224877 C5.91677934,4.53148726 6.02786383,4.51975938 6.13879439,4.50705573 C6.17344717,4.50311516 6.20850742,4.50724337 6.24141262,4.51915891 C6.27431783,4.53107444 6.30423494,4.55046768 6.3289727,4.57591251 C6.35371046,4.60135733 6.37263502,4.63221575 6.38437007,4.66621725 C6.39611416,4.70022812 6.40036087,4.73652829 6.39680233,4.77245315 L6.36221293,5.12083712 C6.29251801,5.82480129 6.22282308,6.52871854 6.15312816,7.2325795 C6.08042704,7.9717461 6.00724601,8.7108564 5.93360319,9.4498635 C5.91283144,9.65805697 5.89205969,9.86615663 5.87128794,10.0741625 C5.85134018,10.2790721 5.84854224,10.4903618 5.81099192,10.692832 C5.75178247,11.0111738 5.54379333,11.2067012 5.24029399,11.2781944 C4.96223868,11.3437768 4.67818909,11.3782098 4.39304386,11.3808369 C4.0769221,11.3826195 3.76096333,11.3680769 3.44484158,11.3698596 C3.10736856,11.3718299 2.69403429,11.3395547 2.43353628,11.0792894 C2.20465768,10.8507363 2.1730292,10.4928012 2.14187158,10.1832787 C2.10032808,9.77355322 2.05914677,9.36391215 2.01831861,8.95429922 L1.78929513,6.67659314 L1.64113117,5.2028479 C1.63863204,5.17847266 1.63614196,5.15441641 1.63380582,5.12987229 C1.61604027,4.95407593 1.49591907,4.78198558 1.30661908,4.79086125 C1.14459219,4.79828266 0.96043533,4.94099699 0.97944139,5.12987229 L1.08927632,6.22247991 L1.3164345,8.48258478 C1.38114927,9.12456001 1.44570106,9.76661031 1.51009892,10.4088295 C1.5225674,10.5318316 1.53424811,10.655209 1.54733232,10.7782111 C1.6185394,11.4504536 2.11398274,11.8127047 2.72752806,11.9146904 C3.08587243,11.9744557 3.45293658,11.9867465 3.81657802,11.992845 C4.28273808,12.0006323 4.75357044,12.0192093 5.21208824,11.9316724 C5.89154356,11.8024779 6.40132068,11.3324242 6.47407613,10.603231 C6.49485694,10.3926919 6.51562869,10.1821529 6.53640044,9.97151998 C6.60547058,9.27496784 6.67444112,8.57836879 6.743303,7.88171344 L6.96859589,5.60547101 L7.07189323,4.56227063 C7.07703637,4.51053656 7.09811598,4.46189866 7.13201722,4.42355316 C7.16590939,4.38520766 7.21082129,4.35918113 7.2600976,4.3493297 C7.45437774,4.31010226 7.64010108,4.24310318 7.7782957,4.08989942 C7.99828246,3.8459781 8.0420625,3.52794591 7.96431785,3.20733359 Z M0.705474587,3.43248124 C0.738182803,3.42842652 0.677929247,3.50177772 0.652104865,3.53599432 C0.646941989,3.4842247 0.65726774,3.43831481 0.705474587,3.43248124 Z M0.67657984,3.58436984 C0.690376165,3.57545936 0.731749109,3.62619752 0.7745089,3.68702439 C0.709679798,3.63120506 0.668306854,3.58945102 0.675201009,3.58436984 L0.67657984,3.58436984 Z M0.693234031,3.60882143 C0.767265261,3.71246976 0.806857311,3.77782763 0.693234031,3.60882143 Z M0.732035369,3.64013959 L0.74236112,3.64013959 C0.74236112,3.65268421 0.761301668,3.66512515 0.768185502,3.67766977 C0.756769144,3.66388105 0.744092084,3.65133644 0.730314411,3.64013959 L0.732035369,3.64013959 Z M7.25106089,3.59332186 C7.18126636,3.66209419 7.07609467,3.69405973 6.97217254,3.71004718 C5.80678143,3.88923994 4.62441253,3.97996689 3.44623602,3.93993256 C2.60304244,3.91006867 1.76873164,3.81303681 0.933949992,3.69083221 C0.85215059,3.67888853 0.763499408,3.66338895 0.707255415,3.60091214 C0.601310439,3.48306094 0.65334847,3.24575415 0.680924914,3.1033682 C0.706165215,2.97292593 0.754463607,2.79906233 0.904188621,2.78049474 C1.13789163,2.7520851 1.40929164,2.85426785 1.64050638,2.89059615 C1.91886956,2.93460857 2.19827403,2.96985792 2.47871076,2.9963348 C3.67557641,3.10934473 4.89254376,3.09174352 6.08411235,2.92643658 C6.30129212,2.89618801 6.51770224,2.86105126 6.73333364,2.82101694 C6.92544063,2.78533601 7.13841897,2.71834631 7.25449267,2.92449444 C7.33410261,3.06494764 7.34469675,3.25285656 7.33239125,3.41154896 C7.32859728,3.48068721 7.29944078,3.54571601 7.25090696,3.59332186 L7.25106089,3.59332186 Z" id="Shape" fill="#0D0C22" fill-rule="nonzero"></path>
                    </g>
                </g>
            </g>
            <g id="Group-3" mask="url(#mask-2)" fill-rule="nonzero">
                <g transform="translate(28.000000, 8.000000)" id="Rectangle-4">
                    <rect fill="#D8D8D8" transform="translate(23.000000, 9.500000) scale(1, -1) translate(-23.000000, -9.500000) " x="0" y="7" width="46" height="5"></rect>
                    <rect fill="#D8D8D8" transform="translate(57.000000, 9.500000) scale(1, -1) translate(-57.000000, -9.500000) " x="48" y="7" width="18" height="5"></rect>
                    <rect fill="#D8D8D8" transform="translate(13.500000, 16.500000) scale(1, -1) translate(-13.500000, -16.500000) " x="0" y="14" width="27" height="5"></rect>
                    <rect fill="#D8D8D8" transform="translate(13.500000, 16.500000) scale(1, -1) translate(-13.500000, -16.500000) " x="0" y="14" width="27" height="5"></rect>
                    <rect fill="#D8D8D8" transform="translate(47.500000, 16.500000) scale(1, -1) translate(-47.500000, -16.500000) " x="29" y="14" width="37" height="5"></rect>
                    <rect fill="#D8D8D8" transform="translate(13.500000, 30.500000) scale(1, -1) translate(-13.500000, -30.500000) " x="0" y="28" width="27" height="5"></rect>
                    <rect fill="#D8D8D8" transform="translate(6.500000, 37.500000) scale(1, -1) translate(-6.500000, -37.500000) " x="0" y="35" width="13" height="5"></rect>
                    <rect fill="#D8D8D8" transform="translate(47.500000, 30.500000) scale(1, -1) translate(-47.500000, -30.500000) " x="29" y="28" width="37" height="5"></rect>
                    <rect fill="#D8D8D8" transform="translate(9.000000, 23.500000) scale(1, -1) translate(-9.000000, -23.500000) " x="0" y="21" width="18" height="5"></rect>
                    <rect fill="#FFE07B" transform="translate(29.000000, 23.500000) scale(1, -1) translate(-29.000000, -23.500000) " x="20" y="21" width="18" height="5"></rect>
                    <rect fill="#D8D8D8" transform="translate(53.000000, 23.500000) scale(1, -1) translate(-53.000000, -23.500000) " x="40" y="21" width="26" height="5"></rect>
                    <rect fill="#D8D8D8" transform="translate(8.000000, 2.500000) scale(1, -1) translate(-8.000000, -2.500000) " x="0" y="0" width="16" height="5"></rect>
                </g>
            </g>
        </g>
        <g id="Group-4" transform="translate(27.000000, 100.000000)">
            <g id="mail_FILL0_wght400_GRAD0_opsz48" transform="translate(0.000000, 2.000000)" fill="#000000" fill-rule="nonzero">
                <path d="M1.575,16 C1.155,16 0.7875,15.85 0.4725,15.55 C0.1575,15.25 0,14.9 0,14.5 L0,1.5 C0,1.1 0.1575,0.75 0.4725,0.45 C0.7875,0.15 1.155,0 1.575,0 L19.425,0 C19.845,0 20.2125,0.15 20.5275,0.45 C20.8425,0.75 21,1.1 21,1.5 L21,14.5 C21,14.9 20.8425,15.25 20.5275,15.55 C20.2125,15.85 19.845,16 19.425,16 L1.575,16 Z M10.5,8.45 L1.575,2.875 L1.575,14.5 C1.575,14.5 1.575,14.5 1.575,14.5 C1.575,14.5 1.575,14.5 1.575,14.5 L19.425,14.5 C19.425,14.5 19.425,14.5 19.425,14.5 C19.425,14.5 19.425,14.5 19.425,14.5 L19.425,2.875 L10.5,8.45 Z M10.5,6.95 L19.32,1.5 L1.70625,1.5 L10.5,6.95 Z M1.575,2.875 L1.575,1.5 L1.575,2.875 L1.575,14.5 C1.575,14.5 1.575,14.5 1.575,14.5 C1.575,14.5 1.575,14.5 1.575,14.5 C1.575,14.5 1.575,14.5 1.575,14.5 C1.575,14.5 1.575,14.5 1.575,14.5 L1.575,2.875 Z" id="Shape"></path>
            </g>
            <circle id="Oval" fill="#FF6259" cx="18.5" cy="3.5" r="3.5"></circle>
        </g>
    </g>
</svg>