<?xml version="1.0" encoding="UTF-8"?>
<svg width="526px" height="642px" viewBox="0 0 526 642" version="1.1" xmlns="http://www.w3.org/2000/svg" xmlns:xlink="http://www.w3.org/1999/xlink">
    <!-- Generator: Sketch 51.3 (57544) - http://www.bohemiancoding.com/sketch -->
    <title>dino/head</title>
    <desc>Created with Sketch.</desc>
    <defs>
        <path d="M465.005954,576.513031 C473.110628,552.859897 465.572203,469.102142 459.220489,391.199428 C503.410039,369.948485 522.629778,328.515434 516.879705,266.900277 L493.229114,260.533137 C527.434467,87.4434557 471.75602,0.89861527 326.193772,0.89861527 C107.850399,0.89861527 99.7018529,100.234724 88.1353637,157.921795 C76.5688746,215.608866 104.216736,311.594516 99.7018529,446.301589 C98.8068166,473.006091 97.8370112,496.428281 96.7924367,516.568158 C96.056707,530.753364 47.570093,530.746402 4.67056472,380.311857 C-11.3396611,507.754132 19.3676296,578.901269 96.7924367,593.753268 C149.667161,598.149762 187.582911,600.041282 210.539684,599.427828 C288.074062,597.355943 348.488509,593.753268 390.324314,593.753268 C432.16012,593.753268 456.901281,600.166165 465.005954,576.513031 Z" id="path-1"></path>
    </defs>
    <g id="dino/head" stroke="none" stroke-width="1" fill="none" fill-rule="evenodd">
        <path d="M333,48.2427964 L308.065883,4 L282.873973,48.2427964 L262.783468,7.16168809 L243.324402,54.4525621 L226.58627,13.9206903 L205.698215,62.1003826 L179.496215,30.0169144 L168.149803,77.2969474 L132.58879,54.4525621 L135.846279,102.557286 L96.1253921,87.6954335 L112.011451,144.10601 L69.6942781,140.317618 L96.1253921,192.896255 L53,207.002469 C80.8738691,229.040991 93.8061588,240.060252 91.7968691,240.060252 C89.7875794,240.060252 76.8552897,245.071961 53,255.095378 L96.1253921,290.598496 L53,319.120352 L101.30196,342.323006 L53,367.90841 L108.053374,392.745047 L69.6942781,408.815988 L108.053374,434.641622 L75.3885286,450.867829 L108.053374,469 L333,207.002469 L333,48.2427964 Z" id="scale-body" stroke="#000000" stroke-width="4" fill="#0C7D1D"></path>
        <polygon id="scales-tail" stroke="#000000" stroke-width="4" fill="#0C7D1D" points="9 427 50.5032218 430.898518 22.1002316 478.751031 59.6289136 471.954822 44.5828497 516.433663 84 503.521699 72.7529105 569 14.9622968 503.521699"></polygon>
        <g id="body" transform="translate(4.000000, 40.000000)">
            <mask id="mask-2" fill="white">
                <use xlink:href="#path-1"></use>
            </mask>
            <use id="body-mask" stroke="#000000" stroke-width="4" fill="#77E788" xlink:href="#path-1"></use>
            <path d="M542,264.589246 C385.940575,279.168518 252.583864,284.968659 141.929866,281.989669 C218.347111,270.389387 341.674879,262.436985 511.913169,258.132463 L542,264.589246 Z" id="mouth" fill="#000000" mask="url(#mask-2)"></path>
            <circle id="eye-left" fill="#000000" mask="url(#mask-2)" transform="translate(210.500000, 197.500000) rotate(-360.000000) translate(-210.500000, -197.500000) " cx="210.5" cy="197.5" r="35.5"></circle>
            <circle id="eye-right" fill="#000000" mask="url(#mask-2)" transform="translate(431.000000, 214.000000) rotate(-360.000000) translate(-431.000000, -214.000000) " cx="431" cy="214" r="24"></circle>
            <g id="nose" mask="url(#mask-2)" fill="#000000">
                <g transform="translate(307.000000, 214.000000)">
                    <circle id="nostril-left" cx="9" cy="9" r="9"></circle>
                    <circle id="nostril-right" cx="35" cy="9" r="9"></circle>
                </g>
            </g>
            <g id="arms" mask="url(#mask-2)" stroke="#000000" stroke-width="4">
                <g transform="translate(150.000000, 411.000000)">
                    <path d="M14.8879861,10.2141479 C27.4488958,50.0713826 38.5891232,70 48.3086684,70 C58.0282136,70 62.8879861,50.0713826 62.8879861,10.2141479" id="arm-left" transform="translate(38.887986, 40.107074) rotate(-43.000000) translate(-38.887986, -40.107074) "></path>
                    <path d="M219.993533,8.78496643 C232.554443,48.6422012 243.69467,68.5708185 253.414215,68.5708185 C263.13376,68.5708185 267.993533,48.6422012 267.993533,8.78496643" id="arm-right" transform="translate(243.993533, 38.677892) scale(-1, 1) rotate(-43.000000) translate(-243.993533, -38.677892) "></path>
                </g>
            </g>
        </g>
    </g>
</svg>