<?xml version="1.0" encoding="UTF-8"?>
<svg width="135px" height="132px" viewBox="0 0 135 132" version="1.1" xmlns="http://www.w3.org/2000/svg" xmlns:xlink="http://www.w3.org/1999/xlink">
    <!-- Generator: Sketch 51.3 (57544) - http://www.bohemiancoding.com/sketch -->
    <title>dino/how-to-step-2</title>
    <desc>Created with Sketch.</desc>
    <defs>
        <rect id="path-1" x="2" y="2" width="131" height="128" rx="17"></rect>
        <rect id="path-3" x="2" y="2" width="131" height="128" rx="17"></rect>
        <rect id="path-5" x="0" y="0" width="87" height="96"></rect>
        <path d="M38.6008804,48.0427526 C39.2736621,46.0716581 38.6478856,39.0918452 38.1206198,32.5999524 C41.7888643,30.8290404 43.3843252,27.3762862 42.9070025,22.2416897 L40.9437295,21.7110947 C43.78317,7.28695464 39.161214,0.0748846059 27.0778613,0.0748846059 C8.95283237,0.0748846059 8.27640864,8.35289366 7.31625606,13.1601496 C6.35610349,17.9674055 8.65119627,25.9662096 8.27640864,37.1917991 C8.20211026,39.4171743 8.12160518,41.3690234 8.03489339,43.0473465 C7.97381931,44.229447 3.94886872,44.2288668 0.387710971,31.6926548 C-0.941323218,42.3128444 1.60773759,48.2417725 8.03489339,49.479439 C12.424108,49.8458135 15.5715544,50.0034402 17.4772325,49.952319 C23.9134839,49.779662 28.9285828,49.479439 32.4014392,49.479439 C35.8742956,49.479439 37.9280986,50.0138471 38.6008804,48.0427526 Z" id="path-7"></path>
    </defs>
    <g id="dino/how-to-step-2" stroke="none" stroke-width="1" fill="none" fill-rule="evenodd">
        <mask id="mask-2" fill="white">
            <use xlink:href="#path-1"></use>
        </mask>
        <rect stroke="#000000" stroke-width="2" x="1" y="1" width="133" height="130" rx="17"></rect>
        <g id="Group" mask="url(#mask-2)" fill-rule="nonzero">
            <g transform="translate(16.000000, 14.000000)" id="Oval-4">
                <circle fill="#FF6259" cx="5.5" cy="5.5" r="5.5"></circle>
                <circle fill="#FFBF2F" cx="20.5" cy="5.5" r="5.5"></circle>
                <circle fill="#29CC41" cx="35.5" cy="5.5" r="5.5"></circle>
            </g>
        </g>
        <path d="" id="Path-15" stroke="#979797" fill-rule="nonzero" mask="url(#mask-2)"></path>
        <mask id="mask-4" fill="white">
            <use xlink:href="#path-3"></use>
        </mask>
        <use id="Rectangle-3" fill-opacity="0.300158514" fill="#0D0D0D" fill-rule="nonzero" xlink:href="#path-3"></use>
        <circle id="Oval-3" fill="#FFE07B" fill-rule="nonzero" mask="url(#mask-4)" cx="109.5" cy="19.5" r="7.5"></circle>
        <g id="Shape" mask="url(#mask-4)">
            <g transform="translate(24.000000, 20.000000)">
                <mask id="mask-6" fill="white">
                    <use xlink:href="#path-5"></use>
                </mask>
                <g id="Mask" stroke="none" fill="none" fill-rule="nonzero">
                    <use fill="#FFFFFF" xlink:href="#path-5"></use>
                    <rect stroke="#DFDFDF" stroke-width="1" fill="#FFFFFF" fill-rule="evenodd" x="-0.5" y="-0.5" width="88" height="97"></rect>
                </g>
                <path d="M81.4527132,-8 C66.4124031,18.5317829 42.5844961,46.4155039 42.5844961,46.4155039 C42.5844961,46.4155039 70.4682171,22.5875969 97,7.54728682 L97,22.4186047 C71.820155,36.1069767 42.5844961,46.4155039 42.5844961,46.4155039 C42.5844961,46.4155039 69.7922481,41.3457364 97,40.1627907 L97,52.8372093 C69.7922481,51.6542636 42.5844961,46.5844961 42.5844961,46.5844961 C42.5844961,46.5844961 71.820155,56.8930233 97,70.5813953 L97,85.4527132 C70.4682171,70.4124031 42.5844961,46.5844961 42.5844961,46.5844961 C42.5844961,46.5844961 66.4124031,74.4682171 81.4527132,101 L66.5813953,101 C52.8930233,75.820155 42.5844961,46.7534884 42.5844961,46.5844961 C42.5844961,46.5844961 47.6542636,73.7922481 48.8372093,101 L36.3317829,101 C37.5147287,73.7922481 42.5844961,46.7534884 42.5844961,46.5844961 C42.5844961,46.5844961 32.275969,75.820155 18.5875969,101 L3.54728682,101 C18.5875969,74.4682171 42.2465116,46.5844961 42.4155039,46.5844961 C42.4155039,46.5844961 14.5317829,70.4124031 -12,85.4527132 L-12,70.5813953 C13.179845,56.8930233 42.2465116,46.5844961 42.4155039,46.5844961 C42.4155039,46.5844961 15.2077519,51.6542636 -12,52.8372093 L-12,40.3317829 C15.2077519,41.5147287 42.2465116,46.5844961 42.4155039,46.5844961 C42.4155039,46.5844961 13.179845,36.275969 -12,22.5875969 L-12,7.71627907 C14.5317829,22.7565891 42.4155039,46.4155039 42.4155039,46.5844961 C42.4155039,46.5844961 18.5875969,18.7007752 3.54728682,-7.83100775 L18.4186047,-7.83100775 C32.1069767,17.3488372 42.4155039,46.5844961 42.4155039,46.5844961 C42.4155039,46.5844961 37.3457364,19.3767442 36.1627907,-7.83100775 L48.6682171,-7.83100775 C47.4852713,19.3767442 42.4155039,46.5844961 42.4155039,46.5844961 C42.4155039,46.5844961 52.724031,17.3488372 66.4124031,-7.83100775 L81.4527132,-7.83100775 L81.4527132,-8 Z" id="Shape" stroke="none" fill="#B5EABD" fill-rule="nonzero" mask="url(#mask-6)"></path>
                <g id="Group" stroke="none" stroke-width="1" fill="none" fill-rule="evenodd" mask="url(#mask-6)">
                    <g transform="translate(20.000000, 19.000000)">
                        <path d="M27,3.71068615 L24.9518404,0 L22.882505,3.71068615 L21.2322134,0.26517384 L19.6337902,4.23150521 L18.2588722,0.832057896 L16.5430676,4.87293531 L14.3907605,2.18206379 L13.4587338,6.14748591 L10.5376506,4.23150521 L10.8052301,8.26609494 L7.54244292,7.01961701 L8.8473692,11.7508267 L5.3713157,11.4330906 L7.54244292,15.8429117 L4,17.0260135 C6.28963924,18.8744057 7.35193447,19.7986018 7.18688568,19.7986018 C7.02183688,19.7986018 5.95954166,20.2189387 4,21.0596123 L7.54244292,24.0372932 L4,26.4294488 L7.967661,28.3754779 L4,30.5213505 L8.52224145,32.6044233 L5.3713157,33.9523087 L8.52224145,36.1183296 L5.83905771,37.4792372 L8.52224145,39 L27,17.0260135 L27,3.71068615 Z" id="scale-body" stroke="#000000" stroke-width="0.4" fill="#0C7D1D"></path>
                        <polygon id="scales-tail" stroke="#000000" stroke-width="0.4" fill="#0C7D1D" points="1 35 3.76688145 35.2470892 1.87334877 38.2799949 4.3752609 37.8492493 3.37218998 40.6683307 6 39.8499668 5.25019403 44 1.39748645 39.8499668"></polygon>
                        <g id="body" stroke="none" stroke-width="1" fill="none" transform="translate(0.000000, 3.000000)">
                            <mask id="mask-8" fill="white">
                                <use xlink:href="#path-7"></use>
                            </mask>
                            <use id="body-mask" stroke="#000000" stroke-width="0.4" fill="#77E788" xlink:href="#path-7"></use>
                            <path d="M44.992278,22.0491038 C32.0375381,23.2640431 20.9673864,23.7473882 11.7818228,23.4991391 C18.1253394,22.5324489 28.3629726,21.8697488 42.4947225,21.5110386 L44.992278,22.0491038 Z" id="mouth" fill="#000000" mask="url(#mask-8)"></path>
                            <ellipse id="eye-left" fill="#000000" mask="url(#mask-8)" transform="translate(17.473938, 16.458333) rotate(-360.000000) translate(-17.473938, -16.458333) " cx="17.4739382" cy="16.4583333" rx="2.9469112" ry="2.95833333"></ellipse>
                            <ellipse id="eye-right" fill="#000000" mask="url(#mask-8)" transform="translate(35.777992, 17.833333) rotate(-360.000000) translate(-35.777992, -17.833333) " cx="35.7779923" cy="17.8333333" rx="1.99227799" ry="2"></ellipse>
                            <g id="nose" mask="url(#mask-8)" fill="#000000">
                                <g transform="translate(25.484556, 17.833333)">
                                    <ellipse id="nostril-left" cx="0.747104247" cy="0.75" rx="1" ry="1"></ellipse>
                                    <ellipse id="nostril-right" cx="2.90540541" cy="0.75" rx="1" ry="1"></ellipse>
                                </g>
                            </g>
                            <g id="arms" mask="url(#mask-8)" stroke="#000000" stroke-width="0.4">
                                <g transform="translate(12.451737, 34.250000)">
                                    <path d="M1.2358753,0.851178993 C2.27857629,4.17261522 3.20334421,5.83333333 4.01017904,5.83333333 C4.81701387,5.83333333 5.22043128,4.17261522 5.22043128,0.851178993" id="arm-left" transform="translate(3.228153, 3.342256) rotate(-43.000000) translate(-3.228153, -3.342256) "></path>
                                    <path d="M18.2620114,0.732080536 C19.3047124,4.05351676 20.2294803,5.71423488 21.0363152,5.71423488 C21.84315,5.71423488 22.2465674,4.05351676 22.2465674,0.732080536" id="arm-right" transform="translate(20.254289, 3.223158) scale(-1, 1) rotate(-43.000000) translate(-20.254289, -3.223158) "></path>
                                </g>
                            </g>
                        </g>
                    </g>
                </g>
                <g id="Group-2" stroke="none" stroke-width="1" fill="none" fill-rule="evenodd" mask="url(#mask-6)">
                    <g transform="translate(6.000000, 75.000000)">
                        <rect id="Rectangle" stroke="#DFDFDF" stroke-width="1" fill="#FFFFFF" fill-rule="nonzero" x="0.5" y="0.5" width="75" height="12" rx="6"></rect>
                        <path d="M10.668,8.362 C10.1359973,8.362 9.73100139,8.21700145 9.453,7.927 C9.17499861,7.63699855 9.0260001,7.24000252 9.006,6.736 C9.00199998,6.62799946 9,6.45200122 9,6.208 C9,5.95999876 9.00199998,5.78000056 9.006,5.668 C9.0260001,5.16399748 9.17499861,4.76700145 9.453,4.477 C9.73100139,4.18699855 10.1359973,4.042 10.668,4.042 C11.0240018,4.042 11.3259988,4.10499937 11.574,4.231 C11.8220012,4.35700063 12.0089994,4.52199898 12.135,4.726 C12.2610006,4.93000102 12.3299999,5.14799884 12.342,5.38 C12.342,5.41600018 12.3290001,5.44499989 12.303,5.467 C12.2769999,5.48900011 12.2460002,5.5 12.21,5.5 L11.91,5.5 C11.8699998,5.5 11.8380001,5.4900001 11.814,5.47 C11.7899999,5.4499999 11.7720001,5.41600024 11.76,5.368 C11.6919997,5.05999846 11.5690009,4.84400062 11.391,4.72 C11.2129991,4.59599938 10.9720015,4.534 10.668,4.534 C9.97199652,4.534 9.61000014,4.92199612 9.582,5.698 C9.57799998,5.80600054 9.576,5.97199888 9.576,6.196 C9.576,6.42000112 9.57799998,6.58999942 9.582,6.706 C9.61000014,7.47800386 9.97199652,7.864 10.668,7.864 C10.9680015,7.864 11.2079991,7.80200062 11.388,7.678 C11.5680009,7.55399938 11.6919997,7.34000152 11.76,7.036 C11.7720001,6.98799976 11.7899999,6.9540001 11.814,6.934 C11.8380001,6.9139999 11.8699998,6.904 11.91,6.904 L12.21,6.904 C12.2460002,6.904 12.2769999,6.91499989 12.303,6.937 C12.3290001,6.95900011 12.342,6.98799982 12.342,7.024 C12.3299999,7.25600116 12.2610006,7.47399898 12.135,7.678 C12.0089994,7.88200102 11.8220012,8.04699937 11.574,8.173 C11.3259988,8.29900063 11.0240018,8.362 10.668,8.362 Z M13.224,8.302 C13.1839998,8.302 13.1510001,8.28900013 13.125,8.263 C13.0989999,8.23699987 13.086,8.2040002 13.086,8.164 L13.086,4.18 C13.086,4.13599978 13.0989999,4.10200012 13.125,4.078 C13.1510001,4.05399988 13.1839998,4.042 13.224,4.042 L13.488,4.042 C13.5280002,4.042 13.5609999,4.05499987 13.587,4.081 C13.6130001,4.10700013 13.626,4.1399998 13.626,4.18 L13.626,8.164 C13.626,8.2040002 13.6130001,8.23699987 13.587,8.263 C13.5609999,8.28900013 13.5280002,8.302 13.488,8.302 L13.224,8.302 Z M14.616,4.594 C14.5759998,4.594 14.5430001,4.58100013 14.517,4.555 C14.4909999,4.52899987 14.478,4.4960002 14.478,4.456 L14.478,4.144 C14.478,4.1039998 14.4909999,4.07000014 14.517,4.042 C14.5430001,4.01399986 14.5759998,4 14.616,4 L14.97,4 C15.0100002,4 15.0439999,4.01399986 15.072,4.042 C15.1000001,4.07000014 15.114,4.1039998 15.114,4.144 L15.114,4.456 C15.114,4.4960002 15.1000001,4.52899987 15.072,4.555 C15.0439999,4.58100013 15.0100002,4.594 14.97,4.594 L14.616,4.594 Z M14.664,8.302 C14.6239998,8.302 14.5910001,8.28900013 14.565,8.263 C14.5389999,8.23699987 14.526,8.2040002 14.526,8.164 L14.526,5.32 C14.526,5.2799998 14.5389999,5.24700013 14.565,5.221 C14.5910001,5.19499987 14.6239998,5.182 14.664,5.182 L14.928,5.182 C14.9680002,5.182 15.0009999,5.19499987 15.027,5.221 C15.0530001,5.24700013 15.066,5.2799998 15.066,5.32 L15.066,8.164 C15.066,8.2040002 15.0530001,8.23699987 15.027,8.263 C15.0009999,8.28900013 14.9680002,8.302 14.928,8.302 L14.664,8.302 Z M17.214,8.362 C16.7859979,8.362 16.4520012,8.24100121 16.212,7.999 C15.9719988,7.75699879 15.8460001,7.41800218 15.834,6.982 L15.828,6.742 L15.834,6.502 C15.8460001,6.06599782 15.9719988,5.72700121 16.212,5.485 C16.4520012,5.24299879 16.7859979,5.122 17.214,5.122 C17.5020014,5.122 17.744999,5.17299949 17.943,5.275 C18.141001,5.37700051 18.2889995,5.50399924 18.387,5.656 C18.4850005,5.80800076 18.538,5.95999924 18.546,6.112 C18.55,6.14800018 18.5370001,6.17999986 18.507,6.208 C18.4769998,6.23600014 18.4440002,6.25 18.408,6.25 L18.144,6.25 C18.1039998,6.25 18.0740001,6.24100009 18.054,6.223 C18.0339999,6.20499991 18.0140001,6.17200024 17.994,6.124 C17.9219996,5.92799902 17.8230006,5.78900041 17.697,5.707 C17.5709994,5.62499959 17.412001,5.584 17.22,5.584 C16.9679987,5.584 16.7680007,5.66199922 16.62,5.818 C16.4719993,5.97400078 16.3920001,6.2119984 16.38,6.532 L16.374,6.742 L16.38,6.952 C16.3920001,7.2720016 16.4719993,7.50999922 16.62,7.666 C16.7680007,7.82200078 16.9679987,7.9 17.22,7.9 C17.416001,7.9 17.5759994,7.85900041 17.7,7.777 C17.8240006,7.69499959 17.9219996,7.55600098 17.994,7.36 C18.0140001,7.31199976 18.0339999,7.27900009 18.054,7.261 C18.0740001,7.24299991 18.1039998,7.234 18.144,7.234 L18.408,7.234 C18.4440002,7.234 18.4769998,7.24799986 18.507,7.276 C18.5370001,7.30400014 18.55,7.33599982 18.546,7.372 C18.538,7.52000074 18.4850005,7.66999924 18.387,7.822 C18.2889995,7.97400076 18.141001,8.10199948 17.943,8.206 C17.744999,8.31000052 17.5020014,8.362 17.214,8.362 Z M19.41,8.302 C19.3699998,8.302 19.3370001,8.28900013 19.311,8.263 C19.2849999,8.23699987 19.272,8.2040002 19.272,8.164 L19.272,4.18 C19.272,4.13599978 19.2849999,4.10200012 19.311,4.078 C19.3370001,4.05399988 19.3699998,4.042 19.41,4.042 L19.668,4.042 C19.7080002,4.042 19.7409999,4.05499987 19.767,4.081 C19.7930001,4.10700013 19.806,4.1399998 19.806,4.18 L19.806,6.274 L21.006,5.284 C21.0660003,5.23999978 21.1079999,5.21200006 21.132,5.2 C21.1560001,5.18799994 21.1939997,5.182 21.246,5.182 L21.546,5.182 C21.5820002,5.182 21.6109999,5.19299989 21.633,5.215 C21.6550001,5.23700011 21.666,5.2679998 21.666,5.308 C21.666,5.34400018 21.6440002,5.3819998 21.6,5.422 L20.196,6.574 L21.75,8.062 C21.7940002,8.10600022 21.816,8.14399984 21.816,8.176 C21.816,8.21200018 21.8050001,8.24199988 21.783,8.266 C21.7609999,8.29000012 21.7320002,8.302 21.696,8.302 L21.402,8.302 C21.3419997,8.302 21.2990001,8.29600006 21.273,8.284 C21.2469999,8.27199994 21.2100002,8.24400022 21.162,8.2 L19.806,6.916 L19.806,8.164 C19.806,8.2040002 19.7930001,8.23699987 19.767,8.263 C19.7409999,8.28900013 19.7080002,8.302 19.668,8.302 L19.41,8.302 Z M23.904,8.302 C23.8639998,8.302 23.8310001,8.28900013 23.805,8.263 C23.7789999,8.23699987 23.766,8.2040002 23.766,8.164 L23.766,4.18 C23.766,4.13599978 23.7789999,4.10200012 23.805,4.078 C23.8310001,4.05399988 23.8639998,4.042 23.904,4.042 L24.18,4.042 C24.2240002,4.042 24.2579999,4.05399988 24.282,4.078 C24.3060001,4.10200012 24.318,4.13599978 24.318,4.18 L24.318,5.578 C24.4340006,5.42999926 24.5709992,5.31700039 24.729,5.239 C24.8870008,5.16099961 25.0819988,5.122 25.314,5.122 C25.6980019,5.122 25.9969989,5.24499877 26.211,5.491 C26.4250011,5.73700123 26.532,6.06199798 26.532,6.466 L26.532,8.164 C26.532,8.2040002 26.5190001,8.23699987 26.493,8.263 C26.4669999,8.28900013 26.4340002,8.302 26.394,8.302 L26.112,8.302 C26.0719998,8.302 26.0390001,8.28900013 26.013,8.263 C25.9869999,8.23699987 25.974,8.2040002 25.974,8.164 L25.974,6.502 C25.974,6.21399856 25.9040007,5.9900008 25.764,5.83 C25.6239993,5.6699992 25.4220013,5.59 25.158,5.59 C24.9019987,5.59 24.6980008,5.67099919 24.546,5.833 C24.3939992,5.99500081 24.318,6.21799858 24.318,6.502 L24.318,8.164 C24.318,8.2040002 24.3050001,8.23699987 24.279,8.263 C24.2529999,8.28900013 24.2200002,8.302 24.18,8.302 L23.904,8.302 Z M28.638,8.362 C28.229998,8.362 27.9040012,8.23500127 27.66,7.981 C27.4159988,7.72699873 27.2820001,7.3800022 27.258,6.94 L27.252,6.736 L27.258,6.538 C27.2820001,6.10599784 27.4159988,5.76200128 27.66,5.506 C27.9040012,5.24999872 28.229998,5.122 28.638,5.122 C29.0780022,5.122 29.4189988,5.2619986 29.661,5.542 C29.9030012,5.8220014 30.024,6.2019976 30.024,6.682 L30.024,6.79 C30.024,6.8300002 30.0110001,6.86299987 29.985,6.889 C29.9589999,6.91500013 29.9260002,6.928 29.886,6.928 L27.804,6.928 L27.804,6.982 C27.8160001,7.2420013 27.8959993,7.46399908 28.044,7.648 C28.1920007,7.83200092 28.3879988,7.924 28.632,7.924 C28.8200009,7.924 28.9729994,7.88700037 29.091,7.813 C29.2090006,7.73899963 29.2979997,7.6620004 29.358,7.582 C29.3940002,7.53399976 29.4219999,7.50500005 29.442,7.495 C29.4620001,7.48499995 29.4959998,7.48 29.544,7.48 L29.808,7.48 C29.8440002,7.48 29.8749999,7.4899999 29.901,7.51 C29.9270001,7.5300001 29.94,7.55599984 29.94,7.588 C29.94,7.67600044 29.8860005,7.78199938 29.778,7.906 C29.6699995,8.03000062 29.517001,8.13699955 29.319,8.227 C29.120999,8.31700045 28.8940013,8.362 28.638,8.362 Z M29.478,6.52 L29.478,6.502 C29.478,6.2219986 29.4020008,5.99400088 29.25,5.818 C29.0979992,5.64199912 28.8940013,5.554 28.638,5.554 C28.3779987,5.554 28.1740007,5.64199912 28.026,5.818 C27.8779993,5.99400088 27.804,6.2219986 27.804,6.502 L27.804,6.52 L29.478,6.52 Z M30.894,8.302 C30.8539998,8.302 30.8210001,8.28900013 30.795,8.263 C30.7689999,8.23699987 30.756,8.2040002 30.756,8.164 L30.756,5.326 C30.756,5.2859998 30.7689999,5.25200014 30.795,5.224 C30.8210001,5.19599986 30.8539998,5.182 30.894,5.182 L31.146,5.182 C31.1900002,5.182 31.2249999,5.19499987 31.251,5.221 C31.2770001,5.24700013 31.29,5.28199978 31.29,5.326 L31.29,5.59 C31.4540008,5.31799864 31.731998,5.182 32.124,5.182 L32.358,5.182 C32.4020002,5.182 32.4359999,5.19399988 32.46,5.218 C32.4840001,5.24200012 32.496,5.27599978 32.496,5.32 L32.496,5.542 C32.496,5.5820002 32.4840001,5.61499987 32.46,5.641 C32.4359999,5.66700013 32.4020002,5.68 32.358,5.68 L32.016,5.68 C31.7959989,5.68 31.6230006,5.74399936 31.497,5.872 C31.3709994,6.00000064 31.308,6.1739989 31.308,6.394 L31.308,8.164 C31.308,8.2040002 31.2940001,8.23699987 31.266,8.263 C31.2379999,8.28900013 31.2040002,8.302 31.164,8.302 L30.894,8.302 Z M34.188,8.362 C33.779998,8.362 33.4540012,8.23500127 33.21,7.981 C32.9659988,7.72699873 32.8320001,7.3800022 32.808,6.94 L32.802,6.736 L32.808,6.538 C32.8320001,6.10599784 32.9659988,5.76200128 33.21,5.506 C33.4540012,5.24999872 33.779998,5.122 34.188,5.122 C34.6280022,5.122 34.9689988,5.2619986 35.211,5.542 C35.4530012,5.8220014 35.574,6.2019976 35.574,6.682 L35.574,6.79 C35.574,6.8300002 35.5610001,6.86299987 35.535,6.889 C35.5089999,6.91500013 35.4760002,6.928 35.436,6.928 L33.354,6.928 L33.354,6.982 C33.3660001,7.2420013 33.4459993,7.46399908 33.594,7.648 C33.7420007,7.83200092 33.9379988,7.924 34.182,7.924 C34.3700009,7.924 34.5229994,7.88700037 34.641,7.813 C34.7590006,7.73899963 34.8479997,7.6620004 34.908,7.582 C34.9440002,7.53399976 34.9719999,7.50500005 34.992,7.495 C35.0120001,7.48499995 35.0459998,7.48 35.094,7.48 L35.358,7.48 C35.3940002,7.48 35.4249999,7.4899999 35.451,7.51 C35.4770001,7.5300001 35.49,7.55599984 35.49,7.588 C35.49,7.67600044 35.4360005,7.78199938 35.328,7.906 C35.2199995,8.03000062 35.067001,8.13699955 34.869,8.227 C34.670999,8.31700045 34.4440013,8.362 34.188,8.362 Z M35.028,6.52 L35.028,6.502 C35.028,6.2219986 34.9520008,5.99400088 34.8,5.818 C34.6479992,5.64199912 34.4440013,5.554 34.188,5.554 C33.9279987,5.554 33.7240007,5.64199912 33.576,5.818 C33.4279993,5.99400088 33.354,6.2219986 33.354,6.502 L33.354,6.52 L35.028,6.52 Z M38.856,8.302 C38.2359969,8.302 37.926,7.9520035 37.926,7.252 L37.926,5.644 L37.452,5.644 C37.4119998,5.644 37.3800001,5.63200012 37.356,5.608 C37.3319999,5.58399988 37.32,5.5520002 37.32,5.512 L37.32,5.32 C37.32,5.2799998 37.3319999,5.24700013 37.356,5.221 C37.3800001,5.19499987 37.4119998,5.182 37.452,5.182 L37.926,5.182 L37.926,4.18 C37.926,4.1399998 37.9379999,4.10700013 37.962,4.081 C37.9860001,4.05499987 38.0179998,4.042 38.058,4.042 L38.322,4.042 C38.3620002,4.042 38.3949999,4.05499987 38.421,4.081 C38.4470001,4.10700013 38.46,4.1399998 38.46,4.18 L38.46,5.182 L39.204,5.182 C39.2440002,5.182 39.2769999,5.19499987 39.303,5.221 C39.3290001,5.24700013 39.342,5.2799998 39.342,5.32 L39.342,5.512 C39.342,5.5520002 39.3290001,5.58399988 39.303,5.608 C39.2769999,5.63200012 39.2440002,5.644 39.204,5.644 L38.46,5.644 L38.46,7.21 C38.46,7.41400102 38.4929997,7.56799948 38.559,7.672 C38.6250003,7.77600052 38.7379992,7.828 38.898,7.828 L39.264,7.828 C39.3040002,7.828 39.3359999,7.84099987 39.36,7.867 C39.3840001,7.89300013 39.396,7.9259998 39.396,7.966 L39.396,8.164 C39.396,8.2040002 39.3840001,8.23699987 39.36,8.263 C39.3359999,8.28900013 39.3040002,8.302 39.264,8.302 L38.856,8.302 Z M41.25,8.362 C40.8099978,8.362 40.4710012,8.23800124 40.233,7.99 C39.9949988,7.74199876 39.8680001,7.41200206 39.852,7 L39.846,6.742 L39.852,6.484 C39.8680001,6.07199794 39.9969988,5.74200124 40.239,5.494 C40.4810012,5.24599876 40.8179978,5.122 41.25,5.122 C41.6820022,5.122 42.0189988,5.24599876 42.261,5.494 C42.5030012,5.74200124 42.6319999,6.07199794 42.648,6.484 C42.656,6.57200044 42.66,6.65799958 42.66,6.742 C42.66,6.82600042 42.656,6.91199956 42.648,7 C42.6319999,7.41200206 42.5050012,7.74199876 42.267,7.99 C42.0289988,8.23800124 41.6900022,8.362 41.25,8.362 Z M41.25,7.912 C41.5060013,7.912 41.7089993,7.83100081 41.859,7.669 C42.0090007,7.50699919 42.0899999,7.27400152 42.102,6.97 C42.106,6.9299998 42.108,6.85400056 42.108,6.742 C42.108,6.62999944 42.106,6.5540002 42.102,6.514 C42.0899999,6.20999848 42.0090007,5.97700081 41.859,5.815 C41.7089993,5.65299919 41.5060013,5.572 41.25,5.572 C40.9939987,5.572 40.7910007,5.65299919 40.641,5.815 C40.4909992,5.97700081 40.4100001,6.20999848 40.398,6.514 L40.392,6.742 L40.398,6.97 C40.4100001,7.27400152 40.4909992,7.50699919 40.641,7.669 C40.7910007,7.83100081 40.9939987,7.912 41.25,7.912 Z M45.756,8.362 C45.559999,8.362 45.3790008,8.3220004 45.213,8.242 C45.0469992,8.1619996 44.9150005,8.05300069 44.817,7.915 C44.7189995,7.77699931 44.67,7.62400084 44.67,7.456 C44.67,7.19199868 44.7779989,6.97600084 44.994,6.808 C45.2100011,6.63999916 45.5039981,6.52800028 45.876,6.472 L46.776,6.346 L46.776,6.172 C46.776,5.75999794 46.5380024,5.554 46.062,5.554 C45.8779991,5.554 45.7300006,5.59099963 45.618,5.665 C45.5059994,5.73900037 45.4240003,5.8259995 45.372,5.926 C45.3559999,5.9660002 45.3390001,5.99299993 45.321,6.007 C45.3029999,6.02100007 45.2780002,6.028 45.246,6.028 L45.012,6.028 C44.9759998,6.028 44.9450001,6.01500013 44.919,5.989 C44.8929999,5.96299987 44.88,5.93200018 44.88,5.896 C44.88,5.80399954 44.9229996,5.69700061 45.009,5.575 C45.0950004,5.45299939 45.2279991,5.34700045 45.408,5.257 C45.5880009,5.16699955 45.8079987,5.122 46.068,5.122 C46.5160022,5.122 46.836999,5.22599896 47.031,5.434 C47.225001,5.64200104 47.322,5.90199844 47.322,6.214 L47.322,8.164 C47.322,8.2040002 47.3090001,8.23699987 47.283,8.263 C47.2569999,8.28900013 47.2240002,8.302 47.184,8.302 L46.92,8.302 C46.8799998,8.302 46.8480001,8.28900013 46.824,8.263 C46.7999999,8.23699987 46.788,8.2040002 46.788,8.164 L46.788,7.9 C46.6999996,8.03200066 46.5720008,8.14199956 46.404,8.23 C46.2359992,8.31800044 46.0200013,8.362 45.756,8.362 Z M45.876,7.924 C46.1400013,7.924 46.3559992,7.83800086 46.524,7.666 C46.6920008,7.49399914 46.776,7.24400164 46.776,6.916 L46.776,6.748 L46.074,6.85 C45.7859986,6.8900002 45.5680007,6.95799952 45.42,7.054 C45.2719993,7.15000048 45.198,7.26999928 45.198,7.414 C45.198,7.57800082 45.2649993,7.70399956 45.399,7.792 C45.5330007,7.88000044 45.6919991,7.924 45.876,7.924 Z M49.44,8.362 C49.0119979,8.362 48.6780012,8.24100121 48.438,7.999 C48.1979988,7.75699879 48.0720001,7.41800218 48.06,6.982 L48.054,6.742 L48.06,6.502 C48.0720001,6.06599782 48.1979988,5.72700121 48.438,5.485 C48.6780012,5.24299879 49.0119979,5.122 49.44,5.122 C49.7280014,5.122 49.970999,5.17299949 50.169,5.275 C50.367001,5.37700051 50.5149995,5.50399924 50.613,5.656 C50.7110005,5.80800076 50.764,5.95999924 50.772,6.112 C50.776,6.14800018 50.7630001,6.17999986 50.733,6.208 C50.7029998,6.23600014 50.6700002,6.25 50.634,6.25 L50.37,6.25 C50.3299998,6.25 50.3000001,6.24100009 50.28,6.223 C50.2599999,6.20499991 50.2400001,6.17200024 50.22,6.124 C50.1479996,5.92799902 50.0490006,5.78900041 49.923,5.707 C49.7969994,5.62499959 49.638001,5.584 49.446,5.584 C49.1939987,5.584 48.9940007,5.66199922 48.846,5.818 C48.6979993,5.97400078 48.6180001,6.2119984 48.606,6.532 L48.6,6.742 L48.606,6.952 C48.6180001,7.2720016 48.6979993,7.50999922 48.846,7.666 C48.9940007,7.82200078 49.1939987,7.9 49.446,7.9 C49.642001,7.9 49.8019994,7.85900041 49.926,7.777 C50.0500006,7.69499959 50.1479996,7.55600098 50.22,7.36 C50.2400001,7.31199976 50.2599999,7.27900009 50.28,7.261 C50.3000001,7.24299991 50.3299998,7.234 50.37,7.234 L50.634,7.234 C50.6700002,7.234 50.7029998,7.24799986 50.733,7.276 C50.7630001,7.30400014 50.776,7.33599982 50.772,7.372 C50.764,7.52000074 50.7110005,7.66999924 50.613,7.822 C50.5149995,7.97400076 50.367001,8.10199948 50.169,8.206 C49.970999,8.31000052 49.7280014,8.362 49.44,8.362 Z M52.692,8.302 C52.0719969,8.302 51.762,7.9520035 51.762,7.252 L51.762,5.644 L51.288,5.644 C51.2479998,5.644 51.2160001,5.63200012 51.192,5.608 C51.1679999,5.58399988 51.156,5.5520002 51.156,5.512 L51.156,5.32 C51.156,5.2799998 51.1679999,5.24700013 51.192,5.221 C51.2160001,5.19499987 51.2479998,5.182 51.288,5.182 L51.762,5.182 L51.762,4.18 C51.762,4.1399998 51.7739999,4.10700013 51.798,4.081 C51.8220001,4.05499987 51.8539998,4.042 51.894,4.042 L52.158,4.042 C52.1980002,4.042 52.2309999,4.05499987 52.257,4.081 C52.2830001,4.10700013 52.296,4.1399998 52.296,4.18 L52.296,5.182 L53.04,5.182 C53.0800002,5.182 53.1129999,5.19499987 53.139,5.221 C53.1650001,5.24700013 53.178,5.2799998 53.178,5.32 L53.178,5.512 C53.178,5.5520002 53.1650001,5.58399988 53.139,5.608 C53.1129999,5.63200012 53.0800002,5.644 53.04,5.644 L52.296,5.644 L52.296,7.21 C52.296,7.41400102 52.3289997,7.56799948 52.395,7.672 C52.4610003,7.77600052 52.5739992,7.828 52.734,7.828 L53.1,7.828 C53.1400002,7.828 53.1719999,7.84099987 53.196,7.867 C53.2200001,7.89300013 53.232,7.9259998 53.232,7.966 L53.232,8.164 C53.232,8.2040002 53.2200001,8.23699987 53.196,8.263 C53.1719999,8.28900013 53.1400002,8.302 53.1,8.302 L52.692,8.302 Z M53.91,4.594 C53.8699998,4.594 53.8370001,4.58100013 53.811,4.555 C53.7849999,4.52899987 53.772,4.4960002 53.772,4.456 L53.772,4.144 C53.772,4.1039998 53.7849999,4.07000014 53.811,4.042 C53.8370001,4.01399986 53.8699998,4 53.91,4 L54.264,4 C54.3040002,4 54.3379999,4.01399986 54.366,4.042 C54.3940001,4.07000014 54.408,4.1039998 54.408,4.144 L54.408,4.456 C54.408,4.4960002 54.3940001,4.52899987 54.366,4.555 C54.3379999,4.58100013 54.3040002,4.594 54.264,4.594 L53.91,4.594 Z M53.958,8.302 C53.9179998,8.302 53.8850001,8.28900013 53.859,8.263 C53.8329999,8.23699987 53.82,8.2040002 53.82,8.164 L53.82,5.32 C53.82,5.2799998 53.8329999,5.24700013 53.859,5.221 C53.8850001,5.19499987 53.9179998,5.182 53.958,5.182 L54.222,5.182 C54.2620002,5.182 54.2949999,5.19499987 54.321,5.221 C54.3470001,5.24700013 54.36,5.2799998 54.36,5.32 L54.36,8.164 C54.36,8.2040002 54.3470001,8.23699987 54.321,8.263 C54.2949999,8.28900013 54.2620002,8.302 54.222,8.302 L53.958,8.302 Z M56.346,8.302 C56.2419995,8.302 56.1680002,8.2520005 56.124,8.152 L55.008,5.368 C55.004,5.35599994 55.002,5.33600014 55.002,5.308 C55.002,5.27199982 55.0139999,5.24200012 55.038,5.218 C55.0620001,5.19399988 55.0899998,5.182 55.122,5.182 L55.398,5.182 C55.4620003,5.182 55.5099998,5.21399968 55.542,5.278 L56.466,7.672 L57.39,5.278 C57.398,5.25399988 57.4149999,5.2320001 57.441,5.212 C57.4670001,5.1919999 57.4979998,5.182 57.534,5.182 L57.81,5.182 C57.8420002,5.182 57.8699999,5.19399988 57.894,5.218 C57.9180001,5.24200012 57.93,5.27199982 57.93,5.308 L57.918,5.368 L56.808,8.152 C56.7639998,8.2520005 56.6900005,8.302 56.586,8.302 L56.346,8.302 Z M59.316,8.362 C59.119999,8.362 58.9390008,8.3220004 58.773,8.242 C58.6069992,8.1619996 58.4750005,8.05300069 58.377,7.915 C58.2789995,7.77699931 58.23,7.62400084 58.23,7.456 C58.23,7.19199868 58.3379989,6.97600084 58.554,6.808 C58.7700011,6.63999916 59.0639981,6.52800028 59.436,6.472 L60.336,6.346 L60.336,6.172 C60.336,5.75999794 60.0980024,5.554 59.622,5.554 C59.4379991,5.554 59.2900006,5.59099963 59.178,5.665 C59.0659994,5.73900037 58.9840003,5.8259995 58.932,5.926 C58.9159999,5.9660002 58.8990001,5.99299993 58.881,6.007 C58.8629999,6.02100007 58.8380002,6.028 58.806,6.028 L58.572,6.028 C58.5359998,6.028 58.5050001,6.01500013 58.479,5.989 C58.4529999,5.96299987 58.44,5.93200018 58.44,5.896 C58.44,5.80399954 58.4829996,5.69700061 58.569,5.575 C58.6550004,5.45299939 58.7879991,5.34700045 58.968,5.257 C59.1480009,5.16699955 59.3679987,5.122 59.628,5.122 C60.0760022,5.122 60.396999,5.22599896 60.591,5.434 C60.785001,5.64200104 60.882,5.90199844 60.882,6.214 L60.882,8.164 C60.882,8.2040002 60.8690001,8.23699987 60.843,8.263 C60.8169999,8.28900013 60.7840002,8.302 60.744,8.302 L60.48,8.302 C60.4399998,8.302 60.4080001,8.28900013 60.384,8.263 C60.3599999,8.23699987 60.348,8.2040002 60.348,8.164 L60.348,7.9 C60.2599996,8.03200066 60.1320008,8.14199956 59.964,8.23 C59.7959992,8.31800044 59.5800013,8.362 59.316,8.362 Z M59.436,7.924 C59.7000013,7.924 59.9159992,7.83800086 60.084,7.666 C60.2520008,7.49399914 60.336,7.24400164 60.336,6.916 L60.336,6.748 L59.634,6.85 C59.3459986,6.8900002 59.1280007,6.95799952 58.98,7.054 C58.8319993,7.15000048 58.758,7.26999928 58.758,7.414 C58.758,7.57800082 58.8249993,7.70399956 58.959,7.792 C59.0930007,7.88000044 59.2519991,7.924 59.436,7.924 Z M62.922,8.302 C62.3019969,8.302 61.992,7.9520035 61.992,7.252 L61.992,5.644 L61.518,5.644 C61.4779998,5.644 61.4460001,5.63200012 61.422,5.608 C61.3979999,5.58399988 61.386,5.5520002 61.386,5.512 L61.386,5.32 C61.386,5.2799998 61.3979999,5.24700013 61.422,5.221 C61.4460001,5.19499987 61.4779998,5.182 61.518,5.182 L61.992,5.182 L61.992,4.18 C61.992,4.1399998 62.0039999,4.10700013 62.028,4.081 C62.0520001,4.05499987 62.0839998,4.042 62.124,4.042 L62.388,4.042 C62.4280002,4.042 62.4609999,4.05499987 62.487,4.081 C62.5130001,4.10700013 62.526,4.1399998 62.526,4.18 L62.526,5.182 L63.27,5.182 C63.3100002,5.182 63.3429999,5.19499987 63.369,5.221 C63.3950001,5.24700013 63.408,5.2799998 63.408,5.32 L63.408,5.512 C63.408,5.5520002 63.3950001,5.58399988 63.369,5.608 C63.3429999,5.63200012 63.3100002,5.644 63.27,5.644 L62.526,5.644 L62.526,7.21 C62.526,7.41400102 62.5589997,7.56799948 62.625,7.672 C62.6910003,7.77600052 62.8039992,7.828 62.964,7.828 L63.33,7.828 C63.3700002,7.828 63.4019999,7.84099987 63.426,7.867 C63.4500001,7.89300013 63.462,7.9259998 63.462,7.966 L63.462,8.164 C63.462,8.2040002 63.4500001,8.23699987 63.426,8.263 C63.4019999,8.28900013 63.3700002,8.302 63.33,8.302 L62.922,8.302 Z M65.286,8.362 C64.877998,8.362 64.5520012,8.23500127 64.308,7.981 C64.0639988,7.72699873 63.9300001,7.3800022 63.906,6.94 L63.9,6.736 L63.906,6.538 C63.9300001,6.10599784 64.0639988,5.76200128 64.308,5.506 C64.5520012,5.24999872 64.877998,5.122 65.286,5.122 C65.7260022,5.122 66.0669988,5.2619986 66.309,5.542 C66.5510012,5.8220014 66.672,6.2019976 66.672,6.682 L66.672,6.79 C66.672,6.8300002 66.6590001,6.86299987 66.633,6.889 C66.6069999,6.91500013 66.5740002,6.928 66.534,6.928 L64.452,6.928 L64.452,6.982 C64.4640001,7.2420013 64.5439993,7.46399908 64.692,7.648 C64.8400007,7.83200092 65.0359988,7.924 65.28,7.924 C65.4680009,7.924 65.6209994,7.88700037 65.739,7.813 C65.8570006,7.73899963 65.9459997,7.6620004 66.006,7.582 C66.0420002,7.53399976 66.0699999,7.50500005 66.09,7.495 C66.1100001,7.48499995 66.1439998,7.48 66.192,7.48 L66.456,7.48 C66.4920002,7.48 66.5229999,7.4899999 66.549,7.51 C66.5750001,7.5300001 66.588,7.55599984 66.588,7.588 C66.588,7.67600044 66.5340005,7.78199938 66.426,7.906 C66.3179995,8.03000062 66.165001,8.13699955 65.967,8.227 C65.768999,8.31700045 65.5420013,8.362 65.286,8.362 Z M66.126,6.52 L66.126,6.502 C66.126,6.2219986 66.0500008,5.99400088 65.898,5.818 C65.7459992,5.64199912 65.5420013,5.554 65.286,5.554 C65.0259987,5.554 64.8220007,5.64199912 64.674,5.818 C64.5259993,5.99400088 64.452,6.2219986 64.452,6.502 L64.452,6.52 L66.126,6.52 Z" id="Click-here-to-activa" stroke="none" fill="#000000" fill-rule="evenodd"></path>
                    </g>
                </g>
            </g>
        </g>
    </g>
</svg>