<?xml version="1.0" encoding="UTF-8"?>
<svg width="135px" height="132px" viewBox="0 0 135 132" version="1.1" xmlns="http://www.w3.org/2000/svg" xmlns:xlink="http://www.w3.org/1999/xlink">
    <!-- Generator: Sketch 51.3 (57544) - http://www.bohemiancoding.com/sketch -->
    <title>dino/preview</title>
    <desc>Created with Sketch.</desc>
    <defs>
        <rect id="path-1" x="2" y="2" width="131" height="128" rx="17"></rect>
        <path d="M63.7363374,78.7901142 C64.8472096,75.5575192 63.8139506,64.1106261 62.9433489,53.4639219 C69.0002178,50.5596262 71.6345835,44.8971093 70.846446,36.4763711 L67.6047627,35.6061953 C72.2931412,11.9506056 64.6615394,0.122810754 44.7099571,0.122810754 C14.7825837,0.122810754 13.665698,13.6987456 12.0803298,21.5826453 C10.4949616,29.466545 14.2845334,42.5845838 13.665698,60.9945505 C13.5430193,64.6441658 13.4100923,67.8451984 13.266917,70.5976483 C13.1660737,72.5362931 6.5202251,72.5353416 0.640173928,51.9759538 C-1.55427787,69.3930648 2.65463648,79.1165068 13.266917,81.14628 C20.5142248,81.7471342 25.7111712,82.0056419 28.857756,81.9218032 C39.4850549,81.6386456 47.7657995,81.14628 53.5000508,81.14628 C59.2343021,81.14628 62.6254652,82.0227093 63.7363374,78.7901142 Z" id="path-3"></path>
    </defs>
    <g id="dino/preview" stroke="none" stroke-width="1" fill="none" fill-rule="evenodd">
        <mask id="mask-2" fill="white">
            <use xlink:href="#path-1"></use>
        </mask>
        <g id="Rectangle-3" fill-rule="nonzero" fill="#FFFFFF">
            <use xlink:href="#path-1"></use>
            <rect stroke="#000000" stroke-width="2" fill-rule="evenodd" x="1" y="1" width="133" height="130" rx="17"></rect>
        </g>
        <g id="Group" mask="url(#mask-2)">
            <g transform="translate(18.000000, 51.000000)">
                <path d="M44,6.08933111 L40.6160841,0 L37.1971821,6.08933111 L34.4706135,0.43515707 L31.8297403,6.94400855 L29.5581366,1.36542834 L26.7233291,7.99661179 L23.1673435,3.58082263 L21.6274732,10.088182 L16.8013358,6.94400855 L17.2434236,13.5648738 L11.8527318,11.5193715 L14.0086969,19.2834079 L8.26565203,18.7619948 L11.8527318,25.9986244 L6,27.9401247 C9.78288223,30.9733837 11.5379787,32.4900132 11.2652894,32.4900132 C10.9926001,32.4900132 9.23750361,33.1797968 6,34.5593638 L11.8527318,39.4458144 L6,43.3714032 L12.555266,46.5648868 L6,50.0863188 L13.4715294,53.5046947 L8.26565203,55.7166091 L13.4715294,59.271105 L9.03844317,61.5043893 L13.4715294,64 L44,27.9401247 L44,6.08933111 Z" id="scale-body" stroke="#000000" fill="#0C7D1D"></path>
                <polygon id="scales-tail" stroke="#000000" fill="#0C7D1D" points="1 58 5.42701032 58.4118153 2.39735804 63.4666582 6.40041745 62.7487488 4.79550397 67.4472179 9 66.083278 7.80031045 73 1.63597833 66.083278"></polygon>
                <g id="body" stroke="none" fill="none" transform="translate(0.000000, 5.000000)">
                    <mask id="mask-4" fill="white">
                        <use xlink:href="#path-3"></use>
                    </mask>
                    <use id="body-mask" stroke="#000000" fill="#77E788" xlink:href="#path-3"></use>
                    <path d="M74.2895753,36.1605303 C52.8991908,38.1530308 34.6205682,38.9457167 19.4537075,38.5385882 C29.9278859,36.9532163 46.831885,35.866388 70.1657046,35.2781033 L74.2895753,36.1605303 Z" id="mouth" fill="#000000" mask="url(#mask-4)"></path>
                    <ellipse id="eye-left" fill="#000000" mask="url(#mask-4)" transform="translate(28.852317, 26.991667) rotate(-360.000000) translate(-28.852317, -26.991667) " cx="28.8523166" cy="26.9916667" rx="4.86583012" ry="4.85166667"></ellipse>
                    <ellipse id="eye-right" fill="#000000" mask="url(#mask-4)" transform="translate(59.075290, 29.246667) rotate(-360.000000) translate(-59.075290, -29.246667) " cx="59.0752896" cy="29.2466667" rx="3.28957529" ry="3.28"></ellipse>
                    <g id="nose" mask="url(#mask-4)" fill="#000000">
                        <g transform="translate(42.079151, 29.246667)">
                            <ellipse id="nostril-left" cx="1.23359073" cy="1.23" rx="1.23359073" ry="1.23"></ellipse>
                            <ellipse id="nostril-right" cx="4.7972973" cy="1.23" rx="1.23359073" ry="1.23"></ellipse>
                        </g>
                    </g>
                    <g id="arms" mask="url(#mask-4)" stroke="#000000">
                        <g transform="translate(20.559846, 56.170000)">
                            <path d="M2.0406313,1.39593355 C3.76230039,6.84308896 5.28924276,9.56666667 6.62145841,9.56666667 C7.95367406,9.56666667 8.61978188,6.84308896 8.61978188,1.39593355" id="arm-left" transform="translate(5.330207, 5.481300) rotate(-43.000000) translate(-5.330207, -5.481300) "></path>
                            <path d="M30.1535538,1.20061208 C31.8752228,6.64776749 33.4021652,9.3713452 34.7343809,9.3713452 C36.0665965,9.3713452 36.7327043,6.64776749 36.7327043,1.20061208" id="arm-right" transform="translate(33.443129, 5.285979) scale(-1, 1) rotate(-43.000000) translate(-33.443129, -5.285979) "></path>
                        </g>
                    </g>
                </g>
            </g>
        </g>
        <g id="fire" mask="url(#mask-2)">
            <g transform="translate(116.549968, 7.539719) rotate(26.000000) translate(-116.549968, -7.539719) translate(94.527937, -23.841675)">
                <g transform="translate(9.200000, 5.425837)">
                    <path d="M11.2935656,52.1564541 C24.1955008,50.8717917 30.2371351,36.6919567 21.7950691,22.0173862 C16.1670251,12.2343392 9.12906076,4.91724234 0.68117595,0.0660956454 C7.18337524,10.701654 9.12052681,18.6168678 6.49263066,23.8117371 C4.68071695,27.3935586 -1.60836948,53.4411165 11.2935656,52.1564541 Z" id="flame-1" fill="#F36E22"></path>
                    <path d="M5.08677231,50.1970687 C9.62731609,50.1970687 10.2338087,34.5199619 8.36262179,27.0764724 C7.11516383,22.114146 4.94404499,17.4867159 1.84926527,13.1941821 C3.32062916,19.380055 3.1352641,24.7673653 1.2931701,29.3561128 C-1.4699709,36.2392341 0.546228531,50.1970687 5.08677231,50.1970687 Z" id="flame-2" fill="#F36E22"></path>
                    <path d="M10.7190012,42.4798162 C10.149876,36.1747538 11.6574624,33.3316717 14.4848523,27.4197036 C16.3697789,23.4783915 16.0389791,18.7930358 13.4924529,13.3636364 C19.5295313,24.1431489 22.6663549,31.8411962 22.902924,36.4577782 C23.139493,41.0743602 20.6720275,45.3764857 15.5005274,49.3641547 C12.6922601,48.9779706 11.0984181,46.6831911 10.7190012,42.4798162 Z" id="flame-3" fill="#FFD04A"></path>
                    <path d="M11.8456389,49.543743 C14.2523229,46.8325651 8.8957564,33.4119853 8.82889411,33.2191902 C8.06608399,31.0196538 6.66373071,26.927804 4.62183426,20.9436408 C3.02124409,29.4890464 2.56518046,35.9656893 3.25364335,40.3735693 C4.28633768,46.9853894 8.80593095,52.9680351 11.8456389,49.543743 Z" id="flame-4" fill="#FEBA17"></path>
                    <path d="M17.3363431,47.2675324 C16.4335249,41.0866833 16.1835769,36.14006 16.5864992,32.4276623 C16.9894215,28.7152647 18.3677992,23.2648956 20.7216323,16.076555 C20.6501884,18.639364 20.6501884,20.1158877 20.7216323,20.5061261 C20.8287982,21.0914837 22.7787568,26.026353 23.110694,28.8325119 C23.4426312,31.6386707 24.1100874,32.8832302 21.629603,38.2845197 C19.9759468,41.8853794 18.5448601,44.879717 17.3363431,47.2675324 Z" id="flame-5" fill="#FEBA17"></path>
                </g>
            </g>
        </g>
        <g id="Group-2" mask="url(#mask-2)">
            <g transform="translate(85.000000, 10.000000)">
                <path d="M11.8391486,39.4362225 C22.7168009,43.0181129 34.7057898,29.943178 35.794208,24.0175129 C36.8826262,18.0918478 33.4052335,14.0432188 31.1861247,9.4128157 C28.9670159,4.78241254 27.8462053,1.71092724 19.2294573,0.276085548 C10.6127094,-1.15875614 5.90466493,3.09438786 1.97104285,10.8178598 C-1.96257922,18.5413317 1.0517428,21.1209929 1.97104285,26.1724367 C2.8903429,31.2238804 0.961496253,35.8543321 11.8391486,39.4362225 Z" id="Path-4" fill="#E07E50"></path>
                <ellipse id="Oval-2" fill="#601908" transform="translate(30.000000, 22.000000) rotate(-56.000000) translate(-30.000000, -22.000000) " cx="30" cy="22" rx="3" ry="2"></ellipse>
                <ellipse id="Oval" fill="#A12E0F" transform="translate(22.816483, 10.253499) rotate(27.000000) translate(-22.816483, -10.253499) " cx="22.8164831" cy="10.2534991" rx="2.5" ry="3.5"></ellipse>
                <ellipse id="Oval" fill="#B75B32" transform="translate(9.240018, 15.073719) rotate(-23.000000) translate(-9.240018, -15.073719) " cx="9.24001835" cy="15.073719" rx="2.96011195" ry="3.5"></ellipse>
                <ellipse id="Oval" fill="#B75B32" transform="translate(13.883775, 5.224973) rotate(59.000000) translate(-13.883775, -5.224973) " cx="13.8837747" cy="5.22497329" rx="1.67440506" ry="1.97979597"></ellipse>
                <ellipse id="Oval" fill="#A12E0F" transform="translate(18.271576, 33.893561) rotate(-41.000000) translate(-18.271576, -33.893561) " cx="18.271576" cy="33.8935608" rx="2.06675125" ry="2.60918445"></ellipse>
                <ellipse id="Oval" fill="#A12E0F" transform="translate(9.891695, 27.143481) rotate(52.000000) translate(-9.891695, -27.143481) " cx="9.89169491" cy="27.1434805" rx="1.35728731" ry="1.71351677"></ellipse>
                <ellipse id="Oval" fill="#B75B32" transform="translate(19.847105, 23.117048) rotate(-85.000000) translate(-19.847105, -23.117048) " cx="19.8471045" cy="23.1170485" rx="3.23655618" ry="4.6127999"></ellipse>
            </g>
        </g>
        <rect id="Rectangle-4" fill="#D8D8D8" fill-rule="nonzero" mask="url(#mask-2)" transform="translate(59.089141, 24.534712) rotate(-338.000000) translate(-59.089141, -24.534712) " x="39.441597" y="20.4569194" width="39.2950882" height="8.15558435"></rect>
        <rect id="Rectangle-4" fill="#D8D8D8" fill-rule="nonzero" mask="url(#mask-2)" transform="translate(114.663152, 56.514533) rotate(-370.000000) translate(-114.663152, -56.514533) " x="103.459091" y="52.8905077" width="22.4081223" height="7.24805117"></rect>
        <rect id="Rectangle-4" fill="#D8D8D8" fill-rule="nonzero" mask="url(#mask-2)" transform="translate(80.455145, 47.917868) rotate(-140.000000) translate(-80.455145, -47.917868) " x="74.0479099" y="44.6247772" width="12.8144706" height="6.58618079"></rect>
    </g>
</svg>