<?xml version="1.0" encoding="UTF-8"?>
<svg width="428px" height="319px" viewBox="0 0 428 319" version="1.1" xmlns="http://www.w3.org/2000/svg" xmlns:xlink="http://www.w3.org/1999/xlink">
    <!-- Generator: Sketch 51.3 (57544) - http://www.bohemiancoding.com/sketch -->
    <title>cat/head</title>
    <desc>Created with Sketch.</desc>
    <defs>
        <path d="M186.086704,0.944631673 C352.20294,-12.6485697 387.111219,123.827455 377.552579,193.729291 C367.99394,263.631128 244.808603,271 140.263849,271 C35.7190955,271 -7.84739788,195.304803 1.14979981,155.115132 C10.1469975,114.925462 19.9704685,14.537833 186.086704,0.944631673 Z" id="path-1"></path>
    </defs>
    <g id="cat/head" stroke="none" stroke-width="1" fill="none" fill-rule="evenodd">
        <g id="head-container" transform="translate(0.000000, 2.000000)">
            <g id="head-group">
                <g id="right-ear" transform="translate(290.000000, 0.000000)" fill-rule="nonzero" stroke="#000000" stroke-width="4">
                    <path d="M95.3847615,126.407982 C101.759184,58.6906357 96.7335322,18.3181322 80.3078062,5.29047177 C63.8820803,-7.73718864 37.408536,6.9363553 0.887173401,49.3111036 L95.3847615,126.407982 Z" id="right-ear-outer" fill="#FFE07B"></path>
                    <path d="M81.779776,106.653086 C86.3485495,55.293967 82.4020133,26.54217 69.9401675,20.3976953 C57.4783216,14.2532206 38.4641427,29.8028202 12.8976308,67.046494 L81.779776,106.653086 Z" id="right-ear-inner" fill="#FD9BAF"></path>
                </g>
                <g id="left-ear" transform="translate(89.500000, 73.500000) scale(-1, 1) translate(-89.500000, -73.500000) translate(40.000000, 10.000000)" fill-rule="nonzero" stroke="#000000" stroke-width="4">
                    <path d="M95.3847615,126.407982 C101.759184,58.6906357 96.7335322,18.3181322 80.3078062,5.29047177 C63.8820803,-7.73718864 37.408536,6.9363553 0.887173401,49.3111036 L95.3847615,126.407982 Z" id="left-ear-outer" fill="#FFE07B"></path>
                    <path d="M81.779776,106.653086 C86.3485495,55.293967 82.4020133,26.54217 69.9401675,20.3976953 C57.4783216,14.2532206 38.4641427,29.8028202 12.8976308,67.046494 L81.779776,106.653086 Z" id="left-ear-inner" fill="#FD9BAF"></path>
                </g>
                <g id="head" transform="translate(26.000000, 42.000000)">
                    <mask id="mask-2" fill="white">
                        <use xlink:href="#path-1"></use>
                    </mask>
                    <g id="head-mask" fill-rule="nonzero" fill="#FFE07B">
                        <use xlink:href="#path-1"></use>
                        <path stroke="#0B0F12" stroke-width="4" d="M185.92359,-1.04870571 C262.195612,-7.29000384 316.645977,17.3314419 349.345786,64.8932393 C375.053519,102.285077 385.201231,152.557104 379.534139,194.000257 C374.972815,227.356981 345.579446,248.64531 294.985175,260.524883 C255.723449,269.743566 207.509086,273 140.263849,273 C91.7783896,273 52.724241,256.820692 26.6811598,229.508888 C4.57930745,206.330314 -5.74673969,176.766401 -0.801891536,154.67821 C-0.205071969,152.012271 2.02648704,141.202128 2.1495045,140.62128 C3.50510554,134.220572 4.74055334,128.940034 6.18468689,123.595 C10.0195827,109.401264 14.880568,96.6710193 21.546158,84.5804833 C33.5970945,62.721611 50.8518126,44.4399222 74.8020779,30.1789788 C102.917382,13.4380048 139.536754,2.74710393 185.92359,-1.04870571 Z" fill-rule="evenodd"></path>
                    </g>
                    <g id="head-mark" mask="url(#mask-2)" fill="#E9B312" fill-rule="nonzero" stroke="#000000">
                        <g transform="translate(-3.000000, -12.000000)">
                            <path d="M372.546088,116 C363.515363,118.226279 359,120.825934 359,123.798966 C359,126.771997 364.972564,129.416305 376.917691,131.731889 L372.546088,116 Z" id="head-right-mark-1" transform="translate(367.958845, 123.865945) rotate(-9.000000) translate(-367.958845, -123.865945) "></path>
                            <path d="M378.666294,142.304629 C369.635569,144.530908 365.120207,147.130564 365.120207,150.103595 C365.120207,153.076626 371.09277,155.720934 383.037897,158.036519 L378.666294,142.304629 Z" id="head-right-mark-2" transform="translate(374.079052, 150.170574) rotate(2.000000) translate(-374.079052, -150.170574) "></path>
                            <path d="M157.889373,8.32270267 C148.858648,10.5489816 144.343285,13.1486368 144.343285,16.1216683 C144.343285,19.0946998 150.315849,21.7390076 162.260976,24.0545919 L157.889373,8.32270267 Z" id="head-top-mark-1" transform="translate(153.302130, 16.188647) scale(-1, 1) rotate(-80.000000) translate(-153.302130, -16.188647) "></path>
                            <path d="M192.889373,6.32270267 C183.858648,8.54898163 179.343285,11.1486368 179.343285,14.1216683 C179.343285,17.0946998 185.315849,19.7390076 197.260976,22.0545919 L192.889373,6.32270267 Z" id="head-top-mark-2" transform="translate(188.302130, 14.188647) scale(-1, 1) rotate(-80.000000) translate(-188.302130, -14.188647) "></path>
                            <path d="M222.889373,3.32270267 C213.858648,5.54898163 209.343285,8.14863684 209.343285,11.1216683 C209.343285,14.0946998 215.315849,16.7390076 227.260976,19.0545919 L222.889373,3.32270267 Z" id="head-top-mark-3" transform="translate(218.302130, 11.188647) scale(-1, 1) rotate(-101.000000) translate(-218.302130, -11.188647) "></path>
                            <path d="M21.5460878,120 C12.5153626,122.226279 8,124.825934 8,127.798966 C8,130.771997 13.9725636,133.416305 25.9176907,135.731889 L21.5460878,120 Z" id="head-left-mark-1" transform="translate(16.958845, 127.865945) scale(-1, 1) rotate(-9.000000) translate(-16.958845, -127.865945) "></path>
                            <path d="M14.6662944,150.304629 C5.63556918,152.530908 1.12020658,155.130564 1.12020658,158.103595 C1.12020658,161.076626 7.09277014,163.720934 19.0378972,166.036519 L14.6662944,150.304629 Z" id="head-left-mark-1" transform="translate(10.079052, 158.170574) scale(-1, 1) rotate(2.000000) translate(-10.079052, -158.170574) "></path>
                        </g>
                    </g>
                    <path d="M179.926,150.922 C178.549,152.388 178.891,153.261 182.794,158.243 L186.454,162.915 L185.532,164.766 C183.193,169.459 177.431,172.527 170.914,172.551 C168.816,172.559 167.967,173.638 168.735,175.323 C169.123,176.175 169.343,176.244 171.651,176.238 C178.753,176.22 185.769,172.776 188.574,167.933 C188.973,167.244 189.029,167.262 189.837,168.318 C193.558,173.184 197.564,175.3 203.076,175.313 L206.935,175.323 L207.29,174.32 C207.869,172.689 206.793,171.82 204.195,171.82 C199.707,171.82 195.742,169.675 192.761,165.635 C190.479,162.542 190.334,163.207 194.433,157.995 C198.186,153.224 198.545,152.254 197.073,150.871 C195.706,149.586 181.14,149.63 179.926,150.922" id="head-mouth" fill="#000000" mask="url(#mask-2)"></path>
                    <g id="Group-2" mask="url(#mask-2)">
                        <g transform="translate(65.000000, 115.000000)" id="Group">
                            <g transform="translate(178.000000, 0.000000)">
                                <path d="M29.3460017,0.561206074 C1.87003628,5.48032669 -9.58361003,39.2201256 9.31104093,59.5773064 C28.5312823,80.2859588 63.6132776,71.4428126 70.0135823,44.2771655 C75.9202979,19.2025525 54.4060565,-3.92487769 29.3460017,0.561206074" id="head-right-eye" fill="#000000"></path>
                                <g id="head-right-glare" transform="translate(21.000000, 15.000000)" fill="#FFFFFF" fill-rule="nonzero">
                                    <ellipse id="head-right-glare-2" cx="6.61764706" cy="6.75" rx="6.61764706" ry="6.75"></ellipse>
                                    <ellipse id="head-right-glare-1" cx="22.0588235" cy="12" rx="2.94117647" ry="3"></ellipse>
                                </g>
                            </g>
                            <g>
                                <path d="M29.3460017,0.561206074 C1.87003628,5.48032669 -9.58361003,39.2201256 9.31104093,59.5773064 C28.5312823,80.2859588 63.6132776,71.4428126 70.0135823,44.2771655 C75.9202979,19.2025525 54.4060565,-3.92487769 29.3460017,0.561206074" id="head-right-eye" fill="#000000"></path>
                                <g id="head-right-glare" transform="translate(21.000000, 15.000000)" fill="#FFFFFF" fill-rule="nonzero">
                                    <ellipse id="head-right-glare-2" cx="6.61764706" cy="6.75" rx="6.61764706" ry="6.75"></ellipse>
                                    <ellipse id="head-right-glare-1" cx="22.0588235" cy="12" rx="2.94117647" ry="3"></ellipse>
                                </g>
                            </g>
                        </g>
                    </g>
                </g>
                <g id="whisker" transform="translate(0.000000, 204.000000)" fill="#000000">
                    <g id="whisker-right" transform="translate(383.000000, 0.000000)">
                        <path d="M10.926,20.7592273 C3.235,22.1958182 0.587,23.6451136 1.616,25.8517955 C2.156,27.0108409 3.066,26.9531818 7.811,25.4628409 C18.059,22.2437045 29.934,25.0504318 38.153,32.6340682 C39.832,34.185 42.097,33.7784545 42.097,31.9265227 C42.097,29.5488182 32.211,23.1115227 25.807,21.3192045 C22.331,20.3458409 14.678,20.0585227 10.926,20.7592273" id="whisker-right-2"></path>
                        <path d="M21.636,1.204 C12.549,2.49497727 -0.909,10.3551818 0.279,13.6769318 C0.941,15.5259318 2.247,15.222 5.879,12.3742273 C15.486,4.84140909 25.972,2.79109091 39.153,5.86852273 C42.597,6.67281818 43.753,6.58290909 44.046,5.48934091 C44.453,3.96675 43.934,3.34129545 41.777,2.75590909 C40.635,2.44709091 39.455,2.11384091 39.155,2.01709091 C36.06,1.01929545 26.168,0.559977273 21.636,1.204" id="whisker-right-1"></path>
                    </g>
                    <g id="whisker-left" transform="translate(0.000000, 11.727273)">
                        <path d="M8.724,1.54018182 C2.75,2.78522727 1.01,3.49179545 0.863,4.73293182 C0.584,7.08425 1.678,7.19663636 8.171,5.48054545 C19.804,2.40702273 31.751,4.96356818 40.12,12.3175455 C44.254,15.9490909 46.544,13.3153409 42.517,9.56163636 C34.096,1.71120455 21.846,-1.19618182 8.724,1.54018182" id="path0-path"></path>
                        <path d="M21.52,18.6913182 C14.757,19.7106136 4.115,25.8342045 4.115,28.7064091 C4.115,31.1095227 6.04,31.1495909 8.845,28.8051136 C17.355,21.6935 28.275,20.2451818 39.186,24.7826591 C42.252,26.058 42.857,26.1088182 43.733,25.1628182 C46.797,21.8537727 31.026,17.2586364 21.52,18.6913182" id="path0-path"></path>
                    </g>
                </g>
            </g>
        </g>
    </g>
</svg>