<?xml version="1.0" encoding="UTF-8"?>
<svg width="135px" height="132px" viewBox="0 0 135 132" version="1.1" xmlns="http://www.w3.org/2000/svg" xmlns:xlink="http://www.w3.org/1999/xlink">
    <!-- Generator: Sketch 51.3 (57544) - http://www.bohemiancoding.com/sketch -->
    <title>cat/how-to-step-2</title>
    <desc>Created with Sketch.</desc>
    <defs>
        <rect id="path-1" x="2" y="2" width="131" height="128" rx="17"></rect>
        <rect id="path-3" x="2" y="2" width="131" height="128" rx="17"></rect>
        <rect id="path-5" x="0" y="0" width="87" height="96"></rect>
        <path d="M21.124158,0.107232533 C39.9813118,-1.43583812 43.9440238,14.0566234 42.8589478,21.9917279 C41.7738718,29.9268324 27.7901402,30.7633307 15.9224471,30.7633307 C4.05475404,30.7633307 -0.890819542,22.1705765 0.130522775,17.6083325 C1.15186509,13.0460885 2.26700415,1.65030319 21.124158,0.107232533 Z" id="path-7"></path>
    </defs>
    <g id="cat/how-to-step-2" stroke="none" stroke-width="1" fill="none" fill-rule="evenodd">
        <mask id="mask-2" fill="white">
            <use xlink:href="#path-1"></use>
        </mask>
        <rect stroke="#000000" stroke-width="2" x="1" y="1" width="133" height="130" rx="17"></rect>
        <g id="Group" mask="url(#mask-2)" fill-rule="nonzero">
            <g transform="translate(16.000000, 14.000000)" id="Oval-4">
                <circle fill="#FF6259" cx="5.5" cy="5.5" r="5.5"></circle>
                <circle fill="#FFBF2F" cx="20.5" cy="5.5" r="5.5"></circle>
                <circle fill="#29CC41" cx="35.5" cy="5.5" r="5.5"></circle>
            </g>
        </g>
        <path d="" id="Path-15" stroke="#979797" fill-rule="nonzero" mask="url(#mask-2)"></path>
        <mask id="mask-4" fill="white">
            <use xlink:href="#path-3"></use>
        </mask>
        <use id="Rectangle-3" fill-opacity="0.300158514" fill="#0D0D0D" fill-rule="nonzero" xlink:href="#path-3"></use>
        <circle id="Oval-3" fill="#FFE07B" fill-rule="nonzero" mask="url(#mask-4)" cx="109.5" cy="19.5" r="7.5"></circle>
        <g id="Shape" mask="url(#mask-4)">
            <g transform="translate(24.000000, 20.000000)">
                <mask id="mask-6" fill="white">
                    <use xlink:href="#path-5"></use>
                </mask>
                <g id="Mask" stroke="none" fill="none" fill-rule="nonzero">
                    <use fill="#FFFFFF" xlink:href="#path-5"></use>
                    <rect stroke="#DFDFDF" stroke-width="1" fill="#FFFFFF" fill-rule="evenodd" x="-0.5" y="-0.5" width="88" height="97"></rect>
                </g>
                <path d="M81.4527132,-8 C66.4124031,18.5317829 42.5844961,46.4155039 42.5844961,46.4155039 C42.5844961,46.4155039 70.4682171,22.5875969 97,7.54728682 L97,22.4186047 C71.820155,36.1069767 42.5844961,46.4155039 42.5844961,46.4155039 C42.5844961,46.4155039 69.7922481,41.3457364 97,40.1627907 L97,52.8372093 C69.7922481,51.6542636 42.5844961,46.5844961 42.5844961,46.5844961 C42.5844961,46.5844961 71.820155,56.8930233 97,70.5813953 L97,85.4527132 C70.4682171,70.4124031 42.5844961,46.5844961 42.5844961,46.5844961 C42.5844961,46.5844961 66.4124031,74.4682171 81.4527132,101 L66.5813953,101 C52.8930233,75.820155 42.5844961,46.7534884 42.5844961,46.5844961 C42.5844961,46.5844961 47.6542636,73.7922481 48.8372093,101 L36.3317829,101 C37.5147287,73.7922481 42.5844961,46.7534884 42.5844961,46.5844961 C42.5844961,46.5844961 32.275969,75.820155 18.5875969,101 L3.54728682,101 C18.5875969,74.4682171 42.2465116,46.5844961 42.4155039,46.5844961 C42.4155039,46.5844961 14.5317829,70.4124031 -12,85.4527132 L-12,70.5813953 C13.179845,56.8930233 42.2465116,46.5844961 42.4155039,46.5844961 C42.4155039,46.5844961 15.2077519,51.6542636 -12,52.8372093 L-12,40.3317829 C15.2077519,41.5147287 42.2465116,46.5844961 42.4155039,46.5844961 C42.4155039,46.5844961 13.179845,36.275969 -12,22.5875969 L-12,7.71627907 C14.5317829,22.7565891 42.4155039,46.4155039 42.4155039,46.5844961 C42.4155039,46.5844961 18.5875969,18.7007752 3.54728682,-7.83100775 L18.4186047,-7.83100775 C32.1069767,17.3488372 42.4155039,46.5844961 42.4155039,46.5844961 C42.4155039,46.5844961 37.3457364,19.3767442 36.1627907,-7.83100775 L48.6682171,-7.83100775 C47.4852713,19.3767442 42.4155039,46.5844961 42.4155039,46.5844961 C42.4155039,46.5844961 52.724031,17.3488372 66.4124031,-7.83100775 L81.4527132,-7.83100775 L81.4527132,-8 Z" id="Shape" stroke="none" fill="#FFDA6B" fill-rule="nonzero" mask="url(#mask-6)"></path>
                <g id="Group-11" stroke="none" stroke-width="1" fill="none" fill-rule="evenodd" mask="url(#mask-6)">
                    <g transform="translate(18.000000, 29.000000)">
                        <g id="Group-3" stroke="none" stroke-width="1" fill-rule="evenodd" transform="translate(3.488372, 0.000000)">
                            <g id="Group" transform="translate(29.651163, 0.000000)" fill-rule="nonzero" stroke="#000000" stroke-width="0.4">
                                <path d="M9.52279156,12.6773807 C10.1591856,5.88604863 9.65744683,1.83711448 8.01757521,0.530578239 C6.37770358,-0.775958005 3.73470233,0.69564291 0.0885714577,4.94538098 L9.52279156,12.6773807 Z" id="Path-2" fill="#FFE07B"></path>
                                <path d="M8.16453014,10.696174 C8.62065622,5.54539876 8.22665156,2.6618983 6.98251613,2.04567262 C5.73838071,1.42944694 3.84008942,2.98890695 1.28764226,6.72405264 L8.16453014,10.696174 Z" id="Path-3" fill="#FD9BAF"></path>
                            </g>
                            <g id="Group" transform="translate(8.953488, 7.081395) scale(-1, 1) translate(-8.953488, -7.081395) translate(3.953488, 0.581395)" fill-rule="nonzero" stroke="#000000" stroke-width="0.4">
                                <path d="M9.52279156,12.6773807 C10.1591856,5.88604863 9.65744683,1.83711448 8.01757521,0.530578239 C6.37770358,-0.775958005 3.73470233,0.69564291 0.0885714577,4.94538098 L9.52279156,12.6773807 Z" id="Path-2" fill="#FFE07B"></path>
                                <path d="M8.16453014,10.696174 C8.62065622,5.54539876 8.22665156,2.6618983 6.98251613,2.04567262 C5.73838071,1.42944694 3.84008942,2.98890695 1.28764226,6.72405264 L8.16453014,10.696174 Z" id="Path-3" fill="#FD9BAF"></path>
                            </g>
                            <g id="Group-5" transform="translate(0.000000, 4.651163)">
                                <mask id="mask-8" fill="white">
                                    <use xlink:href="#path-7"></use>
                                </mask>
                                <g id="head-mask" fill-rule="nonzero" fill="#FFE07B">
                                    <use xlink:href="#path-7"></use>
                                    <path stroke="#0B0F12" stroke-width="0.4" d="M21.1078466,-0.0921012049 C29.7566118,-0.799824968 35.9282858,1.99089163 39.6346957,7.38185622 C42.5489683,11.6206589 43.6995482,17.3206614 43.0571037,22.0188245 C42.5412047,25.7915673 39.2135699,28.2016273 33.4798957,29.5478983 C29.0255623,30.5937791 23.5540279,30.9633307 15.9224471,30.9633307 C10.4257642,30.9633307 5.9995233,29.1296326 3.04835338,26.0346926 C0.545237798,23.4096344 -0.623840952,20.0625121 -0.0646463605,17.5646403 C0.00316149334,17.2617487 0.256533406,16.0343617 0.270456053,15.9686235 C0.424246285,15.2424759 0.564384904,14.643497 0.728172013,14.0372873 C1.16297303,12.4279996 1.71402622,10.9848679 2.469549,9.61444526 C5.47387201,4.16498388 11.2715841,0.712794815 21.1078466,-0.0921012049 Z" fill-rule="evenodd"></path>
                                </g>
                                <g id="Group-4" mask="url(#mask-8)" fill="#E9B312" fill-rule="nonzero" stroke="#000000" stroke-width="0.3">
                                    <g transform="translate(17.441860, -1.162791)">
                                        <path d="M3.56753932,0.749634187 C3.66820496,1.90259528 3.93251355,2.43674417 4.36046512,2.35208086 C4.78841668,2.26741756 5.26277574,1.5871352 5.7835423,0.311233782" id="Path-11"></path>
                                        <path d="M7.22708436,0 C6.89329746,1.53197579 6.89329746,2.29796369 7.22708436,2.29796369 C7.56087127,2.29796369 8.13068115,1.53197579 8.93651402,0" id="Path-12"></path>
                                        <path d="M1.95641145,0.801210706 C2.29369941,1.95958834 2.29369941,2.57467662 1.95641145,2.64647555 C1.61912349,2.71827447 1.01739744,2.23127639 0.151233307,1.1854813" id="Path-13"></path>
                                    </g>
                                </g>
                            </g>
                        </g>
                        <g id="Group-6" stroke="none" stroke-width="1" fill-rule="evenodd" transform="translate(22.674419, 21.511628)">
                            <path d="M5.47244414,3.59977699 C3.07506862,3.59977699 4.93113761,2.03966901 2.73622207,2.03966901 C0.541306532,2.03966901 2.39737552,3.59977699 0,3.59977699 C2.39737552,3.59977699 2.39737552,5.03186877 2.73622207,5.03186877 C3.07506862,5.03186877 3.07506862,3.59977699 5.47244414,3.59977699 Z" id="head-face-mouth-open" stroke="#000000" stroke-width="0.3" fill="#000000" fill-rule="nonzero" stroke-linecap="round" stroke-linejoin="round" transform="translate(2.736222, 3.535769) rotate(-180.000000) translate(-2.736222, -3.535769) "></path>
                            <path d="M2.70600156,-2.38421317e-15 L2.70600156,-2.33146835e-15 C3.20958607,-2.42397532e-15 3.61782197,0.408235903 3.61782197,0.911820409 C3.61782197,1.0549045 3.58414883,1.19598038 3.5195256,1.32363967 L3.15107323,2.05149502 L2.26092989,2.05149502 L1.89247753,1.32363967 C1.66503603,0.874342757 1.84488538,0.325737876 2.2941823,0.0982963762 C2.42184159,0.033673139 2.56291747,-2.30518423e-15 2.70600156,-2.33146835e-15 Z" id="head-face-nose" fill="#000000" fill-rule="nonzero"></path>
                        </g>
                        <g id="Group-9" stroke="none" stroke-width="1" fill-rule="evenodd" transform="translate(12.790698, 17.860465)">
                            <g id="Group-8">
                                <path d="M2.55207813,0.0619627141 C0.440918495,0.462763313 -0.668239639,2.95572699 0.431420216,4.82862698 C1.69816951,6.986074 4.94872123,6.89697747 6.04423395,4.67491541 C7.24516418,2.23867385 5.21467303,-0.443586506 2.55207813,0.0619627141" id="head-left-eye" fill="#000000"></path>
                                <g id="Group-7" transform="translate(1.744186, 1.744186)" fill="#FFFFFF" fill-rule="nonzero">
                                    <circle id="head-left-glare-2" cx="0.581395349" cy="0.581395349" r="1"></circle>
                                    <ellipse id="head-left-glare-1" cx="1.60738714" cy="1.25" rx="1" ry="1"></ellipse>
                                </g>
                            </g>
                            <g id="Group-8" transform="translate(19.186047, 0.000000)">
                                <path d="M2.55207813,0.0619627141 C0.440918495,0.462763313 -0.668239639,2.95572699 0.431420216,4.82862698 C1.69816951,6.986074 4.94872123,6.89697747 6.04423395,4.67491541 C7.24516418,2.23867385 5.21467303,-0.443586506 2.55207813,0.0619627141" id="head-left-eye" fill="#000000"></path>
                                <g id="Group-7" transform="translate(1.744186, 1.744186)" fill="#FFFFFF" fill-rule="nonzero">
                                    <circle id="head-left-glare-2" cx="0.581395349" cy="0.581395349" r="1"></circle>
                                    <ellipse id="head-left-glare-1" cx="1.60738714" cy="1.25" rx="1" ry="1"></ellipse>
                                </g>
                            </g>
                        </g>
                        <path d="M44.6011009,24.8396734 C45.7334437,24.837774 46.6614743,24.7156418 47.3851928,24.4732769 C48.1089113,24.2309119 48.7447314,23.8279549 49.292653,23.2644058" id="Path-17" stroke="#000000" stroke-width="0.5" stroke-linecap="round" stroke-linejoin="round" fill-rule="nonzero"></path>
                        <path d="M44.7674419,26.5752675 C45.8997846,26.5733682 46.8278153,26.451236 47.5515338,26.208871 C48.2752523,25.9665061 48.9110724,25.5635491 49.458994,25" id="Path-17" stroke="#000000" stroke-width="0.5" stroke-linecap="round" stroke-linejoin="round" fill-rule="nonzero" transform="translate(47.113218, 25.787634) rotate(18.000000) translate(-47.113218, -25.787634) "></path>
                        <path d="M0.166340979,24.2496861 C1.29868375,24.2477868 2.22671439,24.1256546 2.95043291,23.8832897 C3.67415143,23.6409247 4.3099715,23.2379677 4.85789313,22.6744186" id="Path-17" stroke="#000000" stroke-width="0.5" stroke-linecap="round" stroke-linejoin="round" fill-rule="nonzero" transform="translate(2.512117, 23.462052) scale(-1, 1) translate(-2.512117, -23.462052) "></path>
                        <path d="M0.294922745,26.6802073 C1.42726551,26.6783079 2.35529616,26.5561758 3.07901468,26.3138108 C3.8027332,26.0714459 4.43855327,25.6684889 4.9864749,25.1049398" id="Path-17" stroke="#000000" stroke-width="0.5" stroke-linecap="round" stroke-linejoin="round" fill-rule="nonzero" transform="translate(2.640699, 25.892574) scale(-1, 1) rotate(18.000000) translate(-2.640699, -25.892574) "></path>
                    </g>
                </g>
                <g id="Group-2" stroke="none" stroke-width="1" fill="none" fill-rule="evenodd" mask="url(#mask-6)">
                    <g transform="translate(6.000000, 75.000000)">
                        <rect id="Rectangle" stroke="#DFDFDF" stroke-width="1" fill="#FFFFFF" fill-rule="nonzero" x="0.5" y="0.5" width="75" height="12" rx="6"></rect>
                        <text id="Click-here-to-activa" stroke="none" fill="none" font-family="Rubik-Regular, Rubik" font-size="6" font-weight="normal">
                            <tspan x="9.343" y="8.5" fill="#000000">Click here to activate</tspan>
                        </text>
                    </g>
                </g>
            </g>
        </g>
    </g>
</svg>