<?xml version="1.0" encoding="UTF-8"?>
<svg width="135px" height="132px" viewBox="0 0 135 132" version="1.1" xmlns="http://www.w3.org/2000/svg" xmlns:xlink="http://www.w3.org/1999/xlink">
    <!-- Generator: Sketch 51.3 (57544) - http://www.bohemiancoding.com/sketch -->
    <title>cat/how-to-step-3</title>
    <desc>Created with Sketch.</desc>
    <defs>
        <rect id="path-1" x="2" y="2" width="131" height="128" rx="17"></rect>
        <path d="M36.3335517,0.184439957 C68.7678563,-2.46964157 75.5837209,24.1773922 73.7173902,37.8257719 C71.8510594,51.4741517 47.7990411,52.9129288 27.386609,52.9129288 C6.97417696,52.9129288 -1.53220961,38.1333916 0.224499172,30.2863319 C1.98120796,22.4392723 3.89924714,2.83852149 36.3335517,0.184439957 Z" id="path-3"></path>
        <linearGradient x1="50.7578127%" y1="-0.749999995%" x2="50.7578127%" y2="100.25%" id="linearGradient-5">
            <stop stop-color="#AE2323" offset="0%"></stop>
            <stop stop-color="#FDF953" offset="16.1217486%"></stop>
            <stop stop-color="#7CFD53" offset="29.4549314%"></stop>
            <stop stop-color="#53FDE2" offset="47.5247532%"></stop>
            <stop stop-color="#516FEC" offset="64.3199061%"></stop>
            <stop stop-color="#B851EC" offset="82.0086705%"></stop>
            <stop stop-color="#EC5151" offset="100%"></stop>
        </linearGradient>
    </defs>
    <g id="cat/how-to-step-3" stroke="none" stroke-width="1" fill="none" fill-rule="evenodd">
        <mask id="mask-2" fill="white">
            <use xlink:href="#path-1"></use>
        </mask>
        <rect stroke="#000000" stroke-width="2" x="1" y="1" width="133" height="130" rx="17"></rect>
        <g id="Group" mask="url(#mask-2)" fill-rule="nonzero">
            <g transform="translate(16.000000, 14.000000)" id="Oval-4">
                <circle fill="#FF6259" cx="5.5" cy="5.5" r="5.5"></circle>
                <circle fill="#FFBF2F" cx="20.5" cy="5.5" r="5.5"></circle>
                <circle fill="#29CC41" cx="35.5" cy="5.5" r="5.5"></circle>
            </g>
        </g>
        <g id="Group-2" mask="url(#mask-2)" fill="#D8D8D8" fill-rule="nonzero">
            <g transform="translate(15.000000, 42.000000)" id="Rectangle-4">
                <rect transform="translate(27.500000, 12.500000) rotate(-345.000000) translate(-27.500000, -12.500000) " x="1" y="7" width="53" height="11"></rect>
                <rect x="1" y="23" width="97" height="11"></rect>
                <rect x="1" y="39" width="27" height="11"></rect>
                <rect x="33" y="39" width="27" height="11"></rect>
            </g>
        </g>
        <g id="head-left-glare" mask="url(#mask-2)">
            <g transform="translate(42.000000, 45.000000)"></g>
        </g>
        <g id="Group-11" mask="url(#mask-2)">
            <g transform="translate(25.000000, 81.000000)">
                <g id="Group-3" stroke="none" fill-rule="evenodd" transform="translate(6.000000, 0.000000)">
                    <g id="Group" transform="translate(51.000000, 0.000000)" fill-rule="nonzero" stroke="#000000">
                        <path d="M16.3792015,21.8050948 C17.4737993,10.1240036 16.6108086,3.15983691 13.7902294,0.912594571 C10.9696502,-1.33464777 6.423688,1.19650581 0.152342907,8.50605529 L16.3792015,21.8050948 Z" id="Path-2" fill="#FFE07B"></path>
                        <path d="M14.0429918,18.3974193 C14.8275287,9.53808587 14.1498407,4.57846508 12.0099278,3.51855691 C9.87001483,2.45864874 6.6049538,5.14091995 2.21474468,11.5653705 L14.0429918,18.3974193 Z" id="Path-3" fill="#FD9BAF"></path>
                    </g>
                    <g id="Group" transform="translate(15.500000, 11.953608) scale(-1, 1) translate(-15.500000, -11.953608) translate(7.000000, 1.000000)" fill-rule="nonzero" stroke="#000000">
                        <path d="M16.3792015,21.8050948 C17.4737993,10.1240036 16.6108086,3.15983691 13.7902294,0.912594571 C10.9696502,-1.33464777 6.423688,1.19650581 0.152342907,8.50605529 L16.3792015,21.8050948 Z" id="Path-2" fill="#FFE07B"></path>
                        <path d="M14.0429918,18.3974193 C14.8275287,9.53808587 14.1498407,4.57846508 12.0099278,3.51855691 C9.87001483,2.45864874 6.6049538,5.14091995 2.21474468,11.5653705 L14.0429918,18.3974193 Z" id="Path-3" fill="#FD9BAF"></path>
                    </g>
                    <g id="Group-5" transform="translate(0.000000, 8.000000)">
                        <mask id="mask-4" fill="white">
                            <use xlink:href="#path-3"></use>
                        </mask>
                        <g id="head-mask" fill-rule="nonzero" fill="#FFE07B">
                            <use xlink:href="#path-3"></use>
                            <path stroke="#0B0F12" stroke-width="1" d="M36.2927733,-0.313894388 C51.2232861,-1.53565015 61.8928798,3.28894239 68.3002258,12.6084122 C73.3359322,19.9328355 75.3228134,29.7758965 74.21278,37.8935134 C73.3145135,44.4624898 67.5388393,48.6455575 57.6210797,50.9742548 C49.9447833,52.776655 40.524193,53.4129288 27.386609,53.4129288 C17.8903019,53.4129288 10.236193,50.2419932 5.13026805,44.8873264 C0.791219424,40.3368954 -1.23755083,34.5284396 -0.263423665,30.1771014 C-0.147129948,29.6576279 0.288380151,27.547925 0.312569612,27.4337102 C0.577634961,26.1821577 0.819289224,25.1492816 1.10185584,24.1034447 C1.8527603,21.3241933 2.80492996,18.8305933 4.11101003,16.4615295 C9.30481781,7.04062014 19.3242886,1.0746275 36.2927733,-0.313894388 Z" fill-rule="evenodd"></path>
                        </g>
                        <g id="Group-4" mask="url(#mask-4)" fill="#E9B312" fill-rule="nonzero" stroke="#000000" stroke-width="0.5">
                            <g transform="translate(30.000000, -2.000000)">
                                <path d="M6.13616763,1.2893708 C6.30931252,3.27246388 6.76392331,4.19119997 7.5,4.04557909 C8.23607669,3.8999582 9.05197427,2.72987254 9.94769276,0.535322105" id="Path-11"></path>
                                <path d="M12.4305851,0 C11.8564716,2.63499836 11.8564716,3.95249754 12.4305851,3.95249754 C13.0046986,3.95249754 13.9847716,2.63499836 15.3708041,0" id="Path-12"></path>
                                <path d="M3.36502769,1.37808241 C3.94516298,3.37049195 3.94516298,4.42844379 3.36502769,4.55193794 C2.7848924,4.67543208 1.7499236,3.83779538 0.260121288,2.03902784" id="Path-13"></path>
                            </g>
                        </g>
                    </g>
                </g>
                <g id="Group-6" stroke="none" fill-rule="evenodd" transform="translate(39.000000, 37.000000)">
                    <path d="M9.41260393,6.19161642 C5.28911803,6.19161642 8.48155669,3.5082307 4.70630196,3.5082307 C0.931047235,3.5082307 4.1234859,6.19161642 0,6.19161642 C4.1234859,6.19161642 4.1234859,8.65481429 4.70630196,8.65481429 C5.28911803,8.65481429 5.28911803,6.19161642 9.41260393,6.19161642 Z" id="head-face-mouth-open" stroke="#000000" fill="#000000" fill-rule="nonzero" stroke-linecap="round" stroke-linejoin="round" transform="translate(4.706302, 6.081522) rotate(-180.000000) translate(-4.706302, -6.081522) "></path>
                    <path d="M4.65432269,-2.18238126e-15 L4.65432269,-2.22044605e-15 C5.52048804,-2.37955804e-15 6.22265379,0.702165753 6.22265379,1.5683311 C6.22265379,1.81443575 6.164736,2.05708625 6.05358403,2.27666024 L5.41984596,3.52857143 L3.88879942,3.52857143 L3.25506135,2.27666024 C2.86386197,1.50386954 3.17320286,0.560269146 3.94599356,0.169069767 C4.16556754,0.057917799 4.40821805,-2.17523736e-15 4.65432269,-2.22044605e-15 Z" id="head-face-nose" fill="#000000" fill-rule="nonzero"></path>
                </g>
                <g id="Group-9" stroke="none" fill-rule="evenodd" transform="translate(22.000000, 29.000000)">
                    <g id="Group-8">
                        <path d="M4.38957438,0.106575868 C0.758379811,0.795952899 -1.14937218,5.08385042 0.742042771,8.30523841 C2.92085155,12.0160473 8.51180051,11.8628013 10.3960824,8.0408545 C12.4616824,3.85051902 8.96923761,-0.762968791 4.38957438,0.106575868" id="head-left-eye" fill="#000000"></path>
                        <g id="Group-7" transform="translate(3.000000, 3.000000)" fill="#FFFFFF" fill-rule="nonzero">
                            <circle id="head-left-glare-2" cx="1" cy="1" r="1"></circle>
                            <ellipse id="head-left-glare-1" cx="2.76470588" cy="2.15" rx="1" ry="1"></ellipse>
                        </g>
                    </g>
                    <g id="Group-8" transform="translate(33.000000, 0.000000)">
                        <path d="M4.38957438,0.106575868 C0.758379811,0.795952899 -1.14937218,5.08385042 0.742042771,8.30523841 C2.92085155,12.0160473 8.51180051,11.8628013 10.3960824,8.0408545 C12.4616824,3.85051902 8.96923761,-0.762968791 4.38957438,0.106575868" id="head-left-eye" fill="#000000"></path>
                        <g id="Group-7" transform="translate(3.000000, 3.000000)" fill="#FFFFFF" fill-rule="nonzero">
                            <circle id="head-left-glare-2" cx="1" cy="1" r="1"></circle>
                            <ellipse id="head-left-glare-1" cx="2.76470588" cy="2.15" rx="1" ry="1"></ellipse>
                        </g>
                    </g>
                </g>
                <path d="M76.7138935,42.7242382 C78.6615231,42.7209713 80.2577358,42.510904 81.5025316,42.0940362 C82.7473275,41.6771685 83.840938,40.9840825 84.7833632,40.014778" id="Path-17" stroke="#000000" stroke-linecap="round" stroke-linejoin="round" fill-rule="nonzero"></path>
                <path d="M77,45.7094602 C78.9476296,45.7061932 80.5438423,45.4961259 81.7886381,45.0792582 C83.033434,44.6623905 84.1270445,43.9693044 85.0694697,43" id="Path-17" stroke="#000000" stroke-linecap="round" stroke-linejoin="round" fill-rule="nonzero" transform="translate(81.034735, 44.354730) rotate(18.000000) translate(-81.034735, -44.354730) "></path>
                <path d="M0.286106485,41.7094602 C2.23373605,41.7061932 3.82994876,41.4961259 5.07474461,41.0792582 C6.31954046,40.6623905 7.41315099,39.9693044 8.35557618,39" id="Path-17" stroke="#000000" stroke-linecap="round" stroke-linejoin="round" fill-rule="nonzero" transform="translate(4.320841, 40.354730) scale(-1, 1) translate(-4.320841, -40.354730) "></path>
                <path d="M0.507267121,45.8899566 C2.45489669,45.8866897 4.05110939,45.6766224 5.29590525,45.2597546 C6.5407011,44.8428869 7.63431162,44.1498008 8.57673682,43.1804964" id="Path-17" stroke="#000000" stroke-linecap="round" stroke-linejoin="round" fill-rule="nonzero" transform="translate(4.542002, 44.535227) scale(-1, 1) rotate(18.000000) translate(-4.542002, -44.535227) "></path>
            </g>
        </g>
        <path d="M53.5,114.5 L42.5,51.5" id="Path-9" stroke="url(#linearGradient-5)" stroke-width="3" stroke-linecap="round" stroke-linejoin="round" fill-rule="nonzero" mask="url(#mask-2)"></path>
        <path d="M86.5,114.5 L42.5,51.5" id="Path-9" stroke="url(#linearGradient-5)" stroke-width="3" stroke-linecap="round" stroke-linejoin="round" fill-rule="nonzero" mask="url(#mask-2)"></path>
        <circle id="Oval-5" fill="#FF0000" fill-rule="nonzero" mask="url(#mask-2)" cx="43" cy="52" r="4"></circle>
        <circle id="Oval-3" fill="#FFE07B" fill-rule="nonzero" mask="url(#mask-2)" cx="109.5" cy="19.5" r="7.5"></circle>
    </g>
</svg>