<?xml version="1.0" encoding="UTF-8"?>
<svg width="428px" height="547px" viewBox="0 0 428 547" version="1.1" xmlns="http://www.w3.org/2000/svg" xmlns:xlink="http://www.w3.org/1999/xlink">
    <!-- Generator: Sketch 51.3 (57544) - http://www.bohemiancoding.com/sketch -->
    <title>party-cat</title>
    <desc>Created with Sketch.</desc>
    <defs>
        <path d="M186.086704,0.944631673 C352.20294,-12.6485697 387.111219,123.827455 377.552579,193.729291 C367.99394,263.631128 244.808603,271 140.263849,271 C35.7190955,271 -7.84739788,195.304803 1.14979981,155.115132 C10.1469975,114.925462 19.9704685,14.537833 186.086704,0.944631673 Z" id="path-1"></path>
    </defs>
    <g id="party-cat" stroke="none" stroke-width="1" fill="none" fill-rule="evenodd">
        <g id="head-container" transform="translate(0.000000, 230.000000)">
            <g id="head-group">
                <g id="right-ear" transform="translate(290.000000, 0.000000)" fill-rule="nonzero" stroke="#000000" stroke-width="4">
                    <path d="M95.3847615,126.407982 C101.759184,58.6906357 96.7335322,18.3181322 80.3078062,5.29047177 C63.8820803,-7.73718864 37.408536,6.9363553 0.887173401,49.3111036 L95.3847615,126.407982 Z" id="right-ear-outer" fill="#FFE07B"></path>
                    <path d="M81.779776,106.653086 C86.3485495,55.293967 82.4020133,26.54217 69.9401675,20.3976953 C57.4783216,14.2532206 38.4641427,29.8028202 12.8976308,67.046494 L81.779776,106.653086 Z" id="right-ear-inner" fill="#FD9BAF"></path>
                </g>
                <g id="left-ear" transform="translate(89.500000, 73.500000) scale(-1, 1) translate(-89.500000, -73.500000) translate(40.000000, 10.000000)" fill-rule="nonzero" stroke="#000000" stroke-width="4">
                    <path d="M95.3847615,126.407982 C101.759184,58.6906357 96.7335322,18.3181322 80.3078062,5.29047177 C63.8820803,-7.73718864 37.408536,6.9363553 0.887173401,49.3111036 L95.3847615,126.407982 Z" id="left-ear-outer" fill="#FFE07B"></path>
                    <path d="M81.779776,106.653086 C86.3485495,55.293967 82.4020133,26.54217 69.9401675,20.3976953 C57.4783216,14.2532206 38.4641427,29.8028202 12.8976308,67.046494 L81.779776,106.653086 Z" id="left-ear-inner" fill="#FD9BAF"></path>
                </g>
                <g id="head" transform="translate(26.000000, 42.000000)">
                    <mask id="mask-2" fill="white">
                        <use xlink:href="#path-1"></use>
                    </mask>
                    <g id="head-mask" fill-rule="nonzero" fill="#FFE07B">
                        <use xlink:href="#path-1"></use>
                        <path stroke="#0B0F12" stroke-width="4" d="M185.92359,-1.04870571 C262.195612,-7.29000384 316.645977,17.3314419 349.345786,64.8932393 C375.053519,102.285077 385.201231,152.557104 379.534139,194.000257 C374.972815,227.356981 345.579446,248.64531 294.985175,260.524883 C255.723449,269.743566 207.509086,273 140.263849,273 C91.7783896,273 52.724241,256.820692 26.6811598,229.508888 C4.57930745,206.330314 -5.74673969,176.766401 -0.801891536,154.67821 C-0.205071969,152.012271 2.02648704,141.202128 2.1495045,140.62128 C3.50510554,134.220572 4.74055334,128.940034 6.18468689,123.595 C10.0195827,109.401264 14.880568,96.6710193 21.546158,84.5804833 C33.5970945,62.721611 50.8518126,44.4399222 74.8020779,30.1789788 C102.917382,13.4380048 139.536754,2.74710393 185.92359,-1.04870571 Z" fill-rule="evenodd"></path>
                    </g>
                    <g id="head-mark" mask="url(#mask-2)" fill="#E9B312" fill-rule="nonzero" stroke="#000000">
                        <g transform="translate(-3.000000, -12.000000)">
                            <path d="M372.546088,116 C363.515363,118.226279 359,120.825934 359,123.798966 C359,126.771997 364.972564,129.416305 376.917691,131.731889 L372.546088,116 Z" id="head-right-mark-1" transform="translate(367.958845, 123.865945) rotate(-9.000000) translate(-367.958845, -123.865945) "></path>
                            <path d="M378.666294,142.304629 C369.635569,144.530908 365.120207,147.130564 365.120207,150.103595 C365.120207,153.076626 371.09277,155.720934 383.037897,158.036519 L378.666294,142.304629 Z" id="head-right-mark-2" transform="translate(374.079052, 150.170574) rotate(2.000000) translate(-374.079052, -150.170574) "></path>
                            <path d="M157.889373,8.32270267 C148.858648,10.5489816 144.343285,13.1486368 144.343285,16.1216683 C144.343285,19.0946998 150.315849,21.7390076 162.260976,24.0545919 L157.889373,8.32270267 Z" id="head-top-mark-1" transform="translate(153.302130, 16.188647) scale(-1, 1) rotate(-80.000000) translate(-153.302130, -16.188647) "></path>
                            <path d="M192.889373,6.32270267 C183.858648,8.54898163 179.343285,11.1486368 179.343285,14.1216683 C179.343285,17.0946998 185.315849,19.7390076 197.260976,22.0545919 L192.889373,6.32270267 Z" id="head-top-mark-2" transform="translate(188.302130, 14.188647) scale(-1, 1) rotate(-80.000000) translate(-188.302130, -14.188647) "></path>
                            <path d="M222.889373,3.32270267 C213.858648,5.54898163 209.343285,8.14863684 209.343285,11.1216683 C209.343285,14.0946998 215.315849,16.7390076 227.260976,19.0545919 L222.889373,3.32270267 Z" id="head-top-mark-3" transform="translate(218.302130, 11.188647) scale(-1, 1) rotate(-101.000000) translate(-218.302130, -11.188647) "></path>
                            <path d="M21.5460878,120 C12.5153626,122.226279 8,124.825934 8,127.798966 C8,130.771997 13.9725636,133.416305 25.9176907,135.731889 L21.5460878,120 Z" id="head-left-mark-1" transform="translate(16.958845, 127.865945) scale(-1, 1) rotate(-9.000000) translate(-16.958845, -127.865945) "></path>
                            <path d="M14.6662944,150.304629 C5.63556918,152.530908 1.12020658,155.130564 1.12020658,158.103595 C1.12020658,161.076626 7.09277014,163.720934 19.0378972,166.036519 L14.6662944,150.304629 Z" id="head-left-mark-1" transform="translate(10.079052, 158.170574) scale(-1, 1) rotate(2.000000) translate(-10.079052, -158.170574) "></path>
                        </g>
                    </g>
                    <path d="M182.794,158.243 L186.454,162.915 C187.688988,165.067913 189.041342,165.067913 190.511062,162.915 C191.450911,161.538265 193.362316,159.356406 194.433,157.995 C198.186,153.224 198.545,152.254 197.073,150.871 C195.706,149.586 181.14,149.63 179.926,150.922 C178.549,152.388 178.891,153.261 182.794,158.243 Z" id="head-mouth" fill="#000000" mask="url(#mask-2)"></path>
                    <path d="M278.913294,120.107497 C254.558015,124.478822 244.40526,154.461342 261.153879,172.551538 C278.191109,190.954066 309.288534,183.095696 314.9619,158.955228 C320.197738,136.672935 301.127058,116.120986 278.913294,120.107497" id="head-right-eye" fill="#000000" mask="url(#mask-2)"></path>
                    <path d="M86.3869326,116.708866 C62.6748008,121.21058 50.2169537,149.21106 62.568118,170.247106 C76.7959981,194.479129 113.305559,193.478414 125.610143,168.520648 C139.098757,141.15726 116.292677,111.030636 86.3869326,116.708866" id="head-left-eye" fill="#000000" mask="url(#mask-2)"></path>
                    <g id="head-left-glare" mask="url(#mask-2)" fill="#FFFFFF" fill-rule="nonzero">
                        <g transform="translate(85.000000, 137.000000)">
                            <circle id="head-left-glare-2" cx="4.5" cy="4.5" r="4.5"></circle>
                            <circle id="head-left-glare-1" cx="15" cy="8" r="2"></circle>
                        </g>
                    </g>
                    <g id="head-right-glare" mask="url(#mask-2)" fill="#FFFFFF" fill-rule="nonzero">
                        <g transform="translate(275.000000, 137.000000)">
                            <circle id="head-right-glare-2" cx="4.5" cy="4.5" r="4.5"></circle>
                            <circle id="head-right-glare-1" cx="15" cy="8" r="2"></circle>
                        </g>
                    </g>
                </g>
                <g id="whisker" transform="translate(0.000000, 204.000000)" fill="#000000">
                    <g id="whisker-right" transform="translate(383.000000, 0.000000)">
                        <path d="M10.926,20.7592273 C3.235,22.1958182 0.587,23.6451136 1.616,25.8517955 C2.156,27.0108409 3.066,26.9531818 7.811,25.4628409 C18.059,22.2437045 29.934,25.0504318 38.153,32.6340682 C39.832,34.185 42.097,33.7784545 42.097,31.9265227 C42.097,29.5488182 32.211,23.1115227 25.807,21.3192045 C22.331,20.3458409 14.678,20.0585227 10.926,20.7592273" id="whisker-right-2"></path>
                        <path d="M21.636,1.204 C12.549,2.49497727 -0.909,10.3551818 0.279,13.6769318 C0.941,15.5259318 2.247,15.222 5.879,12.3742273 C15.486,4.84140909 25.972,2.79109091 39.153,5.86852273 C42.597,6.67281818 43.753,6.58290909 44.046,5.48934091 C44.453,3.96675 43.934,3.34129545 41.777,2.75590909 C40.635,2.44709091 39.455,2.11384091 39.155,2.01709091 C36.06,1.01929545 26.168,0.559977273 21.636,1.204" id="whisker-right-1"></path>
                    </g>
                    <g id="whisker-left" transform="translate(0.000000, 11.727273)">
                        <path d="M8.724,1.54018182 C2.75,2.78522727 1.01,3.49179545 0.863,4.73293182 C0.584,7.08425 1.678,7.19663636 8.171,5.48054545 C19.804,2.40702273 31.751,4.96356818 40.12,12.3175455 C44.254,15.9490909 46.544,13.3153409 42.517,9.56163636 C34.096,1.71120455 21.846,-1.19618182 8.724,1.54018182" id="path0-path"></path>
                        <path d="M21.52,18.6913182 C14.757,19.7106136 4.115,25.8342045 4.115,28.7064091 C4.115,31.1095227 6.04,31.1495909 8.845,28.8051136 C17.355,21.6935 28.275,20.2451818 39.186,24.7826591 C42.252,26.058 42.857,26.1088182 43.733,25.1628182 C46.797,21.8537727 31.026,17.2586364 21.52,18.6913182" id="path0-path"></path>
                    </g>
                </g>
            </g>
            <path d="M214,204.014643 C218.782817,214.019772 223.455626,219.499859 228.018426,220.454902 C232.581226,221.409946 238.485002,218.143655 245.729755,210.656029" id="Path-2" stroke="#000000" stroke-width="5" stroke-linecap="round" stroke-linejoin="round"></path>
            <path d="M180.5,204.014643 C185.735026,214.019772 190.849641,219.499859 195.843847,220.454902 C200.838052,221.409946 207.300022,218.143655 215.229755,210.656029" id="Path-2" stroke="#000000" stroke-width="5" stroke-linecap="round" stroke-linejoin="round" transform="translate(197.864878, 212.315800) scale(-1, 1) translate(-197.864878, -212.315800) "></path>
        </g>
        <g id="download-icon-flat+version+svg+birthday+hat-1319964482389199674_0" transform="translate(89.000000, 3.000000)" fill-rule="nonzero">
            <path d="M255,312.208814 C255,317.454587 252.316038,322.382605 247.80442,325.20259 C244.884988,327.028522 241.95447,328.771945 239.028402,330.422047 C204.53966,349.906176 165.803971,360 126.501511,360 C86.0792855,360 46.2621521,349.314756 11.056358,328.738296 C9.04299237,327.568371 7.08965804,326.39005 5.19818531,325.20233 C-1.25456812,321.164311 -3.7698402,312.991704 -0.695247183,306.032711 L8.35049314,285.546973 L23.5939815,251.047155 L31.9544187,232.118501 L36.3154003,222.23917 L103.70464,69.6635733 L104.95925,66.8155697 L115.878342,42.1008941 L126.50165,18.0496408 L128.331042,22.1920295 L135.156525,37.6473363 L148.04281,66.8133978 L149.305327,69.6618731 L216.688224,222.238952 L221.056265,232.125418 L229.40963,251.046909 L244.653417,285.547402 L253.698838,306.032416 C254.566007,307.995422 255,310.088653 255,312.208814 Z" id="XMLID_92_" stroke="#0B0F12" stroke-width="4" fill="#8FE5D8"></path>
            <path d="M146,67.258154 C140.162526,70.2880521 133.531959,72 126.5,72 C119.468041,72 112.837474,70.2880521 107,67.258154 L117.800192,42.7463618 L126.5,23 L133.250985,38.3263732 L146,67.258154 Z" id="XMLID_5966_" fill="#63CEC1"></path>
            <path d="M208,206.976679 C201.950225,209.308308 195.819254,211.362028 189.631586,213.147688 C169.187084,219.049229 148.093717,222 127.00805,222 C104.770944,222 82.5506371,218.722773 61.0757904,212.169022 C56.0073626,210.620466 50.9788326,208.891795 46,206.976679 L69.27515,154 C74.1489883,155.288236 79.0557248,156.413244 83.98626,157.36658 C98.1863974,160.121759 112.597223,161.499348 127.00875,161.499348 C140.235939,161.499348 153.470828,160.333533 166.535627,158.010347 C172.642099,156.926146 178.716373,155.589364 184.733949,154 L193.435882,173.799855 L208,206.976679 Z" id="XMLID_5188_" fill="#FFA6B7"></path>
            <path d="M207,206.844327 C201.018079,209.170162 194.955874,211.218778 188.837607,213 L166,158.000381 C172.037982,156.918874 178.044126,155.585414 183.99421,154 L192.598542,173.750651 L207,206.844327 Z" id="XMLID_5179_" fill="#FC819C"></path>
            <g id="XMLID_6500_" transform="translate(34.000000, 223.000000)" fill="#FFA6B7">
                <path d="M185.673451,9.79854762 C185.666459,9.80545238 185.651774,9.80545238 185.644782,9.81304762 C179.572511,12.4237381 173.413534,14.7706667 167.189526,16.8483095 C143.33118,24.8219286 118.457526,28.855 93.0076917,28.855 C60.9590526,28.855 29.8327218,22.4674048 0.485977444,9.8627619 C0.435631579,9.84135714 0.385285714,9.81995238 0.33493985,9.79164286 L4.69335338,0.0393571429 C32.7003383,12.0750476 62.4148872,18.1850714 93.008391,18.1850714 C117.010782,18.1850714 140.472654,14.4219762 162.990541,6.989 C169.171195,4.9472619 175.279827,2.62864286 181.308744,0.0393571429 L185.673451,9.79854762 Z" id="XMLID_91_"></path>
            </g>
            <path d="M219,232.869819 C218.99291,232.876802 218.978021,232.876802 218.970931,232.884484 C212.813964,235.524956 206.569081,237.898657 200.258261,240 L196,230.02892 C202.266862,227.963891 208.460697,225.618823 214.573705,223 L219,232.869819 Z" id="XMLID_80_" fill="#FC819C"></path>
            <circle id="XMLID_3771_" stroke="#0B0F12" stroke-width="3" fill="#FFEB96" cx="126.5" cy="29.5" r="31"></circle>
            <g id="XMLID_4737_" transform="translate(10.000000, 252.000000)">
                <g id="XMLID_3774_" fill="#FFC7D4">
                    <path d="M30.3011617,18.6709756 C30.3011617,29.1888659 21.7499222,37.7096707 11.1944641,37.7096707 C7.23416168,37.7096707 3.56476048,36.5098902 0.517622754,34.4558049 L15.7128503,0.171695122 C24.085503,2.19310976 30.3011617,9.70668293 30.3011617,18.6709756 Z" id="XMLID_4767_"></path>
                </g>
                <g id="XMLID_4736_" transform="translate(59.296407, 18.073171)" fill="#FFA6B7">
                    <ellipse id="XMLID_4263_" cx="19.2036647" cy="19.6365" rx="19.106" ry="19.038"></ellipse>
                </g>
                <g id="XMLID_4742_" transform="translate(202.305389, 0.000000)" fill="#FC819C">
                    <path d="M30.1776856,34.4558049 C27.1305479,36.5091951 23.4611467,37.7096707 19.5008443,37.7096707 C8.94538623,37.7096707 0.394146707,29.1888659 0.394146707,18.6709756 C0.394146707,9.70737805 6.60980539,2.19310976 14.9831557,0.171695122 L30.1776856,34.4558049 Z" id="XMLID_4802_"></path>
                </g>
                <g id="XMLID_4738_" transform="translate(135.335329, 18.073171)" fill="#FFA6B7">
                    <ellipse id="XMLID_4741_" cx="19.1652964" cy="19.6365" rx="19.106" ry="19.038"></ellipse>
                </g>
            </g>
        </g>
    </g>
</svg>