<?xml version="1.0" encoding="UTF-8"?>
<svg width="456px" height="295px" viewBox="0 0 456 295" version="1.1" xmlns="http://www.w3.org/2000/svg" xmlns:xlink="http://www.w3.org/1999/xlink">
    <!-- Generator: Sketch 51.3 (57544) - http://www.bohemiancoding.com/sketch -->
    <title>frog/head</title>
    <desc>Created with Sketch.</desc>
    <defs></defs>
    <g id="frog/head" stroke="none" stroke-width="1" fill="none" fill-rule="evenodd">
        <g id="head-container" transform="translate(-15.000000, -31.000000)">
            <g id="head">
                <path d="M29.5805313,195.417672 L456.419469,195.417672 L456.419469,197.417672 C456.419469,221.567645 436.916419,252.790229 404.222839,276.941606 C364.586364,306.221831 309.637841,323.35307 243,323.35307 C176.36224,323.35307 121.413724,306.221691 81.777158,276.941272 C49.0836506,252.789846 29.5805313,221.567245 29.5805313,197.417672 L29.5805313,195.417672 Z" id="head-bg-2" stroke="#000000" stroke-width="4" fill="#BEE178" fill-rule="nonzero"></path>
                <path d="M458.810578,163.891102 C425.258406,139.094664 354.032211,97.7022344 315.903539,82.2300625 C298.894391,75.3282344 286.742477,66.191125 243,66.191125 C199.257523,66.191125 187.105609,75.3273516 170.096461,82.2300625 C131.967789,97.7022344 60.7415937,139.094664 27.1894219,163.891102 C21.4246562,168.151555 17,174.984523 17,183.257359 C17,191.155 22.9583958,198.305193 34.8751875,204.707937 C98.2236746,228.843726 169.259921,240.911621 247.983928,240.911621 C326.707935,240.911621 394.421563,228.843726 451.124812,204.707937 C463.041604,198.305193 469,191.155 469,183.257359 C469,174.984523 464.576227,168.151555 458.810578,163.891102 Z" id="head-bg-1" stroke="#000000" stroke-width="4" fill="#82C35F" fill-rule="nonzero"></path>
                <g id="nose" transform="translate(199.000000, 176.000000)" fill="#5A9646" fill-rule="nonzero">
                    <path d="M80.5928359,22.7253594 C76.5627969,22.7253594 73.3025703,19.4651328 73.3025703,15.4350937 L73.3025703,8.14482812 C73.3025703,4.11478906 76.5627969,0.8545625 80.5928359,0.8545625 C84.622875,0.8545625 87.8831016,4.11478906 87.8831016,8.14482812 L87.8831016,15.4350937 C87.8831016,19.46425 84.622875,22.7253594 80.5928359,22.7253594 Z" id="head-nostril-2"></path>
                    <path d="M7.68929688,22.7253594 C3.65925781,22.7253594 0.39903125,19.4651328 0.39903125,15.4350937 L0.39903125,8.14482812 C0.39903125,4.11478906 3.65925781,0.8545625 7.68929688,0.8545625 C11.7193359,0.8545625 14.9795625,4.11478906 14.9795625,8.14482812 L14.9795625,15.4350937 C14.9795625,19.46425 11.7193359,22.7253594 7.68929688,22.7253594 Z" id="head-nostril-1"></path>
                </g>
                <g id="eye-left-bg" transform="translate(103.500000, 92.000000) scale(-1, 1) rotate(10.000000) translate(-103.500000, -92.000000) translate(12.000000, 15.000000)" fill-rule="nonzero" stroke="#000000" stroke-width="4">
                    <path d="M45.3664704,137.710882 C26.9701046,128.939446 15.9312451,114.856234 13.8463248,103.491319 C12.7147756,97.3232355 13.4390782,89.044419 15.6388734,83.0023948 C20.4080988,69.9030954 41.0278058,30.7519886 84.010776,29.8665054 L45.3664704,137.710882 Z" id="head-right-eye-area-1" fill="#96CD78" transform="translate(48.664170, 83.788694) rotate(-15.000000) translate(-48.664170, -83.788694) "></path>
                    <path d="M107.856542,139.07769 C141.316394,139.07769 168.440964,111.953121 168.440964,78.4932685 C168.440964,45.0334162 127.277099,13.5129349 85.9632386,14.9145989 C69.7783709,20.9746118 57.7078514,35.081905 49.7516802,57.2364786 C41.7955091,79.3910521 40.2255787,101.167752 45.0418891,122.566579 C64.6117559,133.573987 85.5499734,139.07769 107.856542,139.07769 Z" id="head-right-eye-area-2" fill="#73AF55" transform="translate(105.379308, 76.973614) rotate(-15.000000) translate(-105.379308, -76.973614) "></path>
                </g>
                <g id="eye-right-bg" transform="translate(382.500000, 92.000000) rotate(10.000000) translate(-382.500000, -92.000000) translate(291.000000, 15.000000)" fill-rule="nonzero" stroke="#000000" stroke-width="4">
                    <path d="M45.3664704,137.710882 C26.9701046,128.939446 15.9312451,114.856234 13.8463248,103.491319 C12.7147756,97.3232355 13.4390782,89.044419 15.6388734,83.0023948 C20.4080988,69.9030954 41.0278058,30.7519886 84.010776,29.8665054 L45.3664704,137.710882 Z" id="head-right-eye-area-1" fill="#96CD78" transform="translate(48.664170, 83.788694) rotate(-15.000000) translate(-48.664170, -83.788694) "></path>
                    <path d="M107.856542,139.07769 C141.316394,139.07769 168.440964,111.953121 168.440964,78.4932685 C168.440964,45.0334162 127.277099,13.5129349 85.9632386,14.9145989 C69.7783709,20.9746118 57.7078514,35.081905 49.7516802,57.2364786 C41.7955091,79.3910521 40.2255787,101.167752 45.0418891,122.566579 C64.6117559,133.573987 85.5499734,139.07769 107.856542,139.07769 Z" id="head-right-eye-area-2" fill="#73AF55" transform="translate(105.379308, 76.973614) rotate(-15.000000) translate(-105.379308, -76.973614) "></path>
                </g>
                <path d="M80.4666824,57.0445186 C54.4523159,61.9833084 40.784924,92.7023833 54.3352752,115.78084 C69.9445545,142.365574 109.998865,141.267699 123.498114,113.886758 C138.29635,83.8666311 113.276006,50.8149837 80.4666824,57.0445186" id="head-left-eye" fill="#000000"></path>
                <g id="head-left-glare" transform="translate(74.019181, 76.280995)" fill="#FFFFFF" fill-rule="nonzero">
                    <circle id="head-left-glare-2" cx="8" cy="8" r="8"></circle>
                    <circle id="head-left-glare-1" cx="26.5" cy="14.5" r="3.5"></circle>
                </g>
                <path d="M389.466682,57.0445186 C363.452316,61.9833084 349.784924,92.7023833 363.335275,115.78084 C378.944554,142.365574 418.998865,141.267699 432.498114,113.886758 C447.29635,83.8666311 422.276006,50.8149837 389.466682,57.0445186" id="head-left-eye" fill="#000000"></path>
                <g id="head-left-glare" transform="translate(383.019181, 76.280995)" fill="#FFFFFF" fill-rule="nonzero">
                    <circle id="head-left-glare-2" cx="8" cy="8" r="8"></circle>
                    <circle id="head-left-glare-1" cx="26.5" cy="14.5" r="3.5"></circle>
                </g>
            </g>
        </g>
    </g>
</svg>