<?xml version="1.0" encoding="UTF-8"?>
<svg width="135px" height="132px" viewBox="0 0 135 132" version="1.1" xmlns="http://www.w3.org/2000/svg" xmlns:xlink="http://www.w3.org/1999/xlink">
    <!-- Generator: Sketch 51.3 (57544) - http://www.bohemiancoding.com/sketch -->
    <title>frog/how-to-step-3</title>
    <desc>Created with Sketch.</desc>
    <defs>
        <rect id="path-1" x="2" y="2" width="131" height="128" rx="17"></rect>
    </defs>
    <g id="frog/how-to-step-3" stroke="none" stroke-width="1" fill="none" fill-rule="evenodd">
        <mask id="mask-2" fill="white">
            <use xlink:href="#path-1"></use>
        </mask>
        <rect stroke="#000000" stroke-width="2" x="1" y="1" width="133" height="130" rx="17"></rect>
        <g id="Group-2" mask="url(#mask-2)" fill="#D8D8D8" fill-rule="nonzero">
            <g transform="translate(16.000000, 35.000000)" id="Rectangle-4">
                <rect transform="translate(26.500000, 19.500000) rotate(-33.000000) translate(-26.500000, -19.500000) " x="0" y="14" width="53" height="11"></rect>
                <rect x="0" y="30" width="97" height="11"></rect>
                <rect x="0" y="46" width="27" height="11"></rect>
                <rect x="32" y="46" width="27" height="11"></rect>
            </g>
        </g>
        <g id="Group" mask="url(#mask-2)" fill-rule="nonzero">
            <g transform="translate(16.000000, 14.000000)" id="Oval-4">
                <circle fill="#FF6259" cx="5.5" cy="5.5" r="5.5"></circle>
                <circle fill="#FFBF2F" cx="20.5" cy="5.5" r="5.5"></circle>
                <circle fill="#29CC41" cx="35.5" cy="5.5" r="5.5"></circle>
            </g>
        </g>
        <circle id="Oval-3" fill="#FFE07B" fill-rule="nonzero" mask="url(#mask-2)" cx="109.5" cy="19.5" r="7.5"></circle>
        <g id="head-container" mask="url(#mask-2)">
            <g transform="translate(18.000000, 73.000000)" id="head">
                <g>
                    <path d="M6.80311015,38.9022925 L92.1968899,38.9022925 L92.1968899,39.4022925 C92.1968899,44.2582859 88.2869862,50.5176811 81.7381276,55.3554489 C73.8093259,61.2126072 62.8211766,64.63837 49.5,64.63837 C36.1788394,64.63837 25.1906916,61.2125791 17.2618715,55.3553822 C10.7130276,50.5176045 6.80311015,44.2582061 6.80311015,39.4022925 L6.80311015,38.9022925 Z" id="head-bg-2" stroke="#000000" fill="#BEE178" fill-rule="nonzero"></path>
                    <path d="M92.5733047,32.7107754 C85.8766778,27.7616922 71.6607499,19.5002402 64.0507064,16.412173 C60.6558763,15.0346476 58.2304943,13.2109859 49.5,13.2109859 C40.7695057,13.2109859 38.3441237,15.0344714 34.9492936,16.412173 C27.3392501,19.5002402 13.1233222,27.7616922 6.42669531,32.7107754 C5.27611452,33.5611128 4.39300412,34.9248946 4.39300412,36.5760573 C4.39300412,38.1523354 5.58223127,39.5794315 7.96068557,40.8573456 C20.6043136,45.6745709 34.78233,48.0831836 50.4947346,48.0831836 C66.2071393,48.0831836 79.7219992,45.6745709 91.0393144,40.8573456 C93.4177687,39.5794315 94.6069959,38.1523354 94.6069959,36.5760573 C94.6069959,34.9248946 93.7240617,33.5611128 92.5733047,32.7107754 Z" id="head-bg-1" stroke="#000000" fill="#82C35F" fill-rule="nonzero"></path>
                    <g id="nose" transform="translate(40.718107, 35.127572)" fill="#5A9646" fill-rule="nonzero">
                        <path d="M16.0854014,4.53571988 C15.2810521,4.53571988 14.6303484,3.88501622 14.6303484,3.08066686 L14.6303484,1.62561384 C14.6303484,0.821264484 15.2810521,0.170560828 16.0854014,0.170560828 C16.8897508,0.170560828 17.5404544,0.821264484 17.5404544,1.62561384 L17.5404544,3.08066686 C17.5404544,3.88484002 16.8897508,4.53571988 16.0854014,4.53571988 Z" id="head-nostril-2"></path>
                        <path d="M1.53469506,4.53571988 C0.730345695,4.53571988 0.0796420396,3.88501622 0.0796420396,3.08066686 L0.0796420396,1.62561384 C0.0796420396,0.821264484 0.730345695,0.170560828 1.53469506,0.170560828 C2.33904442,0.170560828 2.98974807,0.821264484 2.98974807,1.62561384 L2.98974807,3.08066686 C2.98974807,3.88484002 2.33904442,4.53571988 1.53469506,4.53571988 Z" id="head-nostril-1"></path>
                    </g>
                    <g id="eye-left-bg" transform="translate(21.446231, 18.533095) scale(-1, 1) rotate(10.000000) translate(-21.446231, -18.533095) translate(2.946231, 3.033095)" fill-rule="nonzero" stroke="#000000">
                        <path d="M9.05462474,27.4855053 C5.38292212,25.7348276 3.17969295,22.9239809 2.76356689,20.6556747 C2.5377227,19.4245964 2.68228515,17.77224 3.12133893,16.5663216 C4.07322137,13.9518524 8.18867728,6.13774259 16.7675829,5.96101034 L9.05462474,27.4855053 Z" id="head-right-eye-area-1" fill="#96CD78" transform="translate(9.712807, 16.723258) rotate(-15.000000) translate(-9.712807, -16.723258) "></path>
                        <path d="M21.5269229,27.7583045 C28.2051239,27.7583045 33.6188754,22.3445529 33.6188754,15.6663519 C33.6188754,8.98815096 25.4030425,2.6970261 17.1572719,2.97678209 C13.9269588,4.18629084 11.5178222,7.00194401 9.9298621,11.4237416 C8.34190201,15.8455392 8.028562,20.1919176 8.98984206,24.4628768 C12.895762,26.6598286 17.0747889,27.7583045 21.5269229,27.7583045 Z" id="head-right-eye-area-2" fill="#73AF55" transform="translate(21.032496, 15.363047) rotate(-15.000000) translate(-21.032496, -15.363047) "></path>
                    </g>
                    <g id="eye-right-bg" transform="translate(77.553769, 18.533095) rotate(10.000000) translate(-77.553769, -18.533095) translate(59.053769, 3.033095)" fill-rule="nonzero" stroke="#000000">
                        <path d="M9.05462474,27.4855053 C5.38292212,25.7348276 3.17969295,22.9239809 2.76356689,20.6556747 C2.5377227,19.4245964 2.68228515,17.77224 3.12133893,16.5663216 C4.07322137,13.9518524 8.18867728,6.13774259 16.7675829,5.96101034 L9.05462474,27.4855053 Z" id="head-right-eye-area-1" fill="#96CD78" transform="translate(9.712807, 16.723258) rotate(-15.000000) translate(-9.712807, -16.723258) "></path>
                        <path d="M21.5269229,27.7583045 C28.2051239,27.7583045 33.6188754,22.3445529 33.6188754,15.6663519 C33.6188754,8.98815096 25.4030425,2.6970261 17.1572719,2.97678209 C13.9269588,4.18629084 11.5178222,7.00194401 9.9298621,11.4237416 C8.34190201,15.8455392 8.028562,20.1919176 8.98984206,24.4628768 C12.895762,26.6598286 17.0747889,27.7583045 21.5269229,27.7583045 Z" id="head-right-eye-area-2" fill="#73AF55" transform="translate(21.032496, 15.363047) rotate(-15.000000) translate(-21.032496, -15.363047) "></path>
                    </g>
                    <path d="M17.0602226,11.3854286 C11.8680548,12.3711542 9.14020087,18.5023275 11.8446948,23.1085216 C14.9601271,28.4145282 22.954506,28.195405 25.6488006,22.7304847 C28.602358,16.7388132 23.6085856,10.1420852 17.0602226,11.3854286" id="head-left-eye" fill="#000000"></path>
                    <g id="head-left-glare" transform="translate(15.773376, 15.224808)" fill="#FFFFFF" fill-rule="nonzero">
                        <circle id="head-left-glare-2" cx="1.59670782" cy="1.59670782" r="1.59670782"></circle>
                        <circle id="head-left-glare-1" cx="5.28909465" cy="2.89403292" r="1"></circle>
                    </g>
                    <path d="M78.7330621,11.3854286 C73.5408943,12.3711542 70.8130404,18.5023275 73.5175343,23.1085216 C76.6329666,28.4145282 84.6273455,28.195405 87.3216401,22.7304847 C90.2751975,16.7388132 85.2814251,10.1420852 78.7330621,11.3854286" id="head-left-eye" fill="#000000"></path>
                    <g id="head-left-glare" transform="translate(77.446215, 15.224808)" fill="#FFFFFF" fill-rule="nonzero">
                        <circle id="head-left-glare-2" cx="1.59670782" cy="1.59670782" r="1.59670782"></circle>
                        <circle id="head-left-glare-1" cx="5.28909465" cy="2.89403292" r="1"></circle>
                    </g>
                    <path d="M91.8127572,40.4959794 C91.8127572,41.7574559 84.4699505,49.0987654 49.6995885,49.0987654 C14.9292265,49.0987654 7.58641975,41.7574559 7.58641975,40.4959794 C7.58641975,39.234503 24.3805055,35.127572 49.6995885,35.127572 C75.0186714,35.127572 91.8127572,39.234503 91.8127572,40.4959794 Z" id="mouth" stroke="#000000" stroke-width="4" fill="#000000" fill-rule="nonzero"></path>
                </g>
            </g>
        </g>
        <path d="M75.2209982,116.359445 L50.8754797,59.520393 C49.3209245,54.7550271 47.3233979,52.2335618 44.8828998,51.9559972 C42.4424017,51.6784326 42.4424017,57.3905855 44.8828998,69.0924558 L54,116.359445 L75.2209982,116.359445 Z" id="Path-2" fill="#F5B7BD" fill-rule="nonzero" mask="url(#mask-2)"></path>
    </g>
</svg>