<?xml version="1.0" encoding="UTF-8"?>
<svg width="451px" height="544px" viewBox="0 0 451 544" version="1.1" xmlns="http://www.w3.org/2000/svg" xmlns:xlink="http://www.w3.org/1999/xlink">
    <!-- Generator: Sketch 51.3 (57544) - http://www.bohemiancoding.com/sketch -->
    <title>unicorn/head</title>
    <desc>Created with Sketch.</desc>
    <defs>
        <path d="M140.830514,469.362179 C226.809763,469.362179 198.562824,404.397302 220.251302,350.367483 C241.939781,296.337665 377.790885,-5.68434189e-14 140.830514,-5.68434189e-14 C-96.1298571,-5.68434189e-14 32.5722375,289.964146 54.8938005,350.367483 C77.2153635,410.770821 54.8512645,469.362179 140.830514,469.362179 Z" id="path-1"></path>
    </defs>
    <g id="unicorn/head" stroke="none" stroke-width="1" fill="none" fill-rule="evenodd">
        <g id="unicorn-group" transform="translate(73.000000, 5.000000)">
            <g id="ears" transform="translate(22.000000, 0.000000)" stroke="#000000" stroke-width="4">
                <g id="ear-left">
                    <path d="M4.00687218,99.4385438 C-3.17149114,46.8239046 -3.17149114,14.7685539 4.28510884,2.64928165 C6.58762284,-1.09301296 9.88436431,-2.08149794 13.3562145,-0.11769777 C16.0178494,1.38781622 18.8132225,4.61914035 21.9767966,9.57107041 C26.7576122,17.0544622 30.655578,24.9585245 40.5726225,46.3543266 C40.9515613,47.1718788 41.2437543,47.8020194 41.5276934,48.4139164 C49.3343892,65.2375701 53.6059672,73.8283289 57.9745717,80.8844049 L59.31519,83.0497427 L56.8937568,83.8387968 C36.2890425,90.5530991 19.5504522,96.2887818 6.68176174,101.044191 L4.34380662,101.908144 L4.00687218,99.4385438 Z" id="ear-left-outer" fill="#D9D9D9"></path>
                    <path d="M16.3620375,88.8633707 C11.5193833,62.1411187 9.73541989,42.2311507 11.0101474,29.1334667 C12.2848749,16.0357827 22.9767823,32.9947235 43.0858697,80.0102892 L16.3620375,88.8633707 Z" id="ear-left-inner" fill="#E6646E"></path>
                </g>
                <g id="ear-right" transform="translate(207.500000, 50.000000) scale(-1, 1) translate(-207.500000, -50.000000) translate(179.000000, 0.000000)">
                    <path d="M4.00687218,99.4385438 C-3.17149114,46.8239046 -3.17149114,14.7685539 4.28510884,2.64928165 C6.58762284,-1.09301296 9.88436431,-2.08149794 13.3562145,-0.11769777 C16.0178494,1.38781622 18.8132225,4.61914035 21.9767966,9.57107041 C26.7576122,17.0544622 30.655578,24.9585245 40.5726225,46.3543266 C40.9515613,47.1718788 41.2437543,47.8020194 41.5276934,48.4139164 C49.3343892,65.2375701 53.6059672,73.8283289 57.9745717,80.8844049 L59.31519,83.0497427 L56.8937568,83.8387968 C36.2890425,90.5530991 19.5504522,96.2887818 6.68176174,101.044191 L4.34380662,101.908144 L4.00687218,99.4385438 Z" id="ear-right-outer" fill="#D9D9D9"></path>
                    <path d="M16.3620375,88.8633707 C11.5193833,62.1411187 9.73541989,42.2311507 11.0101474,29.1334667 C12.2848749,16.0357827 22.9767823,32.9947235 43.0858697,80.0102892 L16.3620375,88.8633707 Z" id="ear-right-inner" fill="#E6646E"></path>
                </g>
            </g>
            <path d="M56.1043461,492.240449 C27.9651521,402.239742 105.239588,350.203735 125.058964,341.079731 C217.655153,392.926785 260.899451,455.500588 254.791859,528.80114 C293.979867,453.04674 245.288531,401.794963 248.123692,361.159831 C259.443321,389.285207 257.63287,394.630895 275.394799,413.706537 C293.156728,432.782179 298.575466,436.038632 295.623538,468.422199 C299.386308,461.025146 313.228133,436.765857 295.623538,406.499852 C283.887141,386.322514 282.957466,359.706391 292.834513,326.651481 C299.415659,341.682776 306.251893,351.823731 313.343213,357.074347 C323.980194,364.95027 340.603984,361.159831 346.796791,361.159831 C358.801744,361.159831 368.174082,372.167236 374.913805,394.182045 C378.459068,363.881363 366.08052,344.824716 337.778162,337.012103 C319.176126,331.877177 306.362636,316.79796 306.362636,221.661246 C306.362636,158.236771 283.644889,109.249009 238.209396,74.6979614 L119.407872,74.6979614 C77.2055214,150.316442 56.1043461,218.785525 56.1043461,280.105209 C56.1043461,309.385348 20.4181945,399.667776 19.1814792,406.499852 C13.6879634,436.848079 26.4405098,469.31994 56.1043461,492.240449 Z" id="hair-background" stroke="#000000" stroke-width="4" fill="#E6646E"></path>
            <g id="head" transform="translate(0.000000, 43.000000)">
                <mask id="mask-2" fill="white">
                    <use xlink:href="#path-1"></use>
                </mask>
                <path stroke="#000000" stroke-width="4" d="M140.830514,471.362179 C111.568517,471.362179 93.1594261,464.702943 81.9230813,451.129461 C77.0103937,445.194944 73.4510697,437.96706 70.6865866,428.885034 C68.5184112,421.76203 67.0505998,414.640816 64.8557806,401.740399 C60.1613109,374.147869 58.2582762,365.24176 53.0177973,351.060745 C51.4923921,346.932917 43.5000655,326.319792 42.1029597,322.661124 C36.4870366,307.954435 31.6960265,294.782341 27.10137,281.137397 C15.1295247,245.584106 6.42541582,212.327576 1.73955299,180.95044 C-5.94701844,129.480175 -2.14552407,86.8883642 15.8849056,55.4594654 C37.3335245,18.0723103 78.1862582,-2 140.830514,-2 C202.601399,-2 242.763854,17.9458339 263.628172,55.0778773 C281.181486,86.3173559 284.565424,128.666134 276.472451,179.697577 C271.470465,211.238344 262.325559,244.735365 249.940338,280.020038 C244.899749,294.380341 239.592903,308.286975 233.653972,322.99653 C230.756149,330.173862 223.009427,348.865292 222.107347,351.112531 C219.259597,358.206777 217.135858,365.847482 215.459685,374.552167 C214.067762,381.780681 213.403395,386.630248 211.685766,400.812206 C210.090613,413.982913 209.099586,420.508606 207.387954,427.544582 C205.157669,436.712573 202.076357,444.060292 197.618,450.149838 C187.254986,464.304387 169.456191,471.362179 140.830514,471.362179 Z"></path>
                <g id="head-mask-group" mask="url(#mask-2)">
                    <g transform="translate(-68.000000, 0.000000)">
                        <path d="M208.830514,469.362179 C294.809763,469.362179 266.562824,404.397302 288.251302,350.367483 C309.939781,296.337665 445.790885,-5.68434189e-14 208.830514,-5.68434189e-14 C-28.1298571,-5.68434189e-14 100.572238,289.964146 122.893801,350.367483 C145.215364,410.770821 122.851265,469.362179 208.830514,469.362179 Z" id="head-background" stroke="none" fill="#D9D9D9"></path>
                        <g id="nostrils" stroke="none" stroke-width="1" fill="none" transform="translate(153.000000, 390.000000)">
                            <path d="M84.5,41.2592709 C81.930022,37.6099681 78.5118465,19.5780619 94.3731998,6.07857799 C110.234553,-7.42090588 114.315616,6.54367065 104.443754,20.3785065 C94.5718924,34.2133423 87.069978,44.9085737 84.5,41.2592709 Z" id="nostril-right" fill="#000000"></path>
                            <path d="M2.20301599,41.6695041 C-0.366962038,38.0202013 -3.7851375,19.9882951 12.0762158,6.48881127 C27.9375692,-7.0106726 32.0186319,6.95390393 22.1467701,20.7887398 C12.2749084,34.6235756 4.77299402,45.3188069 2.20301599,41.6695041 Z" id="nostril-left" fill="#000000" transform="translate(13.742753, 21.695387) scale(-1, 1) translate(-13.742753, -21.695387) "></path>
                        </g>
                        <path d="M208.938646,422.291055 C233.815387,422.291055 233.815387,368.104698 243.288283,342.152016 C252.761178,316.199335 270.746783,295.257272 270.746783,279.166208 C270.746783,274.688605 253.242586,241.249054 261.929381,219.746355 C270.616177,198.243656 310.190946,194.20227 305.506715,175.50097 C298.971195,149.408585 277.331733,61 208.938646,61 C140.545559,61 116.477323,156.585133 109.724731,175.50097 C102.972139,194.416806 145.463022,191.565564 151.948012,219.746355 C158.433001,247.927146 142.713068,260.20277 142.713068,279.166208 C142.713068,280.198524 167.259337,322.198028 173.227765,342.152016 C179.539802,363.254778 184.061905,422.291055 208.938646,422.291055 Z" id="head-glare" stroke="none" fill="#ECECEC"></path>
                        <g id="eyes" stroke="none" stroke-width="1" fill="none" transform="translate(105.000000, 203.000000)">
                            <g id="head-left-eye" transform="translate(0.938776, 0.687500)">
                                <path d="M23.5180816,0.8931875 C4.83853061,4.4509375 -4.97530612,26.58 4.7544898,43.205 C15.9626939,62.3558125 44.7235918,61.5649375 54.4166939,41.8405625 C65.0425306,20.215 47.0767347,-3.594375 23.5180816,0.8931875" fill="#000000"></path>
                                <ellipse id="head-left-glare-2" fill="#FFFFFF" fill-rule="nonzero" cx="24.3265306" cy="16.34375" rx="5.32653061" ry="5.34375"></ellipse>
                                <ellipse id="head-left-glare-1" fill="#FFFFFF" fill-rule="nonzero" cx="36.755102" cy="20.5" rx="2.36734694" ry="2.375"></ellipse>
                            </g>
                            <g id="head-right-eye" transform="translate(147.000000, 1.000000)">
                                <path d="M23.5180816,0.8931875 C4.83853061,4.4509375 -4.97530612,26.58 4.7544898,43.205 C15.9626939,62.3558125 44.7235918,61.5649375 54.4166939,41.8405625 C65.0425306,20.215 47.0767347,-3.594375 23.5180816,0.8931875" fill="#000000"></path>
                                <ellipse id="head-right-glare-2" fill="#FFFFFF" fill-rule="nonzero" cx="24.3265306" cy="16.34375" rx="5.32653061" ry="5.34375"></ellipse>
                                <ellipse id="head-right-glare-1" fill="#FFFFFF" fill-rule="nonzero" cx="36.755102" cy="20.5" rx="2.36734694" ry="2.375"></ellipse>
                            </g>
                        </g>
                        <path d="M65.394258,162.764076 C65.394258,162.764076 107.308447,28.342227 172.964949,42.1687065 C131.398613,3.23976073 73.757251,-5.64570437 0.0408631329,15.5123112 C43.609793,113.680154 65.394258,162.764076 65.394258,162.764076 Z" id="hair-background" stroke="#000000" stroke-width="4" fill="#E6646E"></path>
                    </g>
                </g>
                <path d="M173.823426,225.902491 C165.030257,204.856395 156.741131,201.959569 149.613679,193.037273 C182.869954,208.951859 197.50459,208.951859 235.582521,208.951859 C206.979011,186.514065 195.910441,179.465646 194.1064,149.225416 C209.820966,178.340221 248.513236,187.653285 283.114395,182.956048 C289.608676,183.789236 229.140133,174.886914 219.923316,143.506941 C211.705937,112.941461 229.356205,106.388654 235.582521,102.466197 C235.262876,146.213009 274.849242,149.134574 279.842333,145.9231 C239.375055,112.595085 252.818174,95.5810079 258.579725,74.2215905 C262.420758,59.9819789 267.0484,17.4380678 272.46265,-53.4101428 L31.4149897,-26.6556119 C29.6894627,77.20304 42.0545457,143.326041 68.5102388,171.71339 C108.193778,214.294414 121.171555,189.458497 173.823426,225.902491 Z" id="hair-front" stroke="#000000" stroke-width="4" fill="#E6646E" mask="url(#mask-2)"></path>
                <g id="stars" mask="url(#mask-2)" fill="#E6646E" fill-rule="nonzero">
                    <g transform="translate(63.000000, 315.000000)">
                        <path d="M12.9655864,2.62785473 L15.221333,7.40727209 C15.3781965,7.73968501 15.6814936,7.97001838 16.0323505,8.02323935 L21.0765954,8.78970852 C21.9602039,8.92406965 22.3127295,10.0591595 21.6735944,10.710462 L18.0235986,14.4306948 C17.769947,14.6893836 17.6539682,15.0623666 17.7140436,15.4274974 L18.575541,20.6806686 C18.7265638,21.6006933 17.8029051,22.3021631 17.0127471,21.8681069 L12.5012539,19.388097 C12.1875269,19.2157833 11.8124731,19.2157833 11.4987461,19.388097 L6.9872529,21.8681069 C6.19709494,22.3025994 5.27343616,21.6006933 5.42445896,20.6806686 L6.28595642,15.4274974 C6.34603179,15.0623666 6.23005296,14.6893836 5.9764014,14.4306948 L2.32640562,10.710462 C1.68727046,10.0587232 2.03979605,8.92363341 2.92340459,8.78970852 L7.96764953,8.02323935 C8.31850637,7.97001838 8.62180354,7.73968501 8.778667,7.40727209 L11.0344136,2.62785473 C11.4290754,1.79071509 12.5705074,1.79071509 12.9655864,2.62785473 Z" id="star-left" transform="translate(12.000000, 12.000000) rotate(-98.000000) translate(-12.000000, -12.000000) "></path>
                        <path d="M142.965586,2.62785473 L145.221333,7.40727209 C145.378196,7.73968501 145.681494,7.97001838 146.03235,8.02323935 L151.076595,8.78970852 C151.960204,8.92406965 152.31273,10.0591595 151.673594,10.710462 L148.023599,14.4306948 C147.769947,14.6893836 147.653968,15.0623666 147.714044,15.4274974 L148.575541,20.6806686 C148.726564,21.6006933 147.802905,22.3021631 147.012747,21.8681069 L142.501254,19.388097 C142.187527,19.2157833 141.812473,19.2157833 141.498746,19.388097 L136.987253,21.8681069 C136.197095,22.3025994 135.273436,21.6006933 135.424459,20.6806686 L136.285956,15.4274974 C136.346032,15.0623666 136.230053,14.6893836 135.976401,14.4306948 L132.326406,10.710462 C131.68727,10.0587232 132.039796,8.92363341 132.923405,8.78970852 L137.96765,8.02323935 C138.318506,7.97001838 138.621804,7.73968501 138.778667,7.40727209 L141.034414,2.62785473 C141.429075,1.79071509 142.570507,1.79071509 142.965586,2.62785473 Z" id="star-right" transform="translate(142.000000, 12.000000) rotate(-98.000000) translate(-142.000000, -12.000000) "></path>
                    </g>
                </g>
            </g>
        </g>
        <path d="M213.848395,171 C199.937446,171 192,165.319712 192,150.536437 C192,139.934963 198.609334,96.467527 211.877585,19.6595509 L213.820341,8.41321617 L215.817534,19.6500114 C229.470193,96.4638872 236.27027,139.929916 236.27027,150.536437 C236.27027,165.274924 227.961814,171 213.848395,171 Z" id="horn" stroke="#0B0F12" stroke-width="4" fill="#FFA8AF" fill-rule="nonzero" transform="translate(214.135135, 94.500000) rotate(-360.000000) translate(-214.135135, -94.500000) "></path>
    </g>
</svg>