<?xml version="1.0" encoding="UTF-8"?>
<svg width="135px" height="132px" viewBox="0 0 135 132" version="1.1" xmlns="http://www.w3.org/2000/svg" xmlns:xlink="http://www.w3.org/1999/xlink">
    <!-- Generator: Sketch 51.3 (57544) - http://www.bohemiancoding.com/sketch -->
    <title>unicorn/preview</title>
    <desc>Created with Sketch.</desc>
    <defs>
        <rect id="path-1" x="2" y="2" width="131" height="128" rx="17"></rect>
        <path d="M0,41 C1.61882877,13.6666667 10.0568299,-5.52800095e-14 25.3140033,-5.68434189e-14 C40.5711767,-5.68434189e-14 48.4665089,13.6666667 49,41 L0,41 Z" id="path-3"></path>
        <path d="M0,41 C1.61882877,13.6666667 10.0568299,-5.52800095e-14 25.3140033,-5.68434189e-14 C40.5711767,-5.68434189e-14 48.4665089,13.6666667 49,41 L0,41 Z" id="path-5"></path>
        <path d="M20.6955235,68.9063624 C33.330467,68.9063624 29.179483,59.3689656 32.3666788,51.4369284 C35.5538746,43.5048912 55.5176569,-5.68434189e-14 20.6955235,-5.68434189e-14 C-14.1266098,-5.68434189e-14 4.78660122,42.5692044 8.0668309,51.4369284 C11.3470606,60.3046524 8.06058009,68.9063624 20.6955235,68.9063624 Z" id="path-7"></path>
    </defs>
    <g id="unicorn/preview" stroke="none" stroke-width="1" fill="none" fill-rule="evenodd">
        <mask id="mask-2" fill="white">
            <use xlink:href="#path-1"></use>
        </mask>
        <g id="Rectangle-3" fill-rule="nonzero" fill="#FFFFFF">
            <use xlink:href="#path-1"></use>
            <rect stroke="#000000" stroke-width="2" fill-rule="evenodd" x="1" y="1" width="133" height="130" rx="17"></rect>
        </g>
        <rect id="Rectangle-4" fill="#D8D8D8" fill-rule="nonzero" mask="url(#mask-2)" transform="translate(40.782965, 28.231843) rotate(-380.000000) translate(-40.782965, -28.231843) " x="14.2829652" y="22.7318432" width="53" height="11"></rect>
        <path d="M41.533471,29.7463991 L43.4508556,33.8089038 C43.5841896,34.0914548 43.8419922,34.2872382 44.1402205,34.332476 L48.4278287,34.9839748 C49.1788959,35.0981818 49.4785427,36.0630081 48.9352778,36.6166152 L45.8327814,39.7788132 C45.6171776,39.9986986 45.5185955,40.3157342 45.5696596,40.6260953 L46.3019324,45.0912908 C46.4303018,45.8733119 45.6451919,46.4695612 44.9735576,46.1006134 L41.1387883,43.992605 C40.8721205,43.8461383 40.5533247,43.8461383 40.2866568,43.992605 L36.4518875,46.1006134 C35.7802533,46.469932 34.9951433,45.8733119 35.1235127,45.0912908 L35.8557855,40.6260953 C35.9068496,40.3157342 35.8082676,39.9986986 35.5926638,39.7788132 L32.4901673,36.6166152 C31.9469025,36.0626373 32.2465492,35.097811 32.9976165,34.9839748 L37.2852247,34.332476 C37.583453,34.2872382 37.8412556,34.0914548 37.9745895,33.8089038 L39.8919741,29.7463991 C40.2274367,29.0348304 41.1976539,29.0348304 41.533471,29.7463991 Z" id="star" fill="#FFA8AF" fill-rule="nonzero" opacity="0.773503921" mask="url(#mask-2)" transform="translate(40.712723, 37.712723) rotate(-122.000000) translate(-40.712723, -37.712723) "></path>
        <path d="M35.0734956,15.8760775 L36.4258044,18.7413141 C36.5198432,18.940594 36.7016684,19.0786777 36.9120053,19.1105834 L39.9360048,19.5700778 C40.4657236,19.6506267 40.677061,20.3311073 40.2939027,20.7215599 L38.1057485,22.9518208 C37.9536857,23.1069034 37.884157,23.3305048 37.9201718,23.5493989 L38.4366352,26.6986486 C38.5271727,27.2501988 37.9734439,27.6707265 37.4997481,27.4105119 L34.7951306,25.9237585 C34.6070529,25.8204572 34.38221,25.8204572 34.1941323,25.9237585 L31.4895148,27.4105119 C31.015819,27.670988 30.4620902,27.2501988 30.5526276,26.6986486 L31.069091,23.5493989 C31.1051059,23.3305048 31.0355772,23.1069034 30.8835144,22.9518208 L28.6953602,20.7215599 C28.3122019,20.3308458 28.5235392,19.6503651 29.0532581,19.5700778 L32.0772576,19.1105834 C32.2875945,19.0786777 32.4694196,18.940594 32.5634585,18.7413141 L33.9157673,15.8760775 C34.152365,15.3742165 34.8366478,15.3742165 35.0734956,15.8760775 Z" id="star" fill="#FFA8AF" fill-rule="nonzero" mask="url(#mask-2)" transform="translate(34.494631, 21.494631) rotate(-175.000000) translate(-34.494631, -21.494631) "></path>
        <path d="M55.2532231,8.46615122 L57.1706078,12.528656 C57.3039417,12.811207 57.5617443,13.0069903 57.8599726,13.0522281 L62.1475808,13.7037269 C62.8986481,13.8179339 63.1982948,14.7827602 62.6550299,15.3363674 L59.5525335,18.4985653 C59.3369297,18.7184508 59.2383477,19.0354863 59.2894117,19.3458475 L60.0216846,23.811043 C60.150054,24.593064 59.364944,25.1893134 58.6933097,24.8203655 L54.8585405,22.7123572 C54.5918726,22.5658905 54.2730768,22.5658905 54.0064089,22.7123572 L50.1716397,24.8203655 C49.5000054,25.1896842 48.7148954,24.593064 48.8432648,23.811043 L49.5755377,19.3458475 C49.6266017,19.0354863 49.5280197,18.7184508 49.3124159,18.4985653 L46.2099195,15.3363674 C45.6666546,14.7823894 45.9663013,13.8175631 46.7173686,13.7037269 L51.0049768,13.0522281 C51.3032051,13.0069903 51.5610077,12.811207 51.6943417,12.528656 L53.6117263,8.46615122 C53.9471888,7.75458253 54.917406,7.75458253 55.2532231,8.46615122 Z" id="star" fill="#FFA8AF" fill-rule="nonzero" mask="url(#mask-2)" transform="translate(54.432475, 16.432475) rotate(-207.000000) translate(-54.432475, -16.432475) "></path>
        <path d="M70.6267472,23.1275524 L71.8267,25.6699812 C71.9101441,25.8468095 72.0714841,25.9693362 72.2581237,25.9976473 L74.9414285,26.4053734 C75.4114674,26.4768473 75.5989947,27.0806626 75.2590044,27.4271253 L73.3173755,29.406117 C73.1824447,29.5437275 73.1207493,29.7421372 73.1527066,29.9363698 L73.6109834,32.7308138 C73.6913205,33.2202244 73.1999768,33.5933738 72.7796493,33.362476 L70.3797437,32.0432256 C70.2128555,31.9515626 70.0133443,31.9515626 69.8464561,32.0432256 L67.4465505,33.362476 C67.026223,33.5936059 66.5348793,33.2202244 66.6152164,32.7308138 L67.0734932,29.9363698 C67.1054505,29.7421372 67.0437551,29.5437275 66.9088243,29.406117 L64.9671954,27.4271253 C64.6272051,27.0804305 64.8147324,26.4766153 65.2847713,26.4053734 L67.9680761,25.9976473 C68.1547157,25.9693362 68.3160557,25.8468095 68.3994998,25.6699812 L69.5994526,23.1275524 C69.8093944,22.6822329 70.4165834,22.6822329 70.6267472,23.1275524 Z" id="star" fill="#FFA8AF" fill-rule="nonzero" opacity="0.735121783" mask="url(#mask-2)" transform="translate(70.113100, 28.113100) rotate(-206.000000) translate(-70.113100, -28.113100) "></path>
        <path d="M40.1071858,3.91868275 L41.0211389,5.8551428 C41.0846947,5.9898254 41.2075806,6.08314877 41.3497361,6.10471213 L43.3934954,6.4152598 C43.751504,6.46969844 43.8943356,6.92959886 43.6353794,7.19348485 L42.1565232,8.70079877 C42.0537521,8.80561082 42.0067613,8.95673106 42.0311019,9.10466982 L42.3801518,11.2330791 C42.4413412,11.6058423 42.0671056,11.8900544 41.74696,11.7141894 L39.9190538,10.7093723 C39.7919422,10.6395566 39.6399829,10.6395566 39.5128712,10.7093723 L37.6849651,11.7141894 C37.3648195,11.8902312 36.9905839,11.6058423 37.0517732,11.2330791 L37.4008232,9.10466982 C37.4251637,8.95673106 37.378173,8.80561082 37.2754019,8.70079877 L35.7965457,7.19348485 C35.5375895,6.92942211 35.680421,6.46952169 36.0384297,6.4152598 L38.082189,6.10471213 C38.2243444,6.08314877 38.3472303,5.9898254 38.4107861,5.8551428 L39.3247392,3.91868275 C39.484643,3.57950177 39.947113,3.57950177 40.1071858,3.91868275 Z" id="star" fill="#FFA8AF" fill-rule="nonzero" opacity="0.620833453" mask="url(#mask-2)" transform="translate(39.715963, 7.715963) rotate(-229.000000) translate(-39.715963, -7.715963) "></path>
        <g id="Group" mask="url(#mask-2)">
            <g transform="translate(45.000000, 31.000000)">
                <g id="body" stroke="none" fill="none" fill-rule="evenodd" transform="translate(0.000000, 63.000000)">
                    <mask id="mask-4" fill="white">
                        <use xlink:href="#path-3"></use>
                    </mask>
                    <path stroke="#000000" d="M-0.499125387,40.9704391 C1.13333115,13.4070059 9.7197212,-0.5 25.3140033,-0.5 C40.9198433,-0.5 48.9617989,13.4204689 49.4999048,40.9902429 L49.5098542,41.5 L-0.530488867,41.5 L-0.499125387,40.9704391 Z"></path>
                    <mask id="mask-6" fill="white">
                        <use xlink:href="#path-5"></use>
                    </mask>
                    <use id="body-background" fill="#D9D9D9" xlink:href="#path-5"></use>
                    <path d="M5.51748287,41 C6.6774659,39.0508952 7.44343835,37.3938084 7.81540024,36.0287394 C4.55938097,28.7807699 -4.6730102,2 26.6856808,2 C58.0443719,2 48.0026966,27.3071945 45.3953788,36.0287394 C45.9905682,37.5845219 46.500594,39.2416087 46.9254564,41 L5.51748287,41 Z" id="body-glare" fill="#ECECEC" mask="url(#mask-6)"></path>
                    <path d="M30.9916132,41 C29.7953745,34.3520439 29.7953745,29.8354362 30.9916132,27.450177 C32.7859714,23.8722883 36.8621486,21.1141163 34.0235758,19.874495 C31.185003,18.6348737 18.7291236,18.7845281 16.6459934,19.874495 C14.5628631,20.9644618 18.0552628,24.9003541 19.5450325,27.450177 C20.5382123,29.150059 20.3138525,33.6666667 18.8719533,41 L30.9916132,41 Z" id="body-middle" fill="#D9D9D9" mask="url(#mask-6)"></path>
                </g>
                <g id="unicorn-group" stroke="none" fill="none" fill-rule="evenodd" transform="translate(3.000000, 18.000000)">
                    <g id="ears" transform="translate(3.000000, 0.000000)" stroke="#000000">
                        <g id="ear-left">
                            <path d="M0.392614858,14.9420677 C-0.678839317,6.99896858 -0.678839317,2.16843459 0.46095577,0.294744792 C0.857553907,-0.357216156 1.46806578,-0.542362233 2.08305255,-0.190528638 C2.5143813,0.0562343057 2.94651834,0.561473975 3.43204793,1.33015722 C4.14792708,2.46352646 4.72718848,3.65154205 6.20256171,6.87100498 C6.27337537,7.02551678 6.27337537,7.02551678 6.34416801,7.17986584 C7.49844408,9.69579249 8.12996962,10.9803966 8.77218271,12.0295401 L9.10171568,12.5678776 L8.50224708,12.7654544 C5.44881879,13.7718234 2.96881268,14.6313399 1.06317813,15.3435832 L0.476361017,15.5629099 L0.392614858,14.9420677 Z" id="ear-left-outer" fill="#D9D9D9"></path>
                            <path d="M2.42657336,13.3295056 C1.70838311,9.3211678 1.44381227,6.3346726 1.63286084,4.37002 C1.82190942,2.4053674 3.40757365,4.94920853 6.38985355,12.0015434 L2.42657336,13.3295056 Z" id="ear-left-inner" fill="#E6646E"></path>
                        </g>
                        <g id="ear-right" transform="translate(30.500000, 7.500000) scale(-1, 1) translate(-30.500000, -7.500000) translate(26.000000, 0.000000)">
                            <path d="M0.392614858,14.9420677 C-0.678839317,6.99896858 -0.678839317,2.16843459 0.46095577,0.294744792 C0.857553907,-0.357216156 1.46806578,-0.542362233 2.08305255,-0.190528638 C2.5143813,0.0562343057 2.94651834,0.561473975 3.43204793,1.33015722 C4.14792708,2.46352646 4.72718848,3.65154205 6.20256171,6.87100498 C6.27337537,7.02551678 6.27337537,7.02551678 6.34416801,7.17986584 C7.49844408,9.69579249 8.12996962,10.9803966 8.77218271,12.0295401 L9.10171568,12.5678776 L8.50224708,12.7654544 C5.44881879,13.7718234 2.96881268,14.6313399 1.06317813,15.3435832 L0.476361017,15.5629099 L0.392614858,14.9420677 Z" id="ear-right-outer" fill="#D9D9D9"></path>
                            <path d="M2.42657336,13.3295056 C1.70838311,9.3211678 1.44381227,6.3346726 1.63286084,4.37002 C1.82190942,2.4053674 3.40757365,4.94920853 6.38985355,12.0015434 L2.42657336,13.3295056 Z" id="ear-right-inner" fill="#E6646E"></path>
                        </g>
                    </g>
                    <path d="M7.55062405,72.6057055 C3.45844469,59.3266808 14.6961814,51.649103 17.5784402,50.3029148 C31.044363,57.9526138 37.333222,67.1849755 36.4450174,78 C42.1439851,66.8229261 35.0629833,59.2610564 35.4752904,53.2656044 C37.1214624,57.4153224 36.8581752,58.2040443 39.4412271,61.0185324 C42.024279,63.8330206 42.8123062,64.3134894 42.3830181,69.0914761 C42.9302239,68.0000885 44.9431896,64.4207867 42.3830181,59.9552324 C40.6762371,56.9781963 40.5410379,53.0511586 41.9774204,48.1741196 C42.9344924,50.3918903 43.9286606,51.888123 44.9599252,52.6628175 C46.5068221,53.8248592 48.9243588,53.2656044 49.8249559,53.2656044 C51.570792,53.2656044 52.9337766,54.889676 53.9139097,58.1378194 C54.4294842,53.6671489 52.6293176,50.8554633 48.5134098,49.7027626 C45.8081843,48.9451374 43.9447656,46.7202959 43.9447656,32.6834864 C43.9447656,23.3256134 40.6410073,16.0977846 34.0334908,11 L16.7566227,11 C10.6192903,22.1570199 7.55062405,32.2591922 7.55062405,41.3065168 C7.55062405,45.6266127 2.36091843,58.9472037 2.18106748,59.9552324 C1.3821657,64.4329179 3.23672156,69.223932 7.55062405,72.6057055 Z" id="hair-background" stroke="#000000" fill="#E6646E"></path>
                    <g id="head" transform="translate(0.000000, 6.000000)">
                        <mask id="mask-8" fill="white">
                            <use xlink:href="#path-7"></use>
                        </mask>
                        <path stroke="#000000" d="M20.6955235,69.4063624 C16.3393406,69.4063624 13.575881,68.4077046 11.8802752,66.3614356 C10.543967,64.7487696 10.0006622,62.9656359 9.32761786,59.0136057 C8.64001602,54.9760959 8.36190467,53.6758317 7.59788573,51.6103943 C7.37439755,51.0062197 6.20053274,47.9816731 5.99469873,47.4431771 C5.16851075,45.2817321 4.46355368,43.3454795 3.78736899,41.3393655 C2.02448478,36.1092163 0.742450477,31.2156685 0.0518111477,26.595619 C-2.47849078,9.66909975 3.36117297,-0.5 20.6955235,-0.5 C37.7995864,-0.5 43.4965761,9.62888568 40.8321055,26.4135349 C40.0948533,31.0578047 38.747846,35.986914 36.9239941,41.1778239 C36.1821061,43.2893296 35.4011452,45.3338264 34.5272875,47.4960647 C34.1009403,48.5510009 32.9626395,51.2948054 32.8306265,51.6233486 C32.4174994,52.6515063 32.1088707,53.7607834 31.8648923,55.0265599 C31.6615947,56.0812817 31.5643313,56.7905586 31.3125351,58.867516 C30.8295509,62.8514417 30.4130119,64.5620124 29.2067887,66.2079343 C27.6402466,68.3455203 24.9623063,69.4063624 20.6955235,69.4063624 Z"></path>
                        <g id="head-mask-group" mask="url(#mask-8)">
                            <g transform="translate(-9.992832, 0.000000)">
                                <path d="M30.6883551,68.9063624 C43.3232985,68.9063624 39.1723146,59.3689656 42.3595104,51.4369284 C45.5467061,43.5048912 65.5104884,-5.68434189e-14 30.6883551,-5.68434189e-14 C-4.13377828,-5.68434189e-14 14.7794328,42.5692044 18.0596624,51.4369284 C21.3398921,60.3046524 18.0534116,68.9063624 30.6883551,68.9063624 Z" id="head-background" stroke="none" fill="#D9D9D9"></path>
                                <g id="nostrils" stroke="none" stroke-width="1" fill="none" transform="translate(22.483871, 57.255319)">
                                    <path d="M12.4175627,6.05721211 C12.0398957,5.5214634 11.5375832,2.8742261 13.8684631,0.892386981 C16.1993429,-1.08945214 16.799069,0.960666542 15.3483653,2.99173818 C13.8976616,5.02280983 12.7952297,6.59296081 12.4175627,6.05721211 Z" id="nostril-right" fill="#000000"></path>
                                    <path d="M0.323740701,6.11743784 C-0.053926321,5.58168913 -0.556238844,2.93445184 1.77464104,0.952612718 C4.10552092,-1.0292264 4.70524697,1.02089228 3.25454328,3.05196392 C1.80383959,5.08303556 0.701407723,6.65318655 0.323740701,6.11743784 Z" id="nostril-left" fill="#000000" transform="translate(2.019544, 3.185068) scale(-1, 1) translate(-2.019544, -3.185068) "></path>
                                </g>
                                <path d="M30.7042455,61.9959208 C34.3599672,61.9959208 34.3599672,54.0409024 35.7520415,50.2308279 C37.1441158,46.4207534 39.7871617,43.3462804 39.7871617,40.9839753 C39.7871617,40.3266249 37.2148603,35.4174143 38.4914144,32.2606351 C39.7679686,29.1038558 45.5836157,28.510546 44.8952521,25.765036 C43.9348351,21.9344519 40.7548424,8.95531915 30.7042455,8.95531915 C20.6536485,8.95531915 17.1167392,22.9880301 16.1244228,25.765036 C15.1321065,28.5420418 21.3762864,28.1234551 22.3292777,32.2606351 C23.282269,36.3978151 20.9721712,38.1999812 20.9721712,40.9839753 C20.9721712,41.1355279 24.5793291,47.3014127 25.4564099,50.2308279 C26.3839852,53.328893 27.0485237,61.9959208 30.7042455,61.9959208 Z" id="head-glare" stroke="none" fill="#ECECEC"></path>
                                <g id="eyes" stroke="none" stroke-width="1" fill="none" transform="translate(15.430108, 29.802128)">
                                    <g id="head-left-eye" transform="translate(0.137956, 0.100931)">
                                        <path d="M3.45606218,0.131127527 C0.711038549,0.653435505 -0.731138176,3.90217021 0.698688465,6.3428617 C2.34577222,9.15436396 6.57228411,9.03825678 7.99671846,6.14255066 C9.55822134,2.96773404 6.91808646,-0.52768484 3.45606218,0.131127527" fill="#000000"></path>
                                        <ellipse id="head-left-glare-2" fill="#FFFFFF" fill-rule="nonzero" cx="3.57486651" cy="2.3994016" rx="1" ry="1"></ellipse>
                                        <ellipse id="head-left-glare-1" fill="#FFFFFF" fill-rule="nonzero" cx="5.4012874" cy="3.00957447" rx="1" ry="1"></ellipse>
                                    </g>
                                    <g id="head-right-eye" transform="translate(21.602151, 0.146809)">
                                        <path d="M3.45606218,0.131127527 C0.711038549,0.653435505 -0.731138176,3.90217021 0.698688465,6.3428617 C2.34577222,9.15436396 6.57228411,9.03825678 7.99671846,6.14255066 C9.55822134,2.96773404 6.91808646,-0.52768484 3.45606218,0.131127527" fill="#000000"></path>
                                        <ellipse id="head-right-glare-2" fill="#FFFFFF" fill-rule="nonzero" cx="3.57486651" cy="2.3994016" rx="1" ry="1"></ellipse>
                                        <ellipse id="head-right-glare-1" fill="#FFFFFF" fill-rule="nonzero" cx="5.4012874" cy="3.00957447" rx="1" ry="1"></ellipse>
                                    </g>
                                </g>
                                <path d="M9.60990888,23.8951516 C9.60990888,23.8951516 15.7693417,4.16088013 25.4177882,6.190725 C19.3094736,0.475624448 10.8388792,-0.82883745 0.00600497652,2.27733931 C6.40860758,16.6892141 9.60990888,23.8951516 9.60990888,23.8951516 Z" id="hair-background" stroke="#000000" stroke-width="1" fill="#E6646E"></path>
                            </g>
                        </g>
                        <path d="M25.5439444,33.1644083 C24.2517582,30.0746623 23.0336428,29.6493835 21.9862396,28.3395145 C26.8733624,30.6759112 29.0239721,30.6759112 34.6196536,30.6759112 C30.4162705,27.3818521 28.7897063,26.3470841 28.5245965,21.907561 C30.8339054,26.1818622 36.5198662,27.5490993 41.6046243,26.859505 C42.5589811,26.981824 33.6729228,25.6748874 32.3184802,21.0680403 C31.1109082,16.5807677 33.7046754,15.6187598 34.6196536,15.0429098 C34.5726807,21.4653141 40.3900319,21.8942247 41.1237837,21.422753 C35.1769794,16.5299167 37.1524915,14.0321054 37.999171,10.8963612 C38.563624,8.80586499 39.2436717,2.56005676 40.0393141,-7.84106352 L4.6165397,-3.91327069 C4.36296764,11.3340633 6.18005869,21.0414826 10.0678129,25.208987 C15.8994441,31.4602437 17.8065726,27.8141198 25.5439444,33.1644083 Z" id="hair-front" stroke="#000000" fill="#E6646E" mask="url(#mask-8)"></path>
                        <g id="stars" mask="url(#mask-8)" fill="#E6646E" fill-rule="nonzero">
                            <g transform="translate(9.258065, 46.244681)">
                                <path d="M1.90533707,0.385791439 L2.23682671,1.08745058 C2.25987833,1.13625163 2.30444889,1.17006653 2.35600849,1.17787982 L3.09727746,1.29040402 C3.22712674,1.31012937 3.27893158,1.47677022 3.18500849,1.57238697 L2.64862918,2.11854881 C2.61135423,2.15652653 2.59431074,2.21128361 2.60313902,2.26488791 L2.72973901,3.03609815 C2.75193232,3.17116562 2.61619752,3.27414735 2.50008111,3.2104242 L1.83710182,2.84633765 C1.79099858,2.82104052 1.73588314,2.82104052 1.6897799,2.84633765 L1.02680061,3.2104242 C0.910684203,3.27421139 0.7749494,3.17116562 0.797142715,3.03609815 L0.9237427,2.26488791 C0.93257098,2.21128361 0.915527495,2.15652653 0.878252536,2.11854881 L0.341873227,1.57238697 C0.247950139,1.47670618 0.299754976,1.31006533 0.429604258,1.29040402 L1.17087323,1.17787982 C1.22243284,1.17006653 1.26700339,1.13625163 1.29005501,1.08745058 L1.62154465,0.385791439 C1.67954155,0.262892215 1.84727887,0.262892215 1.90533707,0.385791439 Z" id="star-left" transform="translate(1.763441, 1.761702) rotate(-98.000000) translate(-1.763441, -1.761702) "></path>
                                <path d="M21.0092797,0.385791439 L21.3407694,1.08745058 C21.363821,1.13625163 21.4083915,1.17006653 21.4599511,1.17787982 L22.2012201,1.29040402 C22.3310694,1.31012937 22.3828742,1.47677022 22.2889511,1.57238697 L21.7525718,2.11854881 C21.7152969,2.15652653 21.6982534,2.21128361 21.7070817,2.26488791 L21.8336817,3.03609815 C21.855875,3.17116562 21.7201402,3.27414735 21.6040238,3.2104242 L20.9410445,2.84633765 C20.8949412,2.82104052 20.8398258,2.82104052 20.7937226,2.84633765 L20.1307433,3.2104242 C20.0146269,3.27421139 19.8788921,3.17116562 19.9010854,3.03609815 L20.0276854,2.26488791 C20.0365136,2.21128361 20.0194701,2.15652653 19.9821952,2.11854881 L19.4458159,1.57238697 C19.3518928,1.47670618 19.4036976,1.31006533 19.5335469,1.29040402 L20.2748159,1.17787982 C20.3263755,1.17006653 20.370946,1.13625163 20.3939977,1.08745058 L20.7254873,0.385791439 C20.7834842,0.262892215 20.9512215,0.262892215 21.0092797,0.385791439 Z" id="star-right" transform="translate(20.867384, 1.761702) rotate(-98.000000) translate(-20.867384, -1.761702) "></path>
                            </g>
                        </g>
                    </g>
                </g>
                <path d="M17.2265054,38.0630776 C13.7704503,38.0630776 11.7977092,36.6513215 11.7977092,32.9781659 C11.7977092,30.3452886 13.4389417,19.5514365 16.7338027,0.477965351 L17.2194919,-2.33361832 L17.7187901,0.475580484 C21.1091116,19.5505265 22.7977092,30.3440267 22.7977092,32.9781659 C22.7977092,36.6402354 20.7328244,38.0630776 17.2265054,38.0630776 Z" id="horn" stroke="#0B0F12" fill="#FFA8AF" fill-rule="nonzero" transform="translate(17.297709, 19.063078) rotate(-21.000000) translate(-17.297709, -19.063078) "></path>
            </g>
        </g>
    </g>
</svg>