<?xml version="1.0" encoding="UTF-8"?>
<svg width="348px" height="449px" viewBox="0 0 348 449" version="1.1" xmlns="http://www.w3.org/2000/svg" xmlns:xlink="http://www.w3.org/1999/xlink">
    <!-- Generator: Sketch 51.3 (57544) - http://www.bohemiancoding.com/sketch -->
    <title>dog/head</title>
    <desc>Created with Sketch.</desc>
    <defs>
        <path d="M86.8420411,49.4250254 C61.0425803,6.09265753 37.1654391,-8.41782234 15.2106174,5.89358583 C-6.74420437,20.204994 -3.83283871,49.3346926 23.9447144,93.2826815 L86.8420411,49.4250254 Z" id="path-1"></path>
    </defs>
    <g id="dog/head" stroke="none" stroke-width="1" fill="none" fill-rule="evenodd">
        <g id="dog" transform="translate(0.000000, 9.000000)">
            <g id="body" transform="translate(41.000000, 59.000000)">
                <polygon id="body-background" fill="#D18F29" points="96.3939715 313.841202 144.580645 283.013308 70.1496231 91.7381974 20.0806452 235.898088 54.0868704 307.850262"></polygon>
                <path d="M181.529032,298.565814 C186.492988,304.543887 189.799193,313.125389 191.447648,324.310318 C193.096102,335.495247 193.096102,345.92646 191.447648,355.603956 C203.718316,359.186364 212.548636,360.424781 217.938608,359.319207 C238.811393,355.037847 251.063091,339.934255 248.713163,327.899019 C245.453004,311.202002 231.695984,312.933118 207.442104,333.092369 L219.824119,323.491013 C218.906218,310.594084 216.67984,301.5004 213.144987,296.20996 C209.610133,290.91952 201.528129,287.408188 188.898976,285.675966 L181.529032,298.565814 Z" id="body-leg-right" stroke="#000000" stroke-width="4" fill="#D18F2A" stroke-linecap="round" stroke-linejoin="round"></path>
                <path d="M72.7031112,9.08605259 C91.8383841,-3.0286842 115.748605,-3.0286842 144.433774,9.08605259 C187.461528,27.2581578 200.854785,99.7804635 189.981692,141.270994 C184.824542,160.95011 173.082909,184.352324 178.322321,202.497033 C183.561733,220.641743 182.541867,235.77348 185.392542,256.740892 C190.815208,296.625926 168.824268,303.748938 144.433774,308.120469 C128.173445,311.034823 119.780608,306.811066 119.255262,295.449196 C100.085996,296.211566 86.7411899,291.464344 79.2208454,281.207531 C71.7005008,270.950718 67.2483911,251.425164 65.8645161,222.630869" id="body-background" stroke="#000000" stroke-width="4" fill="#D18F29" stroke-linecap="round" stroke-linejoin="round"></path>
                <path d="M182.332258,218.079399 C191.067,229.871323 196.352638,239.612813 198.189175,247.303867 C200.025711,254.994921 200.895728,269.15135 200.799225,289.773156 C176.171785,307.047691 163.858065,310.35247 163.858065,299.687491 C163.858065,289.022512 172.021686,282.613815 188.34893,280.461399 C183.231738,282.500848 181.226181,277.028224 182.332258,264.043528 C183.438335,251.058832 183.438335,235.737456 182.332258,218.079399 Z" id="body-arm-right" stroke="#000000" stroke-width="4" fill="#D18F29" stroke-linecap="round" stroke-linejoin="round"></path>
                <path d="M46.3915786,221.362779 C47.1999676,252.049502 50.7929918,273.161388 57.1706513,284.698437 C63.5483107,296.235485 74.1967776,302.03627 89.1160519,302.100791 C117.431417,290.499221 137.129445,288.136242 148.210136,295.011851 C159.290827,301.887461 164.733573,317.207561 164.538375,340.972152 L152.775289,348.91313 L164.538375,340.972152 C180.444812,333.038601 189.033961,335.257784 190.305822,347.629701 C192.213614,366.187577 147.046122,376.806419 137.4826,374.746361 C132.67632,373.711051 128.267179,364.043957 126.105439,348.91313 C123.943699,333.782303 123.943699,320.494913 121.186715,318.70199 C115.644329,315.097663 74.5232603,344.209008 32.3445479,310.985638 C4.22540639,288.836725 -5.55943683,243.506922 2.99001826,174.996228 L46.3915786,15.7295309 L91.8969196,0" id="body-leg-left" stroke="#000000" stroke-width="4" fill="#D18F29" stroke-linecap="round" stroke-linejoin="round"></path>
                <path d="M69.8806452,238.197425 C72.6885977,236.720924 74.6455926,235.040792 75.7516299,233.157028 C76.8576673,231.273264 77.5780917,228.393311 77.9129032,224.517167" id="body-armpit" stroke="#000000" stroke-width="4" stroke-linecap="round" stroke-linejoin="round"></path>
            </g>
            <g id="head-left-eye" transform="translate(93.000000, 122.000000)">
                <ellipse id="head-left-eye-background" stroke="#000000" stroke-width="4" fill="#FFFFFF" cx="37" cy="47" rx="37" ry="47"></ellipse>
                <ellipse id="head-left-eye-pupil" fill="#000000" cx="38.6086957" cy="51.0517241" rx="24.9347826" ry="34.0344828"></ellipse>
                <g id="head-left-glare" transform="translate(29.760870, 33.224138)" fill="#FFFFFF" fill-rule="nonzero">
                    <ellipse id="head-left-glare-2" cx="6.43478261" cy="6.48275862" rx="6.43478261" ry="6.48275862"></ellipse>
                    <ellipse id="head-left-glare-1" cx="21.3152174" cy="11.75" rx="2.81521739" ry="2.8362069"></ellipse>
                </g>
            </g>
            <g id="head-right-eye" transform="translate(174.000000, 93.000000)">
                <ellipse id="head-right-eye-background" stroke="#000000" stroke-width="4" fill="#FFFFFF" cx="39.5" cy="44.5" rx="39.5" ry="44.5"></ellipse>
                <ellipse id="head-right-eye-pupil" fill="#000000" cx="49.2731959" cy="50.1636364" rx="28.0979381" ry="35.6"></ellipse>
                <g id="head-left-glare" transform="translate(43.164948, 32.363636)" fill="#FFFFFF" fill-rule="nonzero">
                    <ellipse id="head-left-glare-2" cx="6.51546392" cy="6.47272727" rx="6.51546392" ry="6.47272727"></ellipse>
                    <ellipse id="head-left-glare-1" cx="21.5824742" cy="11.7318182" rx="2.85051546" ry="2.83181818"></ellipse>
                </g>
            </g>
            <g id="nose" transform="translate(185.000000, 144.000000)">
                <path d="M0,46.2411687 C20.4733601,25.0530672 48.0898576,14.4590164 82.8494924,14.4590164 C134.988945,14.4590164 160.364283,43.3234645 123.763684,79.7744882 C99.3632847,104.075171 64.7659866,104.075171 19.9717899,79.7744882" id="node-background" stroke="#000000" stroke-width="4" fill="#D18F29"></path>
                <ellipse id="nose-dark" fill="#000000" transform="translate(118.859223, 36.549180) rotate(-8.000000) translate(-118.859223, -36.549180) " cx="118.859223" cy="36.5491803" rx="43.1116505" ry="30.1229508"></ellipse>
            </g>
            <path d="M186,228 C196.185427,225.906141 203.087512,223.299409 206.706254,220.179804 C210.324996,217.060198 213.089578,211.333597 215,203" id="mouth" stroke="#000000" stroke-width="4" stroke-linecap="round" stroke-linejoin="round"></path>
            <path d="M83.2962187,90 C89.1338184,156.895251 85.5186648,203.415926 72.4507579,229.562027 C52.8488974,268.781177 6.75223629,254.092016 2.135091,232.035631 C-2.48205429,209.979245 -2.79297098,178.332221 34.9698226,150.457742 C60.1450183,131.874755 76.253817,111.722175 83.2962187,90 Z" id="ear" fill="#000000"></path>
            <g id="hat-back" transform="translate(55.000000, 0.000000)">
                <mask id="mask-2" fill="white">
                    <use xlink:href="#path-1"></use>
                </mask>
                <path stroke="#000000" stroke-width="4" d="M89.5126429,50.001049 L23.3721397,96.1201385 L22.2541001,94.3512429 C-6.03285743,49.5973046 -9.05831435,19.3260648 14.1184542,4.21812186 C37.3399987,-10.9190086 62.2574746,4.22369752 88.5605155,48.4018708 L89.5126429,50.001049 Z"></path>
                <rect id="hat-back-background" fill="#D18F29" mask="url(#mask-2)" x="-31" y="-21" width="109" height="111"></rect>
                <path d="M-4.98963167,71.1787959 C2.60644964,57.8921726 15.8176388,46.5631629 34.6439357,37.1917668 C53.4702327,27.8203707 74.2304493,25.466426 96.9245856,30.1299327 L117.000732,63.7736373 L64.7106598,109.82929 L19.7122896,112.386438 L-4.98963167,71.1787959 Z" id="hat-back-dark" fill="#000000" mask="url(#mask-2)"></path>
            </g>
            <path d="M124.314836,95.3450054 C168.816658,73.1359695 172.626194,30.4377071 151.842292,22.3117825 C131.05839,14.1858578 132.050988,45.8058032 106.033722,62.3577987 C80.0164558,78.9097942 44.4932885,52.5616998 41.1836978,79.1475759 C37.8741071,105.733452 79.813013,117.554041 124.314836,95.3450054 Z" id="hat-front" stroke="#000000" stroke-width="4" fill="#D18F29"></path>
        </g>
    </g>
</svg>