<?xml version="1.0" encoding="UTF-8"?>
<svg width="135px" height="132px" viewBox="0 0 135 132" version="1.1" xmlns="http://www.w3.org/2000/svg" xmlns:xlink="http://www.w3.org/1999/xlink">
    <!-- Generator: Sketch 51.3 (57544) - http://www.bohemiancoding.com/sketch -->
    <title>dog/how-to-step-3</title>
    <desc>Created with Sketch.</desc>
    <defs>
        <rect id="path-1" x="2" y="2" width="131" height="128" rx="17"></rect>
        <path d="M20.961872,11.5675591 C14.7344159,1.42594112 8.97096806,-1.97012863 3.67152833,1.37934987 C-1.6279114,4.72882838 -0.925167965,11.5464174 5.77975864,21.8321169 L20.961872,11.5675591 Z" id="path-3"></path>
    </defs>
    <g id="dog/how-to-step-3" stroke="none" stroke-width="1" fill="none" fill-rule="evenodd">
        <mask id="mask-2" fill="white">
            <use xlink:href="#path-1"></use>
        </mask>
        <rect stroke="#000000" stroke-width="2" x="1" y="1" width="133" height="130" rx="17"></rect>
        <g id="Group" mask="url(#mask-2)" fill-rule="nonzero">
            <g transform="translate(16.000000, 14.000000)" id="Oval-4">
                <circle fill="#FF6259" cx="5.5" cy="5.5" r="5.5"></circle>
                <circle fill="#FFBF2F" cx="20.5" cy="5.5" r="5.5"></circle>
                <circle fill="#29CC41" cx="35.5" cy="5.5" r="5.5"></circle>
            </g>
        </g>
        <g id="head-left-glare" mask="url(#mask-2)">
            <g transform="translate(42.000000, 45.000000)"></g>
        </g>
        <circle id="Oval-3" fill="#FFE07B" fill-rule="nonzero" mask="url(#mask-2)" cx="109.5" cy="19.5" r="7.5"></circle>
        <rect id="Rectangle-4" fill="#D8D8D8" fill-rule="nonzero" mask="url(#mask-2)" transform="translate(22.663152, 67.514533) rotate(-370.000000) translate(-22.663152, -67.514533) " x="11.4590906" y="63.8905077" width="22.4081223" height="7.24805117"></rect>
        <rect id="Rectangle-4" fill="#D8D8D8" fill-rule="nonzero" mask="url(#mask-2)" transform="translate(67.630708, 43.026586) rotate(-338.000000) translate(-67.630708, -43.026586) " x="41.1307084" y="37.5265859" width="53" height="11"></rect>
        <g id="fire" mask="url(#mask-2)">
            <g transform="translate(25.660035, 50.440041) rotate(-9.000000) translate(-25.660035, -50.440041) translate(3.638004, 19.058648)">
                <g transform="translate(9.200000, 5.425837)">
                    <path d="M11.2935656,52.1564541 C24.1955008,50.8717917 30.2371351,36.6919567 21.7950691,22.0173862 C16.1670251,12.2343392 9.12906076,4.91724234 0.68117595,0.0660956454 C7.18337524,10.701654 9.12052681,18.6168678 6.49263066,23.8117371 C4.68071695,27.3935586 -1.60836948,53.4411165 11.2935656,52.1564541 Z" id="flame-1" fill="#F36E22"></path>
                    <path d="M5.08677231,50.1970687 C9.62731609,50.1970687 10.2338087,34.5199619 8.36262179,27.0764724 C7.11516383,22.114146 4.94404499,17.4867159 1.84926527,13.1941821 C3.32062916,19.380055 3.1352641,24.7673653 1.2931701,29.3561128 C-1.4699709,36.2392341 0.546228531,50.1970687 5.08677231,50.1970687 Z" id="flame-2" fill="#F36E22"></path>
                    <path d="M10.7190012,42.4798162 C10.149876,36.1747538 11.6574624,33.3316717 14.4848523,27.4197036 C16.3697789,23.4783915 16.0389791,18.7930358 13.4924529,13.3636364 C19.5295313,24.1431489 22.6663549,31.8411962 22.902924,36.4577782 C23.139493,41.0743602 20.6720275,45.3764857 15.5005274,49.3641547 C12.6922601,48.9779706 11.0984181,46.6831911 10.7190012,42.4798162 Z" id="flame-3" fill="#FFD04A"></path>
                    <path d="M11.8456389,49.543743 C14.2523229,46.8325651 8.8957564,33.4119853 8.82889411,33.2191902 C8.06608399,31.0196538 6.66373071,26.927804 4.62183426,20.9436408 C3.02124409,29.4890464 2.56518046,35.9656893 3.25364335,40.3735693 C4.28633768,46.9853894 8.80593095,52.9680351 11.8456389,49.543743 Z" id="flame-4" fill="#FEBA17"></path>
                    <path d="M17.3363431,47.2675324 C16.4335249,41.0866833 16.1835769,36.14006 16.5864992,32.4276623 C16.9894215,28.7152647 18.3677992,23.2648956 20.7216323,16.076555 C20.6501884,18.639364 20.6501884,20.1158877 20.7216323,20.5061261 C20.8287982,21.0914837 22.7787568,26.026353 23.110694,28.8325119 C23.4426312,31.6386707 24.1100874,32.8832302 21.629603,38.2845197 C19.9759468,41.8853794 18.5448601,44.879717 17.3363431,47.2675324 Z" id="flame-5" fill="#FEBA17"></path>
                </g>
            </g>
        </g>
        <g id="fire" mask="url(#mask-2)">
            <g transform="translate(88.211064, 52.476178) scale(-1, 1) rotate(4.000000) translate(-88.211064, -52.476178) translate(69.786568, 26.221272)">
                <g transform="translate(7.736364, 4.564593)">
                    <path d="M9.49686202,43.8776518 C20.3462166,42.7969041 25.4266818,30.8678366 18.3276718,18.522563 C13.5949984,10.2923806 7.67671018,4.13672768 0.572807049,0.0556042731 C6.04056554,9.00297873 7.66953391,15.6618094 5.45971214,20.0320963 C3.93605743,23.0453747 -1.35249252,44.9583996 9.49686202,43.8776518 Z" id="flame-1" fill="#F36E22"></path>
                    <path d="M4.27751308,42.22928 C8.09569762,42.22928 8.60570279,29.0406029 7.03220468,22.7786196 C5.98320595,18.6039641 4.15749238,14.7110467 1.55506398,11.0998674 C2.79234725,16.3038558 2.63647208,20.8360375 1.08743849,24.6964124 C-1.2361119,30.4869747 0.459328537,42.22928 4.27751308,42.22928 Z" id="flame-2" fill="#F36E22"></path>
                    <path d="M9.0137056,35.7369882 C8.53512303,30.4327294 9.80286607,28.0409301 12.180444,23.0673697 C13.7654959,19.7516627 13.4873234,15.8100142 11.3459263,11.2424242 C16.4225604,20.3109031 19.0603439,26.7870381 19.259277,30.6708293 C19.45821,34.5546205 17.3832958,38.1738689 13.0345344,41.5285746 C10.6730369,41.2036895 9.33276064,39.2731608 9.0137056,35.7369882 Z" id="flame-3" fill="#FFD04A"></path>
                    <path d="M9.96110544,41.6796568 C11.9849079,39.3988246 7.48052243,28.1084955 7.42429732,27.9463028 C6.78284336,26.0958992 5.60359173,22.6535494 3.88654244,17.6192533 C2.54059162,24.8082454 2.15708357,30.2568497 2.73601827,33.9650663 C3.60442033,39.5273911 7.40498739,44.5604104 9.96110544,41.6796568 Z" id="flame-4" fill="#FEBA17"></path>
                    <path d="M14.5782885,39.7647495 C13.8191005,34.5649876 13.6089169,30.4035425 13.947738,27.2804143 C14.286559,24.1572861 15.4456493,19.572055 17.425009,13.5247209 C17.3649312,15.6807348 17.3649312,16.9228896 17.425009,17.2511854 C17.5151257,17.7436291 19.1548636,21.8951859 19.4339927,24.2559227 C19.7131217,26.6166595 20.2743917,27.6636698 18.1885298,32.2076118 C16.7979552,35.2369065 15.5945415,37.7559524 14.5782885,39.7647495 Z" id="flame-5" fill="#FEBA17"></path>
                </g>
            </g>
        </g>
        <g id="dog" mask="url(#mask-2)">
            <g transform="translate(30.000000, 60.000000)">
                <g id="body" stroke="none" stroke-width="1" fill="none" fill-rule="evenodd" transform="translate(9.000000, 15.000000)">
                    <polygon id="body-background" fill="#D18F29" points="23.227463 75.3218884 34.8387097 67.9231939 16.9035236 22.0171674 4.83870968 56.6155411 13.0329808 73.884063"></polygon>
                    <path d="M17.518822,2.18065262 C22.1297311,-0.726884208 27.8912302,-0.726884208 34.8033191,2.18065262 C45.1714525,6.54195787 48.3987433,23.9473112 45.7787208,33.9050387 C44.5360343,38.6280264 41.706725,44.2445577 42.969234,48.599288 C44.231743,52.9540183 43.985992,56.5856353 44.6729016,61.6178141 C45.9795681,71.1902222 40.6805464,72.8997452 34.8033191,73.9489127 C30.8851675,74.6483576 28.8627971,73.6346558 28.7362078,70.9078071 C24.1171074,71.0907758 20.9014916,69.9514426 19.0893603,67.4898074 C17.2772291,65.0281723 16.2044316,60.3420393 15.8709677,53.4314085" id="body-background" stroke="#000000" fill="#D18F29" stroke-linecap="round" stroke-linejoin="round"></path>
                    <path d="M43.9354839,52.3390558 C46.0402409,55.1691176 47.3138888,57.507075 47.7564277,59.352928 C48.1989666,61.198781 48.4086092,64.5963241 48.3853554,69.5455573 C42.4510325,73.6914459 39.483871,74.4845927 39.483871,71.9249978 C39.483871,69.3654029 41.4510088,67.8273155 45.3852844,67.3107357 C44.1522261,67.8002034 43.6689593,66.4867738 43.9354839,63.3704468 C44.2020085,60.2541198 44.2020085,56.5769894 43.9354839,52.3390558 Z" id="body-arm-right" stroke="#000000" fill="#D18F29" stroke-linecap="round" stroke-linejoin="round"></path>
                    <path d="M11.1786936,53.1270669 C11.3734862,60.4918806 12.2392751,65.5587332 13.7760605,68.3276249 C15.312846,71.0965165 17.8787416,72.4887048 21.4737474,72.5041897 C28.296727,69.7198132 33.0432397,69.152698 35.7132858,70.8028444 C38.3833318,72.4529907 39.6948369,76.1298147 39.6478012,81.8333164 L36.8133227,83.7391512 L39.6478012,81.8333164 C43.4806775,79.9292643 45.550352,80.4618682 45.8568246,83.4311283 C46.3165335,87.8850184 35.4328005,90.4335407 33.1283374,89.9391267 C31.9701977,89.6906522 30.907754,87.3705497 30.3868528,83.7391512 C29.8659515,80.1077528 29.8659515,76.9187791 29.2016181,76.4884776 C27.8661034,75.6234391 17.9574121,82.610162 7.79386697,74.6365532 C1.01817022,69.320814 -1.33962333,58.4416612 0.720486328,41.9990948 L11.1786936,3.77508741 L22.1438361,0" id="body-leg-left" stroke="#000000" fill="#D18F29" stroke-linecap="round" stroke-linejoin="round"></path>
                    <path d="M16.8387097,57.167382 C17.5153247,56.8130217 17.9868898,56.40979 18.2534048,55.9576867 C18.5199198,55.5055834 18.6935161,54.8143946 18.7741935,53.8841202" id="body-armpit" stroke="#000000" stroke-linecap="round" stroke-linejoin="round"></path>
                </g>
                <g id="head-left-eye" stroke="none" stroke-width="1" fill="none" fill-rule="evenodd" transform="translate(23.000000, 31.000000)">
                    <ellipse id="head-left-eye-background" stroke="#000000" fill="#FFFFFF" cx="9" cy="10.5789474" rx="9" ry="10.4210526"></ellipse>
                    <ellipse id="head-left-eye-pupil" fill="#000000" cx="9.5" cy="10.4741379" rx="5.57608696" ry="6.92241379"></ellipse>
                    <g id="head-left-glare" transform="translate(8.000000, 6.000000)" fill="#FFFFFF" fill-rule="nonzero">
                        <circle id="head-left-glare-2" cx="1.5" cy="1.5" r="1.5"></circle>
                        <circle id="head-left-glare-1" cx="4.5" cy="2.5" r="1"></circle>
                    </g>
                </g>
                <g id="head-right-eye" stroke="none" stroke-width="1" fill="none" fill-rule="evenodd" transform="translate(42.000000, 24.000000)">
                    <ellipse id="head-right-eye-background" stroke="#000000" fill="#FFFFFF" cx="8.5" cy="10.1578947" rx="8.5" ry="9.84210526"></ellipse>
                    <ellipse id="head-right-eye-pupil" fill="#000000" cx="9.85051546" cy="10.4" rx="5.45360825" ry="7.10175439"></ellipse>
                    <g id="head-left-glare" transform="translate(8.000000, 6.000000)" fill="#FFFFFF" fill-rule="nonzero">
                        <circle id="head-left-glare-2" cx="1.5" cy="1.5" r="1.5"></circle>
                        <circle id="head-left-glare-1" cx="4.5" cy="2.5" r="1"></circle>
                    </g>
                </g>
                <g id="nose" stroke="none" stroke-width="1" fill="none" fill-rule="evenodd" transform="translate(45.000000, 35.000000)">
                    <path d="M0,11.4275847 C4.81000629,6.19136704 11.2982196,3.5732582 19.4646398,3.5732582 C31.7142701,3.5732582 37.675946,10.7065322 29.0770101,19.7146774 C23.3443862,25.7201075 15.2161053,25.7201075 4.6921675,19.7146774" id="node-background" stroke="#000000" fill="#D18F29"></path>
                    <ellipse id="nose-dark" fill="#000000" transform="translate(27.924757, 9.032403) rotate(-8.000000) translate(-27.924757, -9.032403) " cx="27.9247573" cy="9.03240266" rx="10.1286408" ry="7.44428791"></ellipse>
                </g>
                <path d="M45,54 C47.809773,53.5812282 49.7137964,53.0598818 50.7120701,52.4359607 C51.7103438,51.8120397 52.4729871,50.6667194 53,49" id="mouth" stroke="#000000" stroke-width="1" fill="none" stroke-linecap="round" stroke-linejoin="round"></path>
                <path d="M20.3397743,22 C21.7652347,38.3159148 20.8824647,49.6624211 17.6914641,56.0395187 C12.9049633,65.6051651 1.64880188,62.0224429 0.52135943,56.6428368 C-0.606083023,51.2632306 -0.682004542,43.5444442 8.53914273,36.7457907 C14.6865742,32.213355 18.6201181,27.2980914 20.3397743,22 Z" id="ear" stroke="none" fill="#000000" fill-rule="evenodd"></path>
                <g id="hat-back" stroke="none" stroke-width="1" fill="none" fill-rule="evenodd" transform="translate(13.000000, 0.000000)">
                    <mask id="mask-4" fill="white">
                        <use xlink:href="#path-3"></use>
                    </mask>
                    <path stroke="#000000" d="M21.6383711,11.7137342 L5.63856909,22.5311276 L5.36089487,22.1051612 C-1.47638803,11.6164203 -2.20943171,4.50487675 3.40439137,0.956694168 C9.01406912,-2.58886838 15.0340332,0.958351655 21.3879548,11.3059232 L21.6383711,11.7137342 Z"></path>
                    <rect id="hat-back-background" fill="#D18F29" mask="url(#mask-4)" x="-6" y="-4" width="28" height="25"></rect>
                    <path d="M-1.20439385,16.6588671 C0.629143017,13.5492319 3.81805074,10.8977615 8.36232931,8.70445606 C12.9066079,6.51115059 17.9176947,5.96022736 23.3955896,7.05168637 L28.241556,14.9257449 L15.6198144,25.7047274 L4.75813886,26.3032089 L-1.20439385,16.6588671 Z" id="hat-back-dark" fill="#000000" mask="url(#mask-4)"></path>
                </g>
                <path d="M29.3206916,23.154013 C40.1747947,17.7308763 41.1039498,7.30455639 36.0347054,5.32031897 C30.9654609,3.33608156 31.207558,11.057231 24.8618834,15.0989974 C18.5162087,19.1407637 9.85202158,12.7069267 9.04480433,19.1988267 C8.23758709,25.6907266 18.4665885,28.5771496 29.3206916,23.154013 Z" id="hat-front" stroke="#000000" stroke-width="1" fill="#D18F29" fill-rule="evenodd"></path>
            </g>
        </g>
        <g id="fire" mask="url(#mask-2)">
            <g transform="translate(118.028666, 77.414374) rotate(9.000000) translate(-118.028666, -77.414374) translate(105.614513, 59.724206)">
                <g transform="translate(5.227273, 3.014354)">
                    <path d="M6.41679866,28.9758078 C13.7474436,28.2621065 17.1801904,20.3844204 12.383562,12.2318812 C9.18580974,6.79685511 5.18696634,2.7318013 0.38703179,0.036719803 C4.08146321,5.94536331 5.18211751,10.3427043 3.68899469,13.2287428 C2.65949827,15.2186437 -0.913846295,29.6895091 6.41679866,28.9758078 Z" id="flame-1" fill="#F36E22"></path>
                    <path d="M2.89021154,27.8872604 C5.47006596,27.8872604 5.81466405,19.1777566 4.75148965,15.0424847 C4.04270672,12.2856367 2.80911647,9.71484218 1.0507189,7.33010114 C1.88672111,10.7666972 1.78140006,13.7596474 0.734755738,16.3089516 C-0.83521074,20.1329078 0.31035712,27.8872604 2.89021154,27.8872604 Z" id="flame-2" fill="#F36E22"></path>
                    <path d="M6.09034162,23.5998979 C5.76697502,20.0970854 6.62355816,18.5175954 8.23002972,15.2331687 C9.30101076,13.0435508 9.11305632,10.4405754 7.66616641,7.42424242 C11.0963246,13.4128605 12.8786108,17.6895535 13.013025,20.2543212 C13.1474392,22.819089 11.7454701,25.2091587 8.80711783,27.4245304 C7.21151142,27.2099837 6.30591935,25.9351062 6.09034162,23.5998979 Z" id="flame-3" fill="#FFD04A"></path>
                    <path d="M6.73047665,27.5243016 C8.09791072,26.0180917 5.05440705,18.562214 5.01641711,18.4551057 C4.58300227,17.233141 3.78621063,14.9598911 2.62604219,11.635356 C1.71661596,16.3828036 1.4574889,19.9809385 1.84866099,22.4297607 C2.43541914,26.1029941 5.00336986,29.4266861 6.73047665,27.5243016 Z" id="flame-4" fill="#FEBA17"></path>
                    <path d="M9.85019493,26.2597402 C9.33723004,22.8259352 9.19521415,20.0778111 9.42414727,18.015368 C9.65308038,15.9529248 10.4362495,12.924942 11.7736547,8.93141946 C11.7330616,10.3552022 11.7330616,11.1754931 11.7736547,11.3922923 C11.8345444,11.7174909 12.9424754,14.459085 13.1310761,16.0180621 C13.3196768,17.5770393 13.6989133,18.2684612 12.2895472,21.2691776 C11.3499698,23.2696552 10.5368523,24.9331761 9.85019493,26.2597402 Z" id="flame-5" fill="#FEBA17"></path>
                </g>
            </g>
        </g>
    </g>
</svg>