<?xml version="1.0" encoding="UTF-8"?>
<svg width="135px" height="132px" viewBox="0 0 135 132" version="1.1" xmlns="http://www.w3.org/2000/svg" xmlns:xlink="http://www.w3.org/1999/xlink">
    <!-- Generator: Sketch 51.3 (57544) - http://www.bohemiancoding.com/sketch -->
    <title>dog/preview</title>
    <desc>Created with Sketch.</desc>
    <defs>
        <rect id="path-1" x="2" y="2" width="131" height="128" rx="17"></rect>
        <path d="M20.961872,11.5675591 C14.7344159,1.42594112 8.97096806,-1.97012863 3.67152833,1.37934987 C-1.6279114,4.72882838 -0.925167965,11.5464174 5.77975864,21.8321169 L20.961872,11.5675591 Z" id="path-3"></path>
    </defs>
    <g id="dog/preview" stroke="none" stroke-width="1" fill="none" fill-rule="evenodd">
        <mask id="mask-2" fill="white">
            <use xlink:href="#path-1"></use>
        </mask>
        <g id="Rectangle-3" fill-rule="nonzero" fill="#FFFFFF">
            <use xlink:href="#path-1"></use>
            <rect stroke="#000000" stroke-width="2" fill-rule="evenodd" x="1" y="1" width="133" height="130" rx="17"></rect>
        </g>
        <rect id="Rectangle-4" fill="#D8D8D8" fill-rule="nonzero" mask="url(#mask-2)" transform="translate(22.663152, 70.514533) rotate(-370.000000) translate(-22.663152, -70.514533) " x="11.4590906" y="66.8905077" width="22.4081223" height="7.24805117"></rect>
        <rect id="Rectangle-4" fill="#D8D8D8" fill-rule="nonzero" mask="url(#mask-2)" transform="translate(67.630708, 46.026586) rotate(-338.000000) translate(-67.630708, -46.026586) " x="41.1307084" y="40.5265859" width="53" height="11"></rect>
        <g id="fire" mask="url(#mask-2)">
            <g transform="translate(110.261478, 61.224048) rotate(9.000000) translate(-110.261478, -61.224048) translate(96.761478, 29.724048)">
                <g>
                    <path d="M11.9213236,62.8886475 C25.4119112,61.3396411 31.7291959,44.2420324 22.9019596,26.5478868 C17.0171353,14.7517898 9.65806287,5.92905952 0.824742182,0.0796960955 C7.62360519,12.9037251 9.64913956,22.4476463 6.90134529,28.71146 C5.00676278,33.0303101 -1.56926407,64.4376539 11.9213236,62.8886475 Z" id="Path-2" fill="#F36E22"></path>
                    <path d="M6.1588723,60.5260809 C11.6563917,60.5260809 12.3907101,41.623108 10.1251475,32.6479773 C8.61477235,26.6645568 5.98606344,21.084944 2.23902073,15.9091388 C4.0204927,23.3678741 3.79605967,29.863727 1.56572164,35.3966976 C-1.7797854,43.6961534 0.66135293,60.5260809 6.1588723,60.5260809 Z" id="Path-6" fill="#F36E22"></path>
                    <path d="M9.86050559,53.1695708 C9.17143023,45.5671206 10.9967589,42.1390197 14.4200562,35.0105504 C16.7022544,30.2582376 16.3017344,24.6087798 13.2184964,18.0621771 C20.5279634,31.0597817 24.3259114,40.3418502 24.6123403,45.9083827 C24.8987691,51.4749152 21.9112548,56.6622858 15.6497973,61.4704943 C12.2496531,61.0048455 10.3198892,58.237871 9.86050559,53.1695708 Z" id="Path-5" fill="#FFD04A"></path>
                    <path d="M14.2211771,61.192167 C17.1350994,57.9231121 10.6495705,41.7409899 10.5686162,41.5085235 C9.64503443,38.8563903 7.9471179,33.9225637 5.47486659,26.7070438 C3.53693231,37.010831 2.98474764,44.8201677 3.81831257,50.1350538 C5.06865998,58.107383 10.5408133,65.321073 14.2211771,61.192167 Z" id="Path-3" fill="#FEBA17"></path>
                    <path d="M17.7955372,58.8513418 C16.7024389,51.3986642 16.3998114,45.434178 16.8876545,40.9578831 C17.3754976,36.4815883 19.0443854,29.9097009 21.8943179,21.2422211 C21.8078163,24.3323772 21.8078163,26.1127241 21.8943179,26.5832616 C22.0240703,27.2890678 24.3850067,33.2393814 24.7869038,36.6229613 C25.1888009,40.0065413 25.9969317,41.5071928 22.9936546,48.0199016 C20.9914699,52.3617074 19.2587641,55.9721875 17.7955372,58.8513418 Z" id="Path-4" fill="#FEBA17"></path>
                </g>
            </g>
        </g>
        <g id="fire" mask="url(#mask-2)">
            <g transform="translate(23.519081, 48.957258) rotate(-9.000000) translate(-23.519081, -48.957258) translate(15.003473, 29.087505)">
                <g>
                    <path d="M7.50601856,39.9293 C16.0000923,38.9458039 19.9776419,28.0901793 14.4197523,16.8558012 C10.7144926,9.36621572 6.08100255,3.76448223 0.519282114,0.0506006956 C4.80004771,8.19284131 6.07538417,14.2524739 4.34529148,18.2294984 C3.15240619,20.9716255 -0.988055152,40.9127961 7.50601856,39.9293 Z" id="Path-2" fill="#F36E22"></path>
                    <path d="M3.87780849,38.4292577 C7.33920958,38.4292577 7.80155822,26.4273701 6.37509284,20.7288745 C5.42411592,16.9298774 3.76900291,13.387266 1.4097538,10.1010405 C2.53142133,14.8367454 2.39011164,18.9610965 0.985824739,22.4740937 C-1.12060562,27.7435895 0.4164074,38.4292577 3.87780849,38.4292577 Z" id="Path-6" fill="#F36E22"></path>
                    <path d="M6.20846648,33.7584577 C5.77460422,28.9315051 6.92388526,26.7549331 9.07929464,22.2289209 C10.5162342,19.2115794 10.264055,15.6246221 8.32275696,11.4680489 C12.925014,19.7204963 15.3163146,25.6138732 15.4966587,29.1481795 C15.6770028,32.6824859 13.7959752,35.9760545 9.85357609,39.0288853 C7.71274453,38.7332352 6.49770799,36.976426 6.20846648,33.7584577 Z" id="Path-5" fill="#FFD04A"></path>
                    <path d="M8.9540745,38.8521695 C10.7887663,36.7765791 6.70528515,26.5022158 6.65431389,26.3546181 C6.07279946,24.670724 5.0037409,21.5381357 3.44713822,16.9568532 C2.22695738,23.4989403 1.87928555,28.4572493 2.40412273,31.8317802 C3.1913785,36.8935765 6.63680835,41.4736972 8.9540745,38.8521695 Z" id="Path-3" fill="#FEBA17"></path>
                    <path d="M11.2045975,37.3659313 C10.5163504,32.6340725 10.3258071,28.8470971 10.6329676,26.0050052 C10.9401281,23.1629132 11.9909093,18.9902863 13.7853113,13.4871245 C13.7308473,15.4491284 13.7308473,16.5795073 13.7853113,16.8782613 C13.8670072,17.3263922 15.3535227,21.1043691 15.606569,23.2526739 C15.8596154,25.4009786 16.3684385,26.3537732 14.4774862,30.4888264 C13.2168514,33.2455285 12.1258885,35.5378968 11.2045975,37.3659313 Z" id="Path-4" fill="#FEBA17"></path>
                </g>
            </g>
        </g>
        <g id="fire" mask="url(#mask-2)">
            <g transform="translate(75.935340, 34.726262) scale(-1, 1) rotate(4.000000) translate(-75.935340, -34.726262) translate(64.787348, 8.714281)">
                <g>
                    <path d="M9.71367107,51.90809 C20.7060018,50.629545 25.8534189,36.5172331 18.660856,21.9125415 C13.865814,12.1760804 7.86953271,4.8938269 0.672012148,0.0657809042 C6.21182645,10.6506937 7.86226186,18.528216 5.62331839,23.6983479 C4.07958448,27.2631131 -1.27865961,53.186635 9.71367107,51.90809 Z" id="Path-2" fill="#F36E22"></path>
                    <path d="M5.0183404,49.958035 C9.49780063,49.958035 10.0961342,34.3555812 8.25012015,26.9475368 C7.01944413,22.0088406 4.87753317,17.4034458 1.82438726,13.1313526 C3.27595702,19.2877691 3.09308566,24.6494255 1.27577319,29.2163218 C-1.45019551,36.0666663 0.538880165,49.958035 5.0183404,49.958035 Z" id="Path-6" fill="#F36E22"></path>
                    <path d="M8.03448604,43.885995 C7.47301722,37.6109567 8.96032211,34.7814131 11.7496754,28.8975972 C13.6092443,24.9750533 13.2828947,20.3120088 10.7706267,14.9084636 C16.7264887,25.6366452 19.821113,33.2980351 20.0544995,37.8926334 C20.287886,42.4872316 17.853615,46.7688708 12.7516867,50.7375509 C9.9811988,50.3532058 8.40879858,48.0693538 8.03448604,43.885995 Z" id="Path-5" fill="#FFD04A"></path>
                    <path d="M11.5876258,50.5078204 C13.9619329,47.8095529 8.67742784,34.4528806 8.61146504,34.2610036 C7.85891695,32.0719412 6.4754294,27.9995764 4.46100241,22.0439091 C2.88194485,30.5486224 2.43201659,36.9944241 3.11121765,41.3813142 C4.13001924,47.9616495 8.58881081,53.9158063 11.5876258,50.5078204 Z" id="Path-3" fill="#FEBA17"></path>
                    <path d="M14.5000674,48.5757107 C13.6093947,42.4242943 13.3628093,37.5012263 13.7603111,33.8065067 C14.1578129,30.1117871 15.5176474,24.6873722 17.8398146,17.5332618 C17.7693318,20.0838669 17.7693318,21.5533596 17.8398146,21.9417397 C17.9455388,22.5243099 19.8692647,27.4356799 20.1967364,30.228476 C20.5242081,33.0212722 21.1826851,34.2599052 18.7355704,39.6354743 C17.1041607,43.2191871 15.6923263,46.1992659 14.5000674,48.5757107 Z" id="Path-4" fill="#FEBA17"></path>
                </g>
            </g>
        </g>
        <g id="dog" mask="url(#mask-2)">
            <g transform="translate(30.000000, 63.000000)">
                <g id="body" stroke="none" stroke-width="1" fill="none" fill-rule="evenodd" transform="translate(9.000000, 15.000000)">
                    <polygon id="body-background" fill="#D18F29" points="23.227463 75.3218884 34.8387097 67.9231939 16.9035236 22.0171674 4.83870968 56.6155411 13.0329808 73.884063"></polygon>
                    <path d="M17.518822,2.18065262 C22.1297311,-0.726884208 27.8912302,-0.726884208 34.8033191,2.18065262 C45.1714525,6.54195787 48.3987433,23.9473112 45.7787208,33.9050387 C44.5360343,38.6280264 41.706725,44.2445577 42.969234,48.599288 C44.231743,52.9540183 43.985992,56.5856353 44.6729016,61.6178141 C45.9795681,71.1902222 40.6805464,72.8997452 34.8033191,73.9489127 C30.8851675,74.6483576 28.8627971,73.6346558 28.7362078,70.9078071 C24.1171074,71.0907758 20.9014916,69.9514426 19.0893603,67.4898074 C17.2772291,65.0281723 16.2044316,60.3420393 15.8709677,53.4314085" id="body-background" stroke="#000000" fill="#D18F29" stroke-linecap="round" stroke-linejoin="round"></path>
                    <path d="M43.9354839,52.3390558 C46.0402409,55.1691176 47.3138888,57.507075 47.7564277,59.352928 C48.1989666,61.198781 48.4086092,64.5963241 48.3853554,69.5455573 C42.4510325,73.6914459 39.483871,74.4845927 39.483871,71.9249978 C39.483871,69.3654029 41.4510088,67.8273155 45.3852844,67.3107357 C44.1522261,67.8002034 43.6689593,66.4867738 43.9354839,63.3704468 C44.2020085,60.2541198 44.2020085,56.5769894 43.9354839,52.3390558 Z" id="body-arm-right" stroke="#000000" fill="#D18F29" stroke-linecap="round" stroke-linejoin="round"></path>
                    <path d="M11.1786936,53.1270669 C11.3734862,60.4918806 12.2392751,65.5587332 13.7760605,68.3276249 C15.312846,71.0965165 17.8787416,72.4887048 21.4737474,72.5041897 C28.296727,69.7198132 33.0432397,69.152698 35.7132858,70.8028444 C38.3833318,72.4529907 39.6948369,76.1298147 39.6478012,81.8333164 L36.8133227,83.7391512 L39.6478012,81.8333164 C43.4806775,79.9292643 45.550352,80.4618682 45.8568246,83.4311283 C46.3165335,87.8850184 35.4328005,90.4335407 33.1283374,89.9391267 C31.9701977,89.6906522 30.907754,87.3705497 30.3868528,83.7391512 C29.8659515,80.1077528 29.8659515,76.9187791 29.2016181,76.4884776 C27.8661034,75.6234391 17.9574121,82.610162 7.79386697,74.6365532 C1.01817022,69.320814 -1.33962333,58.4416612 0.720486328,41.9990948 L11.1786936,3.77508741 L22.1438361,0" id="body-leg-left" stroke="#000000" fill="#D18F29" stroke-linecap="round" stroke-linejoin="round"></path>
                    <path d="M16.8387097,57.167382 C17.5153247,56.8130217 17.9868898,56.40979 18.2534048,55.9576867 C18.5199198,55.5055834 18.6935161,54.8143946 18.7741935,53.8841202" id="body-armpit" stroke="#000000" stroke-linecap="round" stroke-linejoin="round"></path>
                </g>
                <g id="head-left-eye" stroke="none" stroke-width="1" fill="none" fill-rule="evenodd" transform="translate(23.000000, 31.000000)">
                    <ellipse id="head-left-eye-background" stroke="#000000" fill="#FFFFFF" cx="9" cy="10.5789474" rx="9" ry="10.4210526"></ellipse>
                    <ellipse id="head-left-eye-pupil" fill="#000000" cx="9.5" cy="10.4741379" rx="5.57608696" ry="6.92241379"></ellipse>
                    <g id="head-left-glare" transform="translate(8.000000, 6.000000)" fill="#FFFFFF" fill-rule="nonzero">
                        <circle id="head-left-glare-2" cx="1.5" cy="1.5" r="1.5"></circle>
                        <circle id="head-left-glare-1" cx="4.5" cy="2.5" r="1"></circle>
                    </g>
                </g>
                <g id="head-right-eye" stroke="none" stroke-width="1" fill="none" fill-rule="evenodd" transform="translate(42.000000, 24.000000)">
                    <ellipse id="head-right-eye-background" stroke="#000000" fill="#FFFFFF" cx="8.5" cy="10.1578947" rx="8.5" ry="9.84210526"></ellipse>
                    <ellipse id="head-right-eye-pupil" fill="#000000" cx="9.85051546" cy="10.4" rx="5.45360825" ry="7.10175439"></ellipse>
                    <g id="head-left-glare" transform="translate(8.000000, 6.000000)" fill="#FFFFFF" fill-rule="nonzero">
                        <circle id="head-left-glare-2" cx="1.5" cy="1.5" r="1.5"></circle>
                        <circle id="head-left-glare-1" cx="4.5" cy="2.5" r="1"></circle>
                    </g>
                </g>
                <g id="nose" stroke="none" stroke-width="1" fill="none" fill-rule="evenodd" transform="translate(45.000000, 35.000000)">
                    <path d="M0,11.4275847 C4.81000629,6.19136704 11.2982196,3.5732582 19.4646398,3.5732582 C31.7142701,3.5732582 37.675946,10.7065322 29.0770101,19.7146774 C23.3443862,25.7201075 15.2161053,25.7201075 4.6921675,19.7146774" id="node-background" stroke="#000000" fill="#D18F29"></path>
                    <ellipse id="nose-dark" fill="#000000" transform="translate(27.924757, 9.032403) rotate(-8.000000) translate(-27.924757, -9.032403) " cx="27.9247573" cy="9.03240266" rx="10.1286408" ry="7.44428791"></ellipse>
                </g>
                <path d="M45,54 C47.809773,53.5812282 49.7137964,53.0598818 50.7120701,52.4359607 C51.7103438,51.8120397 52.4729871,50.6667194 53,49" id="mouth" stroke="#000000" stroke-width="1" fill="none" stroke-linecap="round" stroke-linejoin="round"></path>
                <path d="M20.3397743,22 C21.7652347,38.3159148 20.8824647,49.6624211 17.6914641,56.0395187 C12.9049633,65.6051651 1.64880188,62.0224429 0.52135943,56.6428368 C-0.606083023,51.2632306 -0.682004542,43.5444442 8.53914273,36.7457907 C14.6865742,32.213355 18.6201181,27.2980914 20.3397743,22 Z" id="ear" stroke="none" fill="#000000" fill-rule="evenodd"></path>
                <g id="hat-back" stroke="none" stroke-width="1" fill="none" fill-rule="evenodd" transform="translate(13.000000, 0.000000)">
                    <mask id="mask-4" fill="white">
                        <use xlink:href="#path-3"></use>
                    </mask>
                    <path stroke="#000000" d="M21.6383711,11.7137342 L5.63856909,22.5311276 L5.36089487,22.1051612 C-1.47638803,11.6164203 -2.20943171,4.50487675 3.40439137,0.956694168 C9.01406912,-2.58886838 15.0340332,0.958351655 21.3879548,11.3059232 L21.6383711,11.7137342 Z"></path>
                    <rect id="hat-back-background" fill="#D18F29" mask="url(#mask-4)" x="-6" y="-4" width="28" height="25"></rect>
                    <path d="M-1.20439385,16.6588671 C0.629143017,13.5492319 3.81805074,10.8977615 8.36232931,8.70445606 C12.9066079,6.51115059 17.9176947,5.96022736 23.3955896,7.05168637 L28.241556,14.9257449 L15.6198144,25.7047274 L4.75813886,26.3032089 L-1.20439385,16.6588671 Z" id="hat-back-dark" fill="#000000" mask="url(#mask-4)"></path>
                </g>
                <path d="M29.3206916,23.154013 C40.1747947,17.7308763 41.1039498,7.30455639 36.0347054,5.32031897 C30.9654609,3.33608156 31.207558,11.057231 24.8618834,15.0989974 C18.5162087,19.1407637 9.85202158,12.7069267 9.04480433,19.1988267 C8.23758709,25.6907266 18.4665885,28.5771496 29.3206916,23.154013 Z" id="hat-front" stroke="#000000" stroke-width="1" fill="#D18F29" fill-rule="evenodd"></path>
            </g>
        </g>
    </g>
</svg>