<?xml version="1.0" encoding="UTF-8"?>
<svg width="366px" height="240px" viewBox="0 0 366 240" version="1.1" xmlns="http://www.w3.org/2000/svg" xmlns:xlink="http://www.w3.org/1999/xlink">
    <!-- Generator: Sketch 51.3 (57544) - http://www.bohemiancoding.com/sketch -->
    <title>ninja/head</title>
    <desc>Created with Sketch.</desc>
    <defs></defs>
    <g id="ninja/head" stroke="none" stroke-width="1" fill="none" fill-rule="evenodd">
        <g id="head" transform="translate(61.000000, 0.000000)">
            <path d="M120.794979,239.652374 C143.54216,239.652374 230.893837,236.551489 242.635311,146.068756 C253.37467,49.1265202 212.761226,0.436934787 120.794979,0 C35.6001268,2.55709349 -4.52975523,51.2466789 0.40533306,146.068756 C6.869003,224.859473 98.0477986,239.652374 120.794979,239.652374 Z" id="head-background" stroke="#000000" stroke-width="4" fill="#000000"></path>
            <path d="M124.638639,183.467708 C188.334102,183.467708 212.593353,170.856377 212.593353,143.239079 C214.257125,135.232057 207.702121,90 124.638639,90 C41.5751573,90 30.5947491,129.318818 31.0110604,143.239079 C30.8842184,176.087657 60.9431767,183.467708 124.638639,183.467708 Z" id="head-face" stroke="#000000" stroke-width="4" fill="#FED4A0"></path>
            <g id="eyes" transform="translate(58.000000, 114.000000)">
                <g id="Group" transform="translate(78.000000, 0.000000)">
                    <path d="M19.9447851,0.484435765 C3.44582892,3.61796772 -5.2223699,23.108411 3.37159878,37.7510837 C13.2713907,54.6183967 38.6748275,53.9218239 47.2363859,36.5493386 C56.6217942,17.5023592 40.7532715,-3.46803996 19.9447851,0.484435765" id="head-left-eye" fill="#000000"></path>
                    <g id="head-left-glare" transform="translate(16.000000, 13.000000)" fill="#FFFFFF" fill-rule="nonzero">
                        <ellipse id="head-left-glare-2" cx="5.06666667" cy="4.88888889" rx="5.06666667" ry="4.88888889"></ellipse>
                        <ellipse id="head-left-glare-1" cx="16.7833333" cy="8.86111111" rx="2.21666667" ry="2.13888889"></ellipse>
                    </g>
                </g>
                <g id="Group" transform="translate(0.133962, 0.000000)">
                    <path d="M19.9447851,0.484435765 C3.44582892,3.61796772 -5.2223699,23.108411 3.37159878,37.7510837 C13.2713907,54.6183967 38.6748275,53.9218239 47.2363859,36.5493386 C56.6217942,17.5023592 40.7532715,-3.46803996 19.9447851,0.484435765" id="head-left-eye" fill="#000000"></path>
                    <g id="head-left-glare" transform="translate(16.000000, 13.000000)" fill="#FFFFFF" fill-rule="nonzero">
                        <ellipse id="head-left-glare-2" cx="5.06666667" cy="4.88888889" rx="5.06666667" ry="4.88888889"></ellipse>
                        <ellipse id="head-left-glare-1" cx="16.7833333" cy="8.86111111" rx="2.21666667" ry="2.13888889"></ellipse>
                    </g>
                </g>
            </g>
        </g>
        <path d="M291.21148,139.864207 C310.288605,155.733 320.931596,180 330.183894,180 C339.436191,180 356.375857,161.755003 353.635283,150.216347 C351.808234,142.52391 338.960456,133.75922 315.091949,123.922277 C338.500337,126.40126 352.293367,125.792077 356.471038,122.094729 C362.737545,116.548706 356.471038,93.302596 347.367945,90.5376282 C338.264853,87.7726604 300.293038,96.0736045 283.069463,106.250209 C265.845888,116.426813 272.134355,123.995413 291.21148,139.864207 Z" id="head-bow" fill="#000000"></path>
    </g>
</svg>