<?xml version="1.0" encoding="UTF-8"?>
<svg width="135px" height="132px" viewBox="0 0 135 132" version="1.1" xmlns="http://www.w3.org/2000/svg" xmlns:xlink="http://www.w3.org/1999/xlink">
    <!-- Generator: Sketch 51.3 (57544) - http://www.bohemiancoding.com/sketch -->
    <title>ninja/how-to-step-3</title>
    <desc>Created with Sketch.</desc>
    <defs>
        <rect id="path-1" x="2" y="2" width="131" height="128" rx="17"></rect>
    </defs>
    <g id="ninja/how-to-step-3" stroke="none" stroke-width="1" fill="none" fill-rule="evenodd">
        <mask id="mask-2" fill="white">
            <use xlink:href="#path-1"></use>
        </mask>
        <rect stroke="#000000" stroke-width="2" x="1" y="1" width="133" height="130" rx="17"></rect>
        <g id="Group" mask="url(#mask-2)" fill-rule="nonzero">
            <g transform="translate(16.000000, 14.000000)" id="Oval-4">
                <circle fill="#FF6259" cx="5.5" cy="5.5" r="5.5"></circle>
                <circle fill="#FFBF2F" cx="20.5" cy="5.5" r="5.5"></circle>
                <circle fill="#29CC41" cx="35.5" cy="5.5" r="5.5"></circle>
            </g>
        </g>
        <g id="Group-3" mask="url(#mask-2)">
            <g transform="translate(11.000000, 62.000000)">
                <g id="Group-2" stroke-width="1" fill="none" transform="translate(7.000000, 0.029067)">
                    <g id="head">
                        <path d="M33.0485009,64.9348758 C39.2719402,64.9348758 63.1706321,64.0946772 66.3830017,39.5779786 C69.3212009,13.311049 58.2097006,0.118389422 33.0485009,0 C9.7398984,0.692855844 -1.23930333,13.8855154 0.110895752,39.5779786 C1.87930205,60.9266735 26.8250617,64.9348758 33.0485009,64.9348758 Z" id="head-background" fill="#000000"></path>
                        <path d="M34.1000944,49.7113909 C51.5266428,49.7113909 58.163772,46.2942948 58.163772,38.811265 C58.6189662,36.6417268 56.8255717,24.3859 34.1000944,24.3859 C11.374617,24.3859 8.37046873,35.0395084 8.48436804,38.811265 C8.44966511,47.7117334 16.6735459,49.7113909 34.1000944,49.7113909 Z" id="head-face" fill="#FED4A0"></path>
                        <g id="eyes" transform="translate(15.868317, 30.888807)">
                            <g id="Group" transform="translate(21.340151, 0.000000)">
                                <path d="M5.45672721,0.131260023 C0.942750114,0.980304433 -1.42879694,6.26132665 0.922441365,10.2288239 C3.63094204,14.7990973 10.5811109,14.6103578 12.923482,9.90320573 C15.4912517,4.742342 11.1497559,-0.939680839 5.45672721,0.131260023" id="head-left-eye" fill="#000000"></path>
                                <g id="head-left-glare" transform="translate(4.377467, 3.522408)" fill="#FFFFFF" fill-rule="nonzero">
                                    <ellipse id="head-left-glare-2" cx="1.38619783" cy="1.32466617" rx="1.38619783" ry="1.32466617"></ellipse>
                                    <ellipse id="head-left-glare-1" cx="4.59178032" cy="2.40095744" rx="1" ry="1"></ellipse>
                                </g>
                            </g>
                            <g id="Group" transform="translate(0.036651, 0.000000)">
                                <path d="M5.45672721,0.131260023 C0.942750114,0.980304433 -1.42879694,6.26132665 0.922441365,10.2288239 C3.63094204,14.7990973 10.5811109,14.6103578 12.923482,9.90320573 C15.4912517,4.742342 11.1497559,-0.939680839 5.45672721,0.131260023" id="head-left-eye" fill="#000000"></path>
                                <g id="head-left-glare" transform="translate(4.377467, 3.522408)" fill="#FFFFFF" fill-rule="nonzero">
                                    <ellipse id="head-left-glare-2" cx="1.38619783" cy="1.32466617" rx="1.38619783" ry="1.32466617"></ellipse>
                                    <ellipse id="head-left-glare-1" cx="4.59178032" cy="2.40095744" rx="1" ry="1"></ellipse>
                                </g>
                            </g>
                        </g>
                    </g>
                    <path d="M62.8986264,37.3138002 C68.0029297,41.5473707 70.850584,48.0214646 73.3261421,48.0214646 C75.8017002,48.0214646 80.3341018,43.1539563 79.6008299,40.0756054 C79.1119819,38.0233715 75.6744118,35.6850757 69.2881194,33.060718 C75.5513018,33.7220757 79.2417848,33.5595543 80.3595686,32.5731538 C82.0362444,31.0935532 80.3595686,24.8918184 77.923932,24.1541639 C75.4882953,23.4165095 65.3285013,25.6310844 60.7201365,28.346059 C56.1117716,31.0610337 57.7943232,33.0802297 62.8986264,37.3138002 Z" id="head-bow" fill="#000000"></path>
                </g>
                <path d="M26.0703739,57.2317998 L0.23000756,78.0171437 C46.8497904,78.0171437 70.9241543,78.0171437 72.4530993,78.0171437 C73.9820443,78.0171437 67.4378761,70.1126414 52.8205949,54.3036368 L26.0703739,57.2317998 Z" id="Path-5" fill="#000000"></path>
            </g>
        </g>
        <rect id="Rectangle-4" fill="#D8D8D8" fill-rule="nonzero" mask="url(#mask-2)" transform="translate(92.744454, 31.140963) rotate(-338.000000) translate(-92.744454, -31.140963) " x="73.0969094" y="27.0631705" width="39.2950882" height="8.15558435"></rect>
        <path d="M75.4556835,55.8752971 C73.6145397,50.1538244 76.2735728,44.517784 80.3776515,41.6887358 C84.4817303,38.8596875 78.1235457,34.1582455 75.4556835,32.9191046 C84.0088395,30.2097471 88.7373549,36.8812664 90.7392377,39.1085601 C92.7411205,41.3358538 97.0233811,36.0823565 98.3614408,33.4058954 C100.741537,42.0119043 94.358539,46.5217677 92.5488883,48.3479633 C90.7392377,50.1741588 96.2964531,55.4110982 98.0199592,56.1373463 C90.1676455,59.1606848 84.697395,52.3140748 83.284052,50.6953041 C81.870709,49.0765334 78.2330823,50.5028417 75.4556835,55.8752971 Z M86.898207,47.0004815 C88.2188558,47.0004815 89.2894531,45.9124982 89.2894531,44.5704027 C89.2894531,43.2283072 88.2188558,42.1403238 86.898207,42.1403238 C85.5775582,42.1403238 84.5069609,43.2283072 84.5069609,44.5704027 C84.5069609,45.9124982 85.5775582,47.0004815 86.898207,47.0004815 Z" id="shuriken" fill="#000000" mask="url(#mask-2)" transform="translate(86.873843, 44.590427) rotate(-26.000000) translate(-86.873843, -44.590427) "></path>
    </g>
</svg>